<svg xmlns="http://www.w3.org/2000/svg" xmlns:xlink="http://www.w3.org/1999/xlink" id="e456c019-ec18-4253-9e8d-44033cf5b484" width="800" height="600" x="0" y="0" data-name="Слой 1" version="1.1" viewBox="0 0 800 600"><path fill="#f2c617" d="M783.31,63.41a13.68,13.68,0,0,0-.59-1.61,5.63,5.63,0,0,0-1-1.35,6.31,6.31,0,0,0,.6-4.64,6.21,6.21,0,0,0-3.07-3.9,20.6,20.6,0,0,0-4.09-1.61l-.51-.14-.51-.13-1-.27-1.19-.2a9.09,9.09,0,0,0-1.36-.14,8.49,8.49,0,0,0-2.9.41,8.11,8.11,0,0,0-2.39,1.34,14.92,14.92,0,0,0-3.32,4,13.1,13.1,0,0,0-5.8,2.22l-4.94,3.36-2.3,1.62A15.14,15.14,0,0,1,747,63.48a2.39,2.39,0,0,1-1.19.34,1.75,1.75,0,0,1-.85-.2,2.39,2.39,0,0,1-.85-.88,4.44,4.44,0,0,1-.6-1.48,3.88,3.88,0,0,1-.17-1L743.17,59l-.34-2.42c-.17-1.61-.26-3.23-.34-4.78a13,13,0,0,1,.34-3.69,13.78,13.78,0,0,1,1.45-3.64,18.31,18.31,0,0,0,1.62-4,15.21,15.21,0,0,0,.76-4.77,7.35,7.35,0,0,0-1.53-4.84,5.44,5.44,0,0,0-1.71-1.55,6.62,6.62,0,0,0-1-.47l-.51-.2-.51-.14-.34-.81-.51-.74a9.6,9.6,0,0,0-1.2-1.27,5.36,5.36,0,0,0-1.53-1,11.59,11.59,0,0,0-1.71-.74,12,12,0,0,0-7.5.2,9.46,9.46,0,0,0-1.79-.61l-1-.2s-.68-.06-1-.06a10.81,10.81,0,0,0-2,.06,16,16,0,0,0-2,.34,9.41,9.41,0,0,0-5.45,3.36,9.12,9.12,0,0,0-4.86.74c-2.81,1.41-5.54,2.89-8.18,4.37a34.19,34.19,0,0,0-7,5.18,2.58,2.58,0,0,1-1.45.81c-4.35,1.75-5.71,2.83-7.59,5.92a14.52,14.52,0,0,0-5.37,2.29c-3.32,2.35-6.47,4.77-9.63,7.19a8.28,8.28,0,0,0-2.38,2.76,2.29,2.29,0,0,1-1.79,1.35,21.71,21.71,0,0,0-4.35,1.41c-1.11.47-2.22,1.08-3.24,1.61-.85.41-1.19.27-1.53-.33l-.69-1.21a6.79,6.79,0,0,1-.59-1.28c-.43-1.28-1.62-3.63-1.11-4.24.34-.4.6-.81.94-1.14a6.42,6.42,0,0,0,.93-1.15,10.21,10.21,0,0,0,1.62-3c1.11-2.89,2.73-5.91,3.33-8.67a31.69,31.69,0,0,1,3.24-8c1.1-2-.09-3.76.85-5a15.27,15.27,0,0,0,3.07-5.11,24.41,24.41,0,0,0,.93-4.85,15.21,15.21,0,0,0-.34-5.24l-.25-.94a4.46,4.46,0,0,0-.43-.88,5.18,5.18,0,0,0-.59-.81l-.26-.33c-.09-.14-.26-.2-.34-.27A7,7,0,0,1,667,7.05a5.73,5.73,0,0,1-.51-.68,6.45,6.45,0,0,0-.68-.74,12.11,12.11,0,0,0-4.69-3,18.31,18.31,0,0,0-5.8-1.08,32.94,32.94,0,0,0-10,1.68,4.44,4.44,0,0,0-1.7,1.08c-.6.61-.94.67-2,.67a17.64,17.64,0,0,0-5.28.61,15.78,15.78,0,0,0-4.61,2.49,2.52,2.52,0,0,1-1.87.8,23.77,23.77,0,0,0-3.15.54,14.27,14.27,0,0,0-2.48.88,13.31,13.31,0,0,0-4.26,3.29,14.2,14.2,0,0,0-5.79,1.68,10.26,10.26,0,0,0-2.48,1.82,13.1,13.1,0,0,1-1.87,1.75,9.94,9.94,0,0,1-2.56,1.07,15.65,15.65,0,0,0-3.15,1.35,11.75,11.75,0,0,0-1.45,1.14,13.72,13.72,0,0,0-.94,1.21,4.69,4.69,0,0,1-2,1.82A25.69,25.69,0,0,0,596.48,27a19.57,19.57,0,0,0-2.89,2l-3,2.55c-1,.88-2,1.75-2.9,2.62a19.1,19.1,0,0,0-3,3.23,5.07,5.07,0,0,0-1,3,13.22,13.22,0,0,0-5.37,3.43,9.21,9.21,0,0,0-1.45,2.42,11.65,11.65,0,0,0-.68,2.89A11.73,11.73,0,0,0,571.51,53a10,10,0,0,0-1.36,5.78,5.9,5.9,0,0,0-3.07,3,35.13,35.13,0,0,0-2.39,7.67,14.72,14.72,0,0,0,.68,7.87,1.59,1.59,0,0,1,.26,1.21,7.82,7.82,0,0,0,.94,5A8,8,0,0,0,570.74,87a4.46,4.46,0,0,0,2,2.22,8,8,0,0,0,4.18,1.15,22.06,22.06,0,0,0,4.26-.41,22.76,22.76,0,0,0,3.67-1.07l1.7-.68,1.54-.74a20.46,20.46,0,0,0,2.64-1.61,96.62,96.62,0,0,1,8.78-5.38,103.15,103.15,0,0,0,9.63-6.12A26.68,26.68,0,0,1,618.05,70c.85-.21,1.79-.47,2.72-.74s1.88-.47,2.73-.68l1.37-.27.68-.13c.25-.07.42-.07.59-.13a8.6,8.6,0,0,1,1.88-.21h.43c.08,0,.08,0,.17.07a.91.91,0,0,1,.25.88,6.83,6.83,0,0,1-.25,1.88c-.17.67-.35,1.34-.52,2.08a38.11,38.11,0,0,0-1.1,4.78,17.23,17.23,0,0,0-.26,5.11c.09.88.26,1.68.43,2.56l.25,1.28.17.6.26.61a19.68,19.68,0,0,0,2.47,4.91,12.62,12.62,0,0,0,5,4,18.58,18.58,0,0,0,1.79.67,19,19,0,0,0,1.87.48,6,6,0,0,0,1,.13l1,.07h2a12.17,12.17,0,0,0,3.84-.81,5.55,5.55,0,0,0,2.3-1.48c.68-.74,1-.81,2.21-.87a12.7,12.7,0,0,0,5.54-1.42,11,11,0,0,0,2.22-1.48,8.77,8.77,0,0,0,1.62-1.88,2.18,2.18,0,0,1,2-1.21,12,12,0,0,0,4.94-2.29c2.39-1.68,2.73-4.1,3.84-4.64,2-1,3.92-1.61,6-3.43,2.56-2.29,5.46-4.51,7.67-6.79a29.35,29.35,0,0,1,7.59-5.92l.26-.2a7.69,7.69,0,0,0,1.87-1.95,4.09,4.09,0,0,1,1.54-1.55c1.53-.81,3.32-.74,5.36-1.75.86-.47,1.79-.81,2.73-1.21a24.46,24.46,0,0,1,2.82-1,48.65,48.65,0,0,1,5.28-1.55,6.5,6.5,0,0,1,6.56,1.82,15.53,15.53,0,0,1,1.37,1.75,16.75,16.75,0,0,1,1.19,2c.34.67.68,1.48,1.11,2.22a20.91,20.91,0,0,1,.93,2.28,29.77,29.77,0,0,1,2,8.07,27.91,27.91,0,0,0,1,5.18,23.27,23.27,0,0,0,2.21,5c.94,1.48,1.79,2.89,2.73,4.24l.77,1,.77,1a25.37,25.37,0,0,0,1.87,2.16,9.74,9.74,0,0,0,2.81,2,12.48,12.48,0,0,0,3.92,1.22,14.08,14.08,0,0,0,4.1,0,16.23,16.23,0,0,0,3.49-1,21.33,21.33,0,0,0,5.71-3.64,3.58,3.58,0,0,1,.6-.53,3.58,3.58,0,0,0,.51-.54l.51-.61.43-.6c.59-.81,1.1-1.62,1.62-2.49a16.74,16.74,0,0,0,1.53-4.84c.17-1.22.26-2.49.34-3.64l.77.14c.08-.34.25-.68.34-1.08a13.26,13.26,0,0,1,1.62-4.17,7,7,0,0,1,1.28-1.48,4.18,4.18,0,0,1,1.36-.87,2.93,2.93,0,0,1,1.36-.27,5.22,5.22,0,0,1,1.79.33c.69.27,1.37.54,2.05.88s1.45.81,2.39,1.28L775,74a7.16,7.16,0,0,0,2,.47,5,5,0,0,0,1.44,0,6.58,6.58,0,0,0,1.71-.4,5.41,5.41,0,0,0,2.21-1.68,5.51,5.51,0,0,0,.86-1.55,7.67,7.67,0,0,0,.42-1.34c.17-.81.26-1.62.43-2.36a25.39,25.39,0,0,1-.77-3.77Zm-68.78,33.3c-1-.07-.94-.13-.09-.27,1.54-.34,2.31-.67,2.31-.94s-.69-.47-2.13-.54c-.6,0-.86,0-.26-.27,1.36-.6,2-1.07,1.79-1.28s-1.28-.33-3.07-.06c1.28-.68,2.3-1.35,2-1.75s-2.22.13-2.65,0c-.17-.07.17-.41.52-.81s.76-.87.59-1.14-.94-.07-1.62.2-1.19.47-.93,0a4.28,4.28,0,0,0,.51-1.28.69.69,0,0,0-.34-.74l-.86-.47-.85-.47c-.68-.4-1.7-.27-3.24,2,.51-2,.43-3,0-3.16s-1.28.67-2.13,2.48a9.28,9.28,0,0,0-.25-2.15c-.17-.47-.35-.74-.52-.74-.42,0-1,.88-1.53,2.76-.17-1.21-.51-2.56-.94-2.49a2.1,2.1,0,0,1-.93-.13,4.3,4.3,0,0,0-.94-.07c-.6,0-1.2.34-1.37,1.48,0,.2-.08.34-.25.13-.68-.94-1.2-1.14-1.37-.87a.52.52,0,0,0-.08.34,1.1,1.1,0,0,0-.09.53,5.38,5.38,0,0,0,.26,1.62c-.94-1.21-1.79-2-2.22-1.75a10.81,10.81,0,0,1-1.36.34,1.12,1.12,0,0,0-.85.8c-.09.81-.68,1-1.62.94a1.34,1.34,0,0,0-1.54.74.38.38,0,0,0,0,.41c.09.8-.25,1.07-1.27,1s-1.62.33-1.28,1.21-.17,1-1.11,1.07-1.36.47-1.11,1.21,0,1.08-.94,1.15-.68.74-1,1.14c-.17.2.17.67,1.62,1.48.94.54.77.54-.17.2-3.07-.94-3.41-.47-.68,1.08.94.54.68.47-.26.2-1.53-.47-2.13-.47-2.38-.27s2.81,1.75,2.13,1.68c-1.2-.13-2.9-.53-3.07-.2s-.94.74-.51,1.35.59,1.14-.69,1.21c-.17.27,2.22,1.14,2.05,1.28s-2.56-.27-2.64.06c-.09.54-.94.94-.34,1.62s.42.87-.43,1.21c-.6.13-1,.74-.77,1.21a1.08,1.08,0,0,0,.34.47,1,1,0,0,1,.43.74,1,1,0,0,1-.6.67,1,1,0,0,0-.59,1.35,1.81,1.81,0,0,0,.42.4c.86.54.69,1,.09,1.62a1,1,0,0,0-.34.94,1.61,1.61,0,0,0,.77.87,1.45,1.45,0,0,1,.85.81,1.77,1.77,0,0,1-.17,1.14,1.11,1.11,0,0,0,.25,1,10.31,10.31,0,0,0,.86.88.49.49,0,0,0,.42.2h-.08c0,.06,0,.06.08.13a12,12,0,0,0,.94,1.28,2.89,2.89,0,0,0,1.62.74,3.82,3.82,0,0,1,1.53.27,2.37,2.37,0,0,1,1,.87,1.49,1.49,0,0,0,1.19.61c.25,0,.51.07.68.07a2.57,2.57,0,0,1,.68.06,1.09,1.09,0,0,0,1.2-.33,5.11,5.11,0,0,0,.93-2.36,5.87,5.87,0,0,0,1,2.83c.34.4.76.2.93-.61.34-1.68.43-1.68,1.28-.13s1.45.47,1.11-2.29c.77,1.41,1.53,2.42,2.05,2.29.76-.2,1.7-.07,2.13-.81s.76-.87,1.62-.67a1.91,1.91,0,0,0,1.36-.14,1.11,1.11,0,0,0,.6-.94c.08-.67.34-1,1.27-.74s.94-.47,1.45-.67.51-.88-1.36-2.83c2,1.28,3.07,1.75,3.32,1.55s-.34-1.08-1.87-2.55c2,1.21,3.15,1.61,3.32,1.34s-.51-1.21-2-2.49c1.19.67,2.72,1.48,2.89,1.28s1-.4,1.37-.67.42-.74-.43-1.68c-.25-.21,0-.21.26-.14,2.13.54,2.13.14-.43-1.75,1.37.47,2.73.94,2.9.67l1-1.41c.09-.2-.25-.54-1-1s-.77-.53.09-.33c2.55.54,2.64.06.08-1.28-.94-.47-.77-.47.26-.2,1.53.4,2.21.33,2.47.13s-2.9-1.68-2.3-1.61c1.53.2,3.06.4,3.15,0s1-.74.34-1.42-.34-1,.6-1.21c.76-.2-2.81-1.14-1.88-1.21,1.11-.06,2.47-.06,2.47-.4a8.07,8.07,0,0,1,.35-1.41c.08-.2-.09-.34-.86-.61-.93-.27-.51-.33-.08-.47,1-.34,1.53-.81,1.53-1.28a2,2,0,0,0-1-1.48,3.89,3.89,0,0,0-1.62-.4Z"/><path fill="#efc41a" d="M752.49,536.36c-45,39.72-107.2,37.51-163.49,40.75q-95.18,5.48-190.54,5.92-41.94.19-83.88-.59c-47.6-.89-97.28-2.56-144.21-11.71C145,565.79,120,557.89,97.28,545.81a188.58,188.58,0,0,1-28.44-18.46C19.71,488.6-11.42,405.82,37.71,353.72c15.39-16.33,36.53-26.44,58.38-31.56,54.33-12.74,110.33,3.33,165,4.72,6.21.16,12.54,0,18.91-.44,29.47-2.09,59.73-11,83-28.66A101.66,101.66,0,0,0,393.5,261q1.11-2.3,2.13-4.68c7.68-18.05,12.63-36.3,19.06-54q.82-2.31,1.7-4.59c5.12-13.45,11.32-26.57,20.43-39A116.57,116.57,0,0,1,454.89,139c65-56.1,174.4-19.7,199.93,64.39,8.52,28,11.21,57.88,22.68,84.85,5.73,13.45,14.21,26.1,25.24,35.78,11.78,10.34,24.75,11.26,37.72,18.27,20.16,10.9,34.39,35.51,41.17,56.48C796.12,443.61,789.44,503.76,752.49,536.36Z"/><path fill="#fff" d="M486.65,303.24v1.94a10.72,10.72,0,0,1-.31,1.84,8.12,8.12,0,0,1-.51,1.73l-.61,1.64-.71,1.43a14.34,14.34,0,0,1-1.53,2.65l-.92,1.23-1,1.22a26.2,26.2,0,0,1-4.8,4.08,19.61,19.61,0,0,1-6.33,2.45,28.16,28.16,0,0,1-6.53.41l-10.93-1c-4.18-.41-8.57-1.84-12.66-3.16a10.25,10.25,0,0,1-4.79-3,15.07,15.07,0,0,1-10.21-2.45,2.78,2.78,0,0,0-1.33-.31,42.67,42.67,0,0,1-8.37-1.33,40.55,40.55,0,0,0-8.58-.51,8.72,8.72,0,0,1-4.28-.81c-.62.4-1.64,1-1.64,1l-1.43.92a21.11,21.11,0,0,1-2.65,1.32,8.4,8.4,0,0,1-2.76.72c-1,.1-2.14.2-3.26.2-3.17,4-6.13,5.82-11,6.33-.61,2.14-3,4.08-5.92,6l-3.47,2.25-3.57,2.25a23.06,23.06,0,0,1-6.74,2.75,5.12,5.12,0,0,0-2.55,1.53,7.23,7.23,0,0,1-1.33,1.13,7.86,7.86,0,0,1-1.84.91,10.47,10.47,0,0,1-3.57.62,7,7,0,0,0-2.86.3,21.25,21.25,0,0,0-2.66,1.13,10.55,10.55,0,0,1-3.36.92,12.8,12.8,0,0,1-3.47-.21,12.51,12.51,0,0,1-2.56-.92c-4.59,1.23-7.14.92-11.12-1.63a3,3,0,0,0-2.05-.51,13.51,13.51,0,0,1-5.3-.82,11.83,11.83,0,0,1-4.29-2.75,1.8,1.8,0,0,0-1.94-.72,4.69,4.69,0,0,1-2-.1,151.26,151.26,0,0,1-17.66-6.33l-1.54-.61a3.59,3.59,0,0,0-1.53,0,12.82,12.82,0,0,1-3.47-.21l-2.65-.3-2-.08c29.47-2.09,59.73-11,83-28.66A101.66,101.66,0,0,0,393.5,261c1.73.7,3.44,1.43,5.15,2.29,3.47,1.73,6.43,4.38,9.39,6.83,2.35,1.94,3.07,3.68,4.39,5.62.72,1,3.58,1.33,5.72,3.27a12.9,12.9,0,0,1,3.37,4.08c.31.82.61,1.12,1.74,1.33a15.18,15.18,0,0,1,8.67,4.9,1.84,1.84,0,0,0,2,.71,15.73,15.73,0,0,1,5.31.1,31.77,31.77,0,0,0,5.41.11c1.84,0,3.78-.11,5.62,0a82.57,82.57,0,0,0,11.23-.21,30.27,30.27,0,0,1,6,0,44.18,44.18,0,0,1,6.13,1.12,54.11,54.11,0,0,1,5.61,2.15,16.45,16.45,0,0,1,5.31,4.18,16.7,16.7,0,0,1,1,1.74,13.79,13.79,0,0,1,.71,1.94A13.07,13.07,0,0,1,486.65,303.24Z"/><path fill="#ea472c" d="M139.49,171c1,.22,2.15-1.85,3.52-7.87-.34.38-.7.82-1.08,1.31a4.36,4.36,0,0,0-2.22-2.56c-3,.77-7.1,2.74-9.29.62a8.26,8.26,0,0,0-1.12-.6c-1,.24-1.9.49-2.62.71a6.74,6.74,0,0,0-1.25-.92c-1.47.54-2.69,1.57-4.45,1.48l-.3-.13c-5.68-2.45-16.34-3.79-20,1.6-3.76-4.53-7.06-4.54-10.95-.25-4-4.26-6.61-4.25-11.06,0-2.4-5.37-15.13-3-20.51-1.83-3.46-2.38-6.45-1.51-9,1.39-11.6-6.56-17.13,3.69-18.68,13.72a32.44,32.44,0,0,0,.14,11.89c.17,15.88-.12,31.46-.22,47.48,0,2.77.64,2.93,2.55,3.89,2.13,2-7.25,4.61.12,8.74,3,2.82-7.28.92.55,9.59-6,6.32-3.26,16.93-.37,23.79-3.44,3.09-3.4,7.93-2.49,12.92,1.91,5.78-2.23,9.86,0,15.75,1.14,14.1-2.42,28,2,42,1.83,4.72,12.54,9.9,14.84,6,0,1,.1,1.69.38,1.54,10.06-1.51,29.77,3.58,35.23-3.22,5.11,7.93,9-1.54,13.65,2.56,2.21,1.86,5,.76,8.31-2.31,3.79,5.45,14,2.72,20.33,2.89a6,6,0,0,0,.63-.08c5.68-1,2.37-10.34,4.75-14.77-3.14-8.4,6.07-18.55-2.6-24.8,5.68-3,5.82-5.87.68-8.87,5.85-2.52,5.28-6.67.54-9,7.16-2,4.33-12.32,3.68-16.95,2.53-3,2.32-4.36-1.26-7.15,6.63-2.16,3-13.79,2.51-17.34,6.32-4-2.49-6.32-.08-8.5,5.41-2.09.63-6-.13-8.06,7.55-5.05,1.46-13.49,4.48-19.95.84-2.15-3.22-3.22-2.18-4.36,4.2-3.31,2.69-8,3.36-12.3-3.06-5.84,5.2-14.24-1.12-19.64-1.64-2.71,6.92-3.81,1-8.5a4.85,4.85,0,0,1,1.51-3.27,4.79,4.79,0,0,0,.75-1,2.31,2.31,0,0,0,0-2.24A14.11,14.11,0,0,0,139.49,171ZM47.63,355.69s0,.05,0,.14A.74.74,0,0,0,47.63,355.69Z"/><path fill="#382d15" d="M180.8,171c.76.23,1.63-1.93,2.67-8.23-.66-3.76-6.85,3.08-9.41-.27-3.51-3-4.56.84-7,.67-4.16-2.53-12.32-4-15.06,1.47-2.79-4.53-5.24-4.54-8.13-.25-2.64-3.78-4.46-4.2-7.14-1.26-.34.38-.7.82-1.08,1.31a4.32,4.32,0,0,0-2.22-2.56c-2.71-1.4-7.11-.77-10.4,0-1,.24-1.9.49-2.63.71a6.14,6.14,0,0,0-1.25-.92c-1.75-1-3.33-.35-4.75,1.35-.23.29-.47.61-.7,1-12.53-9.51-15.52,16.37-13.78,25.61.12,15.88-.1,31.46-.17,47.48,0,2.77.47,2.93,1.9,3.89,1.58,2-5.39,4.61.09,8.74,2.22,2.82-5.41.92.4,9.59-4.46,6.32-2.43,16.93-.27,23.79C99.3,286.16,99.32,291,100,296c1.42,5.78-1.66,9.86,0,15.75.86,14.1-1.42,30.33,1.87,44.31,1.37,4.73,8.3,9.49,10,5.6,0,1,2.81.81,3,.66a12.23,12.23,0,0,1,4.84-.52c7.39.49,16.26,1.34,19.26-3.69,3.8,7.93,6.65-1.54,10.14,2.56,1.65,1.86,3.68.76,6.18-2.31,2.82,5.45,10.36,2.72,15.11,2.89,4.86-.41,2.15-10.27,4-14.85-2.33-8.4,4.52-18.55-1.93-24.8,4.22-3,4.33-5.87.5-8.87,4.35-2.52,3.93-6.67.41-9,5.33-2,3.22-12.32,2.74-16.95,1.88-3,1.71-4.36-.94-7.15,4.93-2.16,2.22-13.79,1.85-17.34,4.7-4-1.84-6.32-.05-8.5,4-2.09.46-6-.1-8.06,5.62-5.05,1.09-13.49,3.33-19.95.62-2.15-2.4-3.22-1.62-4.36,3.12-3.31,2-8,2.5-12.3-2.28-5.84,3.87-14.24-.83-19.64-1.23-2.71,5.13-3.81.76-8.5C181.11,176.53,185.31,177.74,180.8,171ZM112.54,355.69s0,.05,0,.14Z"/><path fill="#ea472c" d="M200.26,549.62c-.53,0-8.36-.57-11.33.18-6.9-.88-15.3,1.67-21.67-.94-2.9,1.09-7.29,2.17-10-.12-.91.32-2.34,2.25-3.34.25-1-.54-2.32,2.55-3.7,0-2.45,1.1-11.31,3.18-10.11-3.28a58.52,58.52,0,0,0,.25-11.05c-.24-5.87-.58-11.75,1.29-16.5-1.39-.65-1.84-11.16.31-11.2-1.77-1.72-1.77-2.71,0-4.2-1.77-1.5-1.75-2.75.15-4.15-3.62-2.69.47-7.33-.16-10.59,2-.91,1.57-5.65,3.87-4.9-.44-3,1.64-2.26,2.87-3.34.34-2.87,2.47-1.08,3.48-1.9,4.2-5.29,14.47-.05,19.07,1.9,1.93.82,4,2.16,4.15,4.55,3.74.6,1.86,1.38,3.07,3.41,1.52.13,2.23,1.36,1.76,3.07,1.16,1.77,2.5,7.2.21,8.69,1.35,1.06,1.81,10.75-.41,11.18,1.67.91,1.91,3.23,0,3.93a4.37,4.37,0,0,0,1.33-.11s-.37.36-.34,1.46c4.9-4.35,14.8,1.51,18.1,6.85.52,2-.08,2.77,1.85,3.71,1.09,1.41-1.11,2.89.76,3.94,1.12,1,.34,2.64-.75,3.49a3.86,3.86,0,0,1,.78.71c1.79,2.24-.3,5.91.53,8.7C203.35,545.55,201.5,549.52,200.26,549.62Z"/><path fill="#382d15" d="M200.26,549.62c-.53,0-8.36-.57-11.33.18-6.9-.88-15.3,1.67-21.67-.94-2.9,1.09-7.29,2.17-10-.12-.91.32-2.34,2.25-3.34.25-1-.54-2.32,2.55-3.7,0-2.45,1.1-11.31,3.18-10.11-3.28a58.52,58.52,0,0,0,.25-11.05h61.38c1.79,2.24-.3,5.91.53,8.7C203.35,545.55,201.5,549.52,200.26,549.62Z"/><path fill="#ea472c" d="M270.3,549.62c-.52,0-8.27-.57-11.21.18-6.83-.88-15.15,1.67-21.46-.94-2.87,1.09-4.8,2.17-7.43-.12-.91.32-2.33,2.25-3.32.25-1-.54-2.29,2.55-3.66,0-2.43,1.1-11.2,3.18-10-3.28a60.25,60.25,0,0,0,.25-11.05c-.24-5.87-.57-11.75,1.27-16.5-1.37-.65-1.82-11.16.31-11.2-1.76-1.72-1.76-2.71,0-4.2-1.75-1.5-1.73-2.75.15-4.15-3.58-2.69.46-7.33-.16-10.59,1.94-.91,1.55-5.65,3.83-4.9-.43-3,1.63-2.26,2.85-3.34.33-2.87,2.44-1.08,3.45-1.9,4.15-5.29,11.89-.05,16.46,1.9,1.9.82,3.93,2.16,4.1,4.55,3.7.6,1.84,1.38,3,3.41,1.5.13,2.21,1.36,1.74,3.07,1.16,1.77,2.48,7.2.21,8.69,1.34,1.06,1.79,10.75-.4,11.18,1.65.91,1.89,3.23,0,3.93a4.4,4.4,0,0,0,1.32-.11s-.37.36-.34,1.46c4.85-4.35,14.66,1.51,17.92,6.85.51,2-.08,2.77,1.83,3.71,1.08,1.41-1.09,2.89.76,3.94,1.1,1,.34,2.64-.74,3.49a3.73,3.73,0,0,1,.76.71c1.78,2.24-.29,5.91.53,8.7C273.37,545.55,271.54,549.52,270.3,549.62Z"/><path fill="#382d15" d="M270.3,549.62c-.52,0-8.27-.57-11.21.18-6.83-.88-15.15,1.67-21.46-.94-2.87,1.09-4.8,2.17-7.43-.12-.91.32-2.33,2.25-3.32.25-1-.54-2.29,2.55-3.66,0-2.43,1.1-11.2,3.18-10-3.28a60.25,60.25,0,0,0,.25-11.05h58.35c1.78,2.24-.29,5.91.53,8.7C273.37,545.55,271.54,549.52,270.3,549.62Z"/><path fill="#efc41a" d="M339.55,262.43c-.26,2.38,0,2.82-1.51,4.92-1.07,2-5.68,6.67-7.45,5.25A5.64,5.64,0,0,1,322.8,275c-2.36,2.28-4.62,2.71-7.54,1.31l-.09-.05c-2.56,3-10.41,5.48-14.33,5.19-1.2-.21-2.17,1.28-3.7,1.49s-2.74-.56-3.8-.25-1.83,1.26-3.33,1.51c-2.51.11-3.72,0-3.57-.44-3.77,3.26-4.71.83-7.64,1.72-3.7,2.94-5.27,0-7.19,1.13-3.85,2.92-9.94,2-14.35,3.09-3.94,1.45-9,2.43-13.07,1.27-1.05-.28-1.75,1.22-3.7,1a27,27,0,0,0-6.42-.15c-3.87.07-8.14-.13-11.14-2.3-1.92,0-5.21,1.13-6.93-1.26-.38-.53-.63-.64-1.34-.4-4,1.41-4.87-1.95-7.32-2-2.81.08-11.66-3.7-12.32-5.88-2.6.29-3.68-.06-5.83-1.92-3.07-1.21-12.08-3.42-13.09-6.83a6.05,6.05,0,0,1-7.09-3.14c-2.94.76-5.23-.24-7-3.14-7.54,1-14.57-7.29-18.31-13.16-2-6.31-5.33-16.36.54-21.32-.65-3.52,1.34-5.59,3.94-7.18,1.17-2.63,3.05-5.38,6.53-4.83,3.71-7.26,20.35-5.33,26-1.28,6.08,3.62,12.52,7.28,18.53,10.95a22.66,22.66,0,0,0,5.6,3.33c4.46,1.7,7.21,5.1,11.7,6.91,3.42,1.36,6,3.7,8.8,5.28a101.35,101.35,0,0,0,9.82,3.07c2.91,1.39,3.61,2.07,6.33.95,5.45,1.41,12.62-.16,17.78,2,1.94-.46,4.47-2.53,6.87-.83,1.68.86,3.54-3,7.63-.65.48.33,4.21.92,4.67.44,4.26-2.85,27.36-2.5,30.88-.85l.69-.23c6-2,11.23-.38,17-1.42a40.66,40.66,0,0,1,7.16,1.09c2.91.87,4.8,2.58,4.65,6.47a13.6,13.6,0,0,1-.2,1.79,5.37,5.37,0,0,1,1.65,3.08A5.88,5.88,0,0,1,339.55,262.43Z"/><path fill="#efc41a" d="M388.87,214.27c-.32,1.18-2.15.66-1.91,1.49.26,2.24-3.5,3.27-5.27,2.91s-3.29.6-4.9,0c-1.8-.63-3.77.61-5.58-.09s-3.8.54-5.56-.09a4.5,4.5,0,0,0-2.55-.05c-1.78.09-3.51.52-4.44-1-.76,1-1.61,1.32-2.59.45-1.35.41-5.46,1.13-5.86-.75-1.29,1.51-2,1.5-3.16-.05-1.14,1.52-2.08,1.5-3.13-.14-1,1.92-4.32,1.37-5.81.43-.45-.35-1,.72-1.59.66s-1-.89-1.48-.81-.84.75-1.45.73c-1-.31-1.48-.61-1.38-.91-1.87,2.14-2-.18-3.28.18-2.75,1.53-2.3-1.6-3.36-1.39-2.21.2-3.92-3.21-3.39-5.28.08-.49.18-.76-.06-1.09-.52-.89.06-2,.29-2.82a3.73,3.73,0,0,1,1.63-2.65c.39-.31-.63-1-.19-1.67,1.43-2,.54-5.39,3.09-6.54.05-.91-1.11-2.28.72-2.79,1.06-.33-1.5-1.82.77-2.94.35-.17.37-.26.15-.61a1.67,1.67,0,0,1-.07-.41c-.16-1.58,1-4.73,2.24-4.77-1.07-1.55-.16-1.8.49-2.95-.69-2.06,2.34-6.15,4.21-4.75a1.82,1.82,0,0,1,3.43-.84c1-1.56,2-1.58,3.1,0,1.64-2.61,4.6-.3,7-1.08,2.06-.62,3.56.52,5.57,0,1.74-.1,3.62-.63,4.5,1,2.16-2.86,2.42.81,4-.83.66-.69,1.6-.23,2.33.92,1-1.79,2.86-1.22,4.49-1.14,1.86.55,3.72-.47,5.68,0v2h0c0-.66,0-1.31,0-2,3.43-.4,6.24,2.73,7.6,5.56.45,1.58-.08,2.83.78,4.23s.43,3.13.9,4.7a3.84,3.84,0,0,0,.34.79c1.06,1.91.23,3.63,1.21,5.51a16,16,0,0,1,.76,3.1c-.22,1.66-.92,1.55.6,2.7-.24,2.43,2.27,4.89.7,7.2.81,1.1,2.08,1.86.45,3.26C388,212.1,389.56,213.34,388.87,214.27Z"/><path fill="#382d15" d="M384.76,189.21c-1.7.64-3.12-.52-4.62.45-2.44-1.41-1.41.92-3.46-.37-1,.15-4.31,1-5-.27-.27.8-7.08,1.08-7-.15a1.45,1.45,0,0,1-2.59,0c-.8,1.08-1.63,1.09-2.56,0-1.35,1.78-3.8.2-5.76.74-2.61-.28-6.44.9-8.3-.69-.8.75-1.44,1-2,.56-1.11-1-2,1.31-3.23-.63-2,1.78-5.59.34-8.31.79-.18.09,0-1.41-.09-1.37.24,1.74-1.52,1.6-3.39.82-.16-1.58,1-4.73,2.24-4.77-1.07-1.55-.16-1.8.49-2.95-.69-2.06,2.34-6.15,4.21-4.75a1.82,1.82,0,0,1,3.43-.84c1-1.56,2-1.58,3.1,0,1.64-2.61,4.6-.3,7-1.08,2.06-.62,3.56.52,5.57,0,1.74-.1,3.62-.63,4.5,1,2.16-2.86,2.42.81,4-.83.66-.69,1.6-.23,2.33.92,1-1.79,2.86-1.22,4.49-1.14,1.86.55,3.72-.47,5.68,0v0c3.43-.4,6.24,2.73,7.6,5.56.45,1.58-.08,2.83.78,4.23S384.29,187.64,384.76,189.21Z"/><path fill="#ea472c" d="M288.5,226.7c-1.22-4.46,1.52-12.67,6.79-10.15,1,1.06,1.49,1,2.49,0,2.37-1.51,2.9,2.19,6.08-.41,6.25,1.17,20.77-2.26,24.66,1.78,1.78-2.47,3.39-2.44,4.91,0,1.54-2.57,3.82-2.19,5,0,1.27-3.18,6.91-1.58,9.45-1.14,1.74-1,2.46-.91,3.91.79,1.39-2.9,7.66-.94,9.64-.59,2-2.6,3.37,1.08,4.69.3,1.28-2.38,3.32-.1,4.44.31,3-3.25,7.46-.24,11.13-1.41,1.2-.31,1.69,1.56,2.35,1.13,1.94-1.8,4.48-1,6.87-1.14,3.15,1.57,8-1.91,10.82,1.12,1.46.48,2.74-2.8,4.67-.21,1.89.12,3-2.43,5,.43-.18-1.43,3.61-1.49,4.48-.21,1.52-.18,3.62-2.09,5-.56,1.57,3.62,4.28,10.06.26,12.94,4.21,2.43.07,4.94.25,7.26-.31,2.65-3.7,2-5.23.8a14,14,0,0,1-9.92.31c-2.77,2-3.62-1.49-6.22.72-13-1.12-30.29,1.93-42-1.14-1.37-.6-2.91,3.06-4.83-.06-2.18-.64-.69,3.1-5.3-.25-3.54,2.74-9.35,1.46-13.21.17-6.67,2.75-17,.58-24.56,1.14-6.61-.86-13.93,1.52-20.29-.8C286.69,234.86,289.58,230.2,288.5,226.7Z"/><path fill="#382d15" d="M282.49,247.58c-1.22-4.45,1.52-12.66,6.79-10.15,1.05,1.07,1.49,1,2.49,0,2.37-1.51,2.9,2.19,6.08-.41,6.25,1.17,20.77-2.25,24.66,1.79,1.79-2.47,3.39-2.45,4.91,0,1.54-2.57,3.82-2.18,5,0,1.27-3.18,6.91-1.58,9.45-1.14,1.74-1.05,2.47-.91,3.91.79,1.39-2.9,7.66-.95,9.64-.59,2-2.6,3.37,1.07,4.69.29,1.28-2.37,3.32-.09,4.44.32,3-3.25,7.46-.25,11.13-1.41,1.2-.31,1.69,1.56,2.35,1.12,1.94-1.79,4.48-1,6.88-1.13,3.14,1.56,8-1.92,10.81,1.11,1.46.49,2.74-2.8,4.67-.2,1.89.11,3-2.43,5,.43-.18-1.43,3.61-1.5,4.48-.22,1.52-.17,3.62-2.08,5-.55,1.57,3.61,4.28,10.06.26,12.93,4.22,2.43.08,5,.25,7.26-.31,2.66-3.7,2-5.22.81a14,14,0,0,1-9.93.31c-2.77,2-3.62-1.49-6.22.71-13-1.11-30.29,1.93-42-1.14-1.37-.6-2.91,3.06-4.83-.06-2.18-.64-.69,3.1-5.3-.24-3.54,2.74-9.35,1.46-13.21.16-6.67,2.75-17,.59-24.56,1.15-6.61-.86-13.93,1.51-20.29-.81C280.69,255.74,283.57,251.09,282.49,247.58Z"/><path fill="#382d15" d="M261.12,487.06c-.26-3.21.53-10.13-1.45-11.64-1.58-1.91,4-6.34-.06-12.79-.64-1.12-.53-1.48.06-2.29,2.89-4.45.08-8-.35-11.73,2.31-5.33,1.86-12.11,1.56-18.54-.91-6.27.67-9.79-1.37-16.24,1.94-5.12,1.72-11.91,1.31-18.89-1-8.44,1.17-14.48,0-23-.48-3.65-.21-6.29-.41-9.71-.74-16.13-17.93-19.12-29.2-17.48-6.73,1-13.44-.85-20.6-.16a9.83,9.83,0,0,1-1.92,0c-7.06-.85-13.71,1.13-20.47.05-5.45-.05-12.28-1.61-16.47,2.3-2.67-2.35-6.12-3.27-8.54-1.86-5.53,3.27-6.9-4.09-14.53,1.7-4-3.1-8.17-.4-12,3.08-7.45,8.17-6.15,20.76-5.89,31.76,1.57,9.76-3,21,1.93,29.25-2.87,4.72-2.84,8.95,0,13-3,4.07-2.52,10.09,0,13.14-3.34,2.92-2.39,18.52-1.24,23.28a2.66,2.66,0,0,1-.08,1.7c-1.21,4.62-1,6.53.92,10.36-1.58-.17-1.85,9.71-1.66,12.32-.05,4.1-.24,9.5,3.18,12,3.33,2.68,2.8,7.66,9.32,7.18,1.64.16,3.12-2.57,4.49-1,3.69,3.27,7.26.14,10.3-.41,6.17,3.53,14.24,1.63,21.12,1.39,2.91-.09,6.33,1.56,8.69-1.12,1.61-2.24,3.67-2.06,5.63-3.59,5.23-4.31,4.91-9.53,3.76-16.05-.47-1-.33-2-.06-3.5,1.17-6.46.89-4.47.19-10.93-.29-1.08-.58-1.71-.86-1.88-1.33-3.26,3.61-5.24.23-12.48-.74-4.72,3.39-5.58-.5-13.27.54.4,1.08-1.58,1.59-5.82,0-2.58-1.17-4.17-1.34-6s1.29-3.65,1.38-6.27c-1.32-7-1.84-4-.19-11,.15-5.11,5.87.74,7.81-3.21-1.63,3.31-.42,6.42,2,9.92-2.73,4.81-2.72,7.93,0,13.26-3.19,2.08-2.27,18.72-1.19,23a2.29,2.29,0,0,1,0,1.53,12,12,0,0,0,.89,10.82c-4.23,7.59-.18,6-1.65,15-1.33,7.31.89,15.52,6.72,19.14,7.83,6.25,17.91,1.33,26.56,2.89a35.82,35.82,0,0,0,9.65.07C255.26,502.56,261.59,495.49,261.12,487.06Z"/><path fill="#ea472c" fill-rule="evenodd" d="M272.19,293.88c.31-4.18-.13-8.35-.25-12.52s.09-8.39.06-12.58c0-3.44-1.1-6.59-1.23-9.94-.13-3.52,1.25-6.61-.38-10a1.74,1.74,0,0,1-.06-1.93c1.09-3-.14-5.89-.39-8.89-.23-2.8.38-5.58.34-8.39s-.59-5.46-.89-8.19c-.35-3.13-.16-6.32-.67-9.44-1.64-10-1.5-21.2-10.27-27.59-4.3-3.12-9.61-3.49-14.6-4.18-5.62-.79-11.2-1.69-16.86-2.1s-11.29-.79-17-1-11.63-.84-17.39.05l.06,1.73c-5.29.23-10.56.84-15.84,1.22-3.86.27-12.15-3.74-15.05-.48-2.76-.9-5.87-.64-7.78.77-1.76,1.65-4.17,1.27-6.26,1.92a12.13,12.13,0,0,0-5.64,4.12c-4.62-.38-8.34,3.53-11.27,6.85-3.6,4.08-4.64,7.11-6.89,12.23s-1.88,12.15-3.15,17.67c-1,4.45-2.88,13.68-.19,17.8a11.49,11.49,0,0,0-.12,10.86c-1.91,3.35-1.67,8.36-.06,10.93-2.63,4-1.69,9.42-1.52,14,.2,5.13-.74,10.66,1.17,15.54-1.41,2.9-1,6.23-1,9.38s-.52,6.72.68,9.84a2.6,2.6,0,0,1,.06,2.18c-1.19,4.08-.28,8.85-.21,13.05a51.35,51.35,0,0,0,.66,5.4,52.5,52.5,0,0,1-.16,7.42c-.1,4.54.88,9,1.6,13.41a29.17,29.17,0,0,0,1.08,5.43c.8,2.1,2.39,3.57,3.55,5.43,1.91,4.11,6.09,3.73,9.73,3.52,5.54-.32,11,.45,16.5.86,5.16.37,10.45.27,15.62.43,2.38.08,4.74-.44,7.12-.43,2.59,0,5.1.31,7.54-.91,3.16,1.22,6.21-.53,9.36-.7,1.62-.09,3.23.34,4.86.23s3-.75,4.54-.9c5.35-.52,14.57,2.92,19-1.46,3.58,1.87,6.57,1.67,10.16-.38,3.71,1.67,6.16,1.54,10.29-.65,2.45,1.65,5.53,1.28,8.28,1.24,3.29,0,6.63,0,9.78-1.17,3.51-1.89,7.82-.35,8.79-6,3.22-2.13,3-6.79,3.05-10.32.15-5.75.38-11.49.58-17.24C272.07,318,271,305.88,272.19,293.88Z"/><path fill="#efc41a" d="M229.47,135.14c-.16-1.56-2.63-1.87-2-3.15.63-.91-1.3-7.73-2.11-8.86a7.28,7.28,0,0,0-1.95-1,2.58,2.58,0,0,1-1.47-.59c-.85-3.65-4.82-5.08-8.26-4.75a18.83,18.83,0,0,1-5.56.32c-6,1-11.34,4.49-17.1,6a9.6,9.6,0,0,0-3,2.49c-7.61,6.67-16.26,9.47-16.95,20a1.62,1.62,0,0,0-.12.58c-.87,3.45-1,20.35,1.36,27.12-2,1.79-2.67,10.56-.6,12.16-.11.08-.12.58-.08,1.3a4,4,0,0,0-.11.47,12,12,0,0,0,0,5.29c.33,1.18.7,2.34,1.09,3.52h0c.06.18.11.36.17.53a9.78,9.78,0,0,0,3.09,4.4c1.12.82,2.16,1.7,3.28,2.54s7.17,1.32,8.54,1.7a3.87,3.87,0,0,0,3.64-.34,3.54,3.54,0,0,0,5.08-.72,3.61,3.61,0,0,0,2.94-.3,3.75,3.75,0,0,0,1.11-.93,3,3,0,0,0,.56-1.16,2.6,2.6,0,0,0,1.91-.58,17.32,17.32,0,0,0,2.7-3,9.06,9.06,0,0,0,.94-1.8,8,8,0,0,0,.46-2,1.35,1.35,0,0,1,.27-.7,7.07,7.07,0,0,0,.75-1.8,3.56,3.56,0,0,0,.06-.86h0v-.15c.7-1.94,1.44-4.47.46-6.43,0,0-1.24-3.7-1.14-3.78.88-1.88,2.28-4.47.69-5.75a3.08,3.08,0,0,0,1.55-2c1.09-9.13,12.47-8.18,16.85-13.54C232.43,152.18,232.24,142.15,229.47,135.14Z"/><path fill="#382d15" d="M240.19,131.49c-1.17-2.26-2.58-4.47-5.05-5.45-.11-.09-.32-.06-.44-.15h0a8.11,8.11,0,0,0-3.18-1.28c-2.49.3-4.37-3.17-6.67-.76.11-1.78-3.12-4.22-4.83-3.59.35-1.44-.62-2.43-1.92-2.9-2.61-1.49-7.44-1.25-9.55-2.9-1.24-.68-4.45-.95-4.79,1h0c-.93-1.83-2.37-2-3.12.07-1.21-2.15-2.8-1.54-3.08.48-.95-1.44-2-1.33-3.73-.59a3.25,3.25,0,0,0-1.9,1.49c-.08.21-.2.12-.4.15-1.4-.35-1.88,0-2,1.81-3.4-1.72-4.08,3.38-5.45,3.27a1.65,1.65,0,0,0-1.53.3,6.12,6.12,0,0,0-.08,2,3.07,3.07,0,0,0-2.05.24,5.3,5.3,0,0,0-.06,2.1,17,17,0,0,1-1.7.72c-1,1.63-2.12,3.6-3.18,5.39-1.9,3.23-6.74,6.27-5.18,10.68.07.62.64,3.79,1.22,4,1.23.25-1.13,2.92,2,2.89a1.88,1.88,0,0,0,.25,2.06,33.88,33.88,0,0,0,3.88,1.82,1.35,1.35,0,0,0,1.19-.46c.29-.24.57-.49.9-.32,2,1.85,5.47,0,5.79-2.27,1.95,1.43,3.12.77,2.83-1.6,2.2.88,3.05.15,2.44-2.28,1.71.86,2.7-.92,3.27-2.28a3,3,0,0,0,.34-2.34c0-.21,0-.31.07-.33,1.41-.38,1.4-1.32.42-2.55,3,0,1.8-3.82,3.94-4.46.4.13.57.07.51-.16h.1c3.41-1.59,8.39,2.46,11.4,3.51a7.1,7.1,0,0,0,2.46,1.37,3.69,3.69,0,0,0,2.13-.52,5.43,5.43,0,0,0,1.08,1.82,9.25,9.25,0,0,0,2-.74c1.14.37.88,3.11,2.53,1,.88-.85.55-.5,1.6.32a1.27,1.27,0,0,0,1.1.39,6.29,6.29,0,0,0,3.06-.58,9.52,9.52,0,0,1,3.29-1.24,3.19,3.19,0,0,0,.77-2.28c.44.15,1,.29,1.41.45a4.42,4.42,0,0,0,4.21-.62c1.56-1.45,3.8-2.65,4.09-5A2.92,2.92,0,0,0,240.19,131.49Z"/><path fill="#ea472c" d="M248.62,125.23a4.05,4.05,0,0,0-.8-1.47c-1.54-2.06-8.87-4.12-10-.86-.93-1.79-5.07-1.62-6-.11-.31-.8-.81-1.47-1.42-1.39a9.12,9.12,0,0,0-2.91.15,2.64,2.64,0,0,1-.48.14,22.17,22.17,0,0,0-.73-4.07c-.83-1.25-.45-2.26-2.47-2.21,1.44-2,.67-3.11-1.69-2.72.6-1.11.51-1.83,0-2.3a2.08,2.08,0,0,0-2.2,0,1.75,1.75,0,0,0,.09-1.79c-1.18-.93-2.55-2.88-4.35-2.29a.27.27,0,0,1-.35-.27c-.69-1.38-1.32-1.41-2.66-.41-.77-2.86-4.09-1.94-6.05-1.66-.71-1-1.34-1.13-1.88-.26a6.88,6.88,0,0,0-.89.9c-.66,0-.34-1.41-1.59-1.26a6.41,6.41,0,0,0-1.5,1.44,2.29,2.29,0,0,0-1.9-1c-5.07.62-9.9,3.42-14.61,5.23a8.36,8.36,0,0,0-1.79,1.58,1.08,1.08,0,0,0,0,.83c.05.41,0,.53-.38.26-1.44-.66-2.12-.26-2.14,1.3.09.73-2.67-.15-2.21,2.47a1.9,1.9,0,0,0-1.94.34c-.42.53-1.53,4.31-1.87,4.41-1.82.22-4.06,4.5-1.82,5.55l.11.09c-2.14.44-2.49,2-.55,3.2-2.15,1.09-1.53,2.84.53,3.49-2.42,2.08,2.29,5.58,4.36,4.9.21,0,.31,0,.43.05a1.69,1.69,0,0,0,1.47,1,2.21,2.21,0,0,0,1.43-1.12c.31.8.78,1.26,1.41,1.29a8.29,8.29,0,0,0,3.22-.18c1.18-.62,7.22-1.61,8.53-1.15,2.89-.35,7.31-2.14,10.17-1.45.28,0,4,.13,3.78-1.51-.1,1.36,3.42-.83,3.19-.84A3,3,0,0,0,212,134.5a2.9,2.9,0,0,0,1-1.26,21.74,21.74,0,0,0,2.23.77,11.45,11.45,0,0,0,2.66-.43,2.88,2.88,0,0,1,2.58-.31c1.1-2,1.21,0,2.76-.45a9.43,9.43,0,0,0,3-.57c2.21-1.28,11-2.55,13.45-1.95,2.48.24,5.86-1,8.3-1.33l-1.75-1.77h.07v0l1.8,1.91a3.49,3.49,0,0,0,.82-1.77A5.45,5.45,0,0,0,248.62,125.23Z"/><path fill="#efc41a" d="M386.47,176.69a4,4,0,0,0-.74-4.54c.69-1.3-.58-1.4-1.22-2-.06-1.1-.62-1.47-1.8-1.27.44-.57-1.42-1.47-2.11-1-.36,0-.62-.63-1.19-.73-1.64,1-4.23-1.26-5.56.79-.79-1.1-1.48-1.11-2.3-.06-.85-1-1.4-1-2.33,0,.21-1.18-6.13-.94-6.23-.11-2.3-1.67-6.42-.05-9.25-.62-3.54.32-8.18-.77-11.29.47-.15.26-.23.23-.37,0-.84-1.35-1.65.28-2.28,0-.61-1-1.51,0-2.06.13-.86-.83-2-.5-3.28-.59-8.78-.63-5,8-6.58,13.8s7.31,3.9,6.67,2.06c0-.09-.08,1.46.08,1.37,2.43-.45,5.67,1,7.43-.78,1.07,1.93,1.88-.38,2.87.62.47.46,1,.19,1.75-.56,1.66,1.59,5.09.42,7.41.69,1.76-.53,3.94,1,5.15-.74.83,1.1,1.57,1.09,2.28,0a1.24,1.24,0,0,0,2.31,0c-.1,1.23,6,1,6.22.15.64,1.28,3.57.42,4.48.27,1.83,1.29.91-1,3.09.37,1.59-1.15,3.08.7,5-1C384.56,181.83,387.47,179.44,386.47,176.69Z"/><path fill="#382d15" d="M375.82,189.9l0-2.19c-3.45-1.09-7.1,0-10.61-.16-6.51.52-13.6-.47-19.92.67a13.05,13.05,0,0,0-6.12,0c.36,2.62-.49,5.51,1.21,8,1.39,9.22,14.12,16.36,22.45,11.84a6,6,0,0,0,4.55-2.45,6.14,6.14,0,0,0,3.68-3.63C374.39,199.36,375.64,193.83,375.82,189.9Z"/><path fill="#382d15" d="M139.49,171A14.11,14.11,0,0,1,142,174.5v3.1a3,3,0,0,0-.43.12h-.32a14.66,14.66,0,0,1-4.12-.08,9.71,9.71,0,0,0-4.67,0,9.11,9.11,0,0,1-4.55,0,7.67,7.67,0,0,0-4.3,0,10,10,0,0,1-4.92,0,7.34,7.34,0,0,0-4,0,11,11,0,0,1-5.05,0,6.8,6.8,0,0,0-3.93,0,25.44,25.44,0,0,1-5.08.11c-1,0-1.66-1.23-2.27-1.28a6.18,6.18,0,0,0-2.19,1.27,6.21,6.21,0,0,0-4.19-.05,21,21,0,0,1-4.45.1c-1.16,0-1.93-.89-2.78-1.49-.47-.32-1.77,1.54-2.54,1.48a2.46,2.46,0,0,1-2-1.17c-.32-.52-.45-.62-.89-.05-1.31,1.72-2.83,1.72-4.17,0-.3-.48-.49-.56-.82,0-.54.9-.63,1.21-2.21,1.2s-3.07.3-4.6-.08a8.53,8.53,0,0,0-4.4,0,10.14,10.14,0,0,1-4.68,0,8.15,8.15,0,0,0-4.3,0,9.09,9.09,0,0,1-4.8,0,7.61,7.61,0,0,0-4.26,0,10.75,10.75,0,0,1-4.82,0,7.52,7.52,0,0,0-4.16,0c-1.62.44-4.13.08-5.07.08a1.59,1.59,0,0,1-.5-.07c1.55-10,7.08-20.28,18.68-13.72,2.59-2.9,5.58-3.77,9-1.39,5.38-1.22,18.11-3.54,20.51,1.83,4.45-4.3,7-4.31,11.06,0,3.89-4.29,7.19-4.28,10.95.25,3.63-5.39,14.29-4.05,20-1.6l.3.13c1.76.09,3-.94,4.45-1.48a6.74,6.74,0,0,1,1.25.92c.72-.22,1.62-.47,2.62-.71a8.26,8.26,0,0,1,1.12.6c2.19,2.12,6.32.15,9.29-.62a4.36,4.36,0,0,1,2.22,2.56c.38-.49.74-.93,1.08-1.31C141.64,169.12,140.49,171.19,139.49,171Z"/><path fill="#382d15" d="M113.43,342.15q-.62-7.11-1.35-14.21a28,28,0,0,1,3-.75c3.34-.67,6.8-1.92,10.12-2.83a51.75,51.75,0,0,0,9.76-3.93c.8-.44,1.63-.87,2.47-1.28l2.54-1.27c1.68-.83,3.4-1.67,5.05-2.45a50.88,50.88,0,0,0,8.88-5.31c3.07-2.32,6.21-4.53,9.39-6.66a45.85,45.85,0,0,0,7.73-6.57l7.73-8.2a32.56,32.56,0,0,0,5.48-7.72,47.63,47.63,0,0,0,4.1-9.8,14.82,14.82,0,0,1,1.49-4.12,26,26,0,0,1-1-4.26,24.07,24.07,0,0,1-.19-4.85,3.88,3.88,0,0,0-.26-1.33A64.51,64.51,0,0,1,186.2,248c-.29-1.54-.55-3.1-.79-4.72l-.34-2.45-.15-1.24-.08-.63c0-.19-.06-.47-.07-.5a5.67,5.67,0,0,1,.3-2.36,37.8,37.8,0,0,1-3.48-2.77,29,29,0,0,1-3.26-3.86,20.18,20.18,0,0,1-10.45-5.55c-2,.18-4.79-.8-8.12-2.33-.7-.32-1.22-.52-1.82-.78l-1.74-.73c-1.17-.49-2.4-.88-3.6-1.33a51.67,51.67,0,0,1-6.16-2.57c-1.64-.8-3.55-.17-6.09-.87s-3.79-1.65-5.55-1.88-3.34.15-5.74-.26a18.83,18.83,0,0,1-5.33-1.57,26.57,26.57,0,0,1-5.33.32,20.88,20.88,0,0,1-3.51-.6c.1-4.31.29-8.63.49-12.95a21,21,0,0,1,8.2.81,5.52,5.52,0,0,0,1.75.24,51.72,51.72,0,0,1,9.54.9c3.16.58,6.37,1.34,9.53,2.11a10.34,10.34,0,0,1,4.14,2.09,12.5,12.5,0,0,1,3,0,21.51,21.51,0,0,1,3.49.76,16.69,16.69,0,0,1,3.4,1.44,14.68,14.68,0,0,1,3,2.08,22.5,22.5,0,0,1,3.44.54,17.38,17.38,0,0,1,2.93,1,20.24,20.24,0,0,1,5.57,3.69c2.23,0,5.28,1.13,8.7,3.15,3.19,1.86,6.84,4,9.5,7.1a32.47,32.47,0,0,1,3.81,5.25,23.11,23.11,0,0,1,2.54,6.53q.57,3.13,1.15,6.24c.36,2,.72,4.08,1,6.18.45,3.34,1.12,6.73,1.81,10.24a38.3,38.3,0,0,1,.66,6.94c.05,1.23-.14,2.56-.22,3.84s-.4,2.51-.6,3.76a16.78,16.78,0,0,1-1.13,3.47,14.91,14.91,0,0,1-1.88,2.92c-.69,4.52-2.26,8-4.29,10a22.3,22.3,0,0,0-2.35,2.65,21.38,21.38,0,0,0-1.73,3.11,13.62,13.62,0,0,1-3,4,19.87,19.87,0,0,1-4.41,3.13c-.74,2.12-2.82,4.52-5.59,6.82A90.64,90.64,0,0,1,169,316c-3.09,1.95-6.1,4.05-9.08,6.2a85.65,85.65,0,0,1-11.26,6.49c-.43.22-.87.45-1.29.63a5.7,5.7,0,0,1-.89.54A99.56,99.56,0,0,1,136,334.9c-3.86,1.45-7.73,3-11.66,4.5A43.93,43.93,0,0,1,113.43,342.15Z"/><path fill="#efc41a" d="M335.86,274.14c-.26,2.38,0,2.82-1.51,4.92-1.07,2-5.68,6.67-7.45,5.25a5.64,5.64,0,0,1-7.79,2.39c-2.36,2.28-4.62,2.71-7.54,1.31l-.09-.05c-2.56,3-10.41,5.48-14.32,5.19-1.21-.21-2.18,1.28-3.7,1.5s-2.75-.57-3.81-.26-1.83,1.26-3.33,1.51c-2.51.11-3.72,0-3.56-.44-3.78,3.26-4.72.83-7.64,1.72-3.71,2.95-5.28,0-7.2,1.13-3.85,2.92-9.94,2-14.35,3.09-3.93,1.45-9,2.43-13.07,1.27-1.05-.28-1.75,1.22-3.7,1a27,27,0,0,0-6.42-.15c-3.86.07-8.14-.13-11.14-2.3-1.92,0-5.21,1.13-6.93-1.26-.38-.53-.63-.64-1.34-.4-4,1.41-4.87-1.95-7.32-2-2.81.08-11.66-3.7-12.32-5.88-2.6.29-3.67-.06-5.83-1.92-3.07-1.21-12.08-3.42-13.08-6.83a6,6,0,0,1-7.09-3.13c-2.94.75-5.24-.25-7-3.15-7.54,1-14.57-7.29-18.31-13.16-2-6.31-5.33-16.36.54-21.32-.65-3.52,1.34-5.59,3.94-7.18,1.17-2.63,3.05-5.38,6.53-4.83,3.71-7.26,20.35-5.33,26-1.28,6.09,3.62,12.52,7.28,18.54,11a22.42,22.42,0,0,0,5.59,3.33c4.47,1.7,7.21,5.1,11.7,6.91,3.42,1.36,6,3.7,8.8,5.28,2.71,1.11,7,2.3,9.83,3.08,2.9,1.38,3.6,2.07,6.32.94,5.45,1.41,12.63-.16,17.79,2,1.93-.46,4.46-2.53,6.86-.83,1.68.86,3.54-3,7.63-.65.48.33,4.21.93,4.67.44,4.26-2.85,27.36-2.5,30.88-.85l.69-.23c6-2,11.23-.38,17-1.42a40.51,40.51,0,0,1,7.16,1.09c2.91.88,4.81,2.58,4.65,6.47a13.49,13.49,0,0,1-.19,1.79,5.36,5.36,0,0,1,1.64,3.08A5.88,5.88,0,0,1,335.86,274.14Z"/><path fill="#4e73b8" d="M364.38,265a23.76,23.76,0,0,1-.46-2.52,3.62,3.62,0,0,0-1.44-2.29c-.73-.51-1.44-1.11-2.25-1.66a4.87,4.87,0,0,0-2.57-.68c-.25,0-.41,0-.42,0l0,1.48h0v-1.5l-.07,0a8.31,8.31,0,0,0-2.34,0,3.42,3.42,0,0,1-2,0,6.78,6.78,0,0,0-1.9,0,1.49,1.49,0,0,0-1.57.9c-.56-.87-1.29-1.21-1.8-.69s-.73.5-1.22,0-1.09-.21-1.84.62a1.33,1.33,0,0,0-1.13-.82c-.26,0-.65,0-1.08-.05-.21,0-.43,0-.65,0a1.73,1.73,0,0,0-.32,0c-.1,0-.23,0-.2,0-.11.19-.32.16-.19,0s.16-.13.12-.12a1.26,1.26,0,0,1-.21.05c-.26,0-.12-.18.12-.16l.07,0h0s0,0,0,0a3.57,3.57,0,0,0,.3-.38,5.71,5.71,0,0,1,.55-.77,1.87,1.87,0,0,0,.44-.82,1.29,1.29,0,0,0-.15-1.12c1.58-.28,1.91-1.76.71-2.61a1.49,1.49,0,0,0,.67-1.67,1.43,1.43,0,0,0-1.33-1c.24-.12.36-.54.13-1.28a6.68,6.68,0,0,0-1.64-1.63,2.73,2.73,0,0,0-2.19-.42c-.16.06-.25,0-.38-.1a1.4,1.4,0,0,0-2.27.54c0-.12-.12-.23-.36-.27a2.85,2.85,0,0,0-1.13.1,7,7,0,0,0-1.3.92c-.22.2-.34.33-.48.47l-.43.42a1,1,0,0,0-.27.8c0,.31,0,.36-.31.36-.94,0-1.33.49-1.2,1.42,0,.33,0,.37-.32.29a1.15,1.15,0,0,0-1.07.29c-.28.24-.13,1.33-.36,1.35a2.09,2.09,0,0,0-1.49.47,8,8,0,0,0-1.44,1.52,3.2,3.2,0,0,1-1.41,1.36c-.53.3-.05,1.12-.43,1.19a2.25,2.25,0,0,0-1.28.48l-.45.45c-5.32.68-10.22-.58-15.87,1.25-1,5.86-1.07,16.1,5.22,28.72,2.92,1.4,5.18,1,7.54-1.31a5.62,5.62,0,0,0,7.75-2.33l.09,0a1.49,1.49,0,0,0,1.24.17,2.15,2.15,0,0,0,1,.2h.39l.26,0,.62,0a4.8,4.8,0,0,0,1.33-.09,3.43,3.43,0,0,1,2,0,5.07,5.07,0,0,0,2.29,0,3.65,3.65,0,0,1,2,0,4.27,4.27,0,0,0,2.27,0,3.82,3.82,0,0,1,2,0,4.9,4.9,0,0,0,2.22,0,5.11,5.11,0,0,1,2.24-.1,4.62,4.62,0,0,0,1.17-.09c.38-.08.77-.16,1.16-.27.79-.19.8-.35.95-.83.08-.31.18-.29.39-.12a1.18,1.18,0,0,0,1.94-.75c.08-.34.16-.32.41-.17a1.25,1.25,0,0,0,1.17.06c.37-.17.48-1.29.75-1.27.51,0,1.1.19,1.56-.2.23-.18.56-.39.9-.62a4,4,0,0,0,.83-.86,4.34,4.34,0,0,1,1.52-1.52,4.79,4.79,0,0,1,.22-1.21c.18-.2.88-.14,1.17-.57.15-.2.4-.57.66-1a3.93,3.93,0,0,0,.62-1.29,4.89,4.89,0,0,1,.81-1.83,5.17,5.17,0,0,0,.56-1.13,5.83,5.83,0,0,0,.21-1.34c0-.22,0-.41,0-.58a4,4,0,0,1,.05-.51,4.82,4.82,0,0,1,.27-1,3.53,3.53,0,0,0,.26-1.23A3.83,3.83,0,0,0,364.38,265Z"/><path id="b50bf275-6105-4847-b8d0-4b56df8b47d1" fill="#4e73b8" d="M232.2,155a8.94,8.94,0,0,1-.13,1.22c.29,1-.44,4.22-.76,5.23a41.31,41.31,0,0,1-1.39,3.94,40.33,40.33,0,0,1-2.78,4.48c-.72,1-1.58-.15-1.38,1.63a1.76,1.76,0,0,0-.82.54,1.79,1.79,0,0,0-.57.82c-.75,1.44-1.83,1-3,1.44a5.44,5.44,0,0,1-.26,1c-.06.53-.36.61-.9.22.73-.56-1.67.91-1.17.84-.28.06-1.65.29-1.65.12,0,1.37-2,1.51-2.85,1.42-2.31-.74-5.78.48-7.89-1.29-1-1.06-2.56-.44-3.6-1.56-.94-1.34-4.34-1.23-3.66-3.67a1.38,1.38,0,0,1-1.27.21,1.07,1.07,0,0,1-.37-1.09c0-1.21-3.8-1.23-2.09-3.8-1.55.12-2-.6-1.07-2-1.65,0-2-.74-.76-2.11-2.25.29-3-7.65-1.58-8.42-1.68-1.2-.26-.67-.29-1.56v0c0-.22-.06-1.55-.1-1.55.08-.24.95-1.08.95-1.24,0-.57-.56-1.08-.56-1.66.07-.28.13-.63.2-.91l.41-.2c.82.45,1.63.84,1.63,1.48a1.37,1.37,0,0,0,.49,1.4,1.8,1.8,0,0,0,1.17,0,.29.29,0,0,1,.37.3c-.24,2.6,3.72,2.58,4.85,4.21,1.35,1.45,3.39.64,4.68,2,2.74,2.29,7.24.7,10.24,1.68,1.13.1,3-2.8,3.69-1.85-.16-.2,1.19,0,1.6-.06a2.1,2.1,0,0,1,2.06-1.18c.71.49,1.11.39,1.17-.3a6.1,6.1,0,0,0,.34-1.27c1.56-.6,3,0,3.93-1.87a2.48,2.48,0,0,1,.74-1.06,2.35,2.35,0,0,1,1.06-.7c-.15-1.38.19-1.41.69-1.49a2.47,2.47,0,0,0,.34.69,4.87,4.87,0,0,1,.32,1.08,7.78,7.78,0,0,0,.06,1.15v.14h-.06C232.76,152.62,232.27,153.8,232.2,155Z" data-name="Crescent_White"/><path fill="#382d15" d="M508.27,169.62c1.08,2.75,2.12,6.22,4.68,7.89a7.74,7.74,0,0,0,3.47,7.84,7.78,7.78,0,0,0,3.69,7.71c-.88,3.72,3,8.68,4.89,11.61,2.09,3.26,3.74,6.78,5.9,10s4.57,6.3,6.8,9.47c1.93,2.73,4.49,6.93,7.94,7.76,1.29,3.9,3.27,4.11,5.93,6.43s3,4.82,7.13,5c1.15,3.55,7.37,5.42,10.76,5.73,7.4-.16,11.51-6.13,11.88-13.06l-2.14-.24,2.09.26c1.85-11.31-2.91-22.31-6.5-32.7-2.55-7.36-6.77-14.76-10.65-21.46-2-3.38-3.31-7.05-5.25-10.44-.94-1.64-2.37-2.91-3.27-4.51-.63-1.11-.38-2.59-.92-3.79-3.09-4.51-3.91-10.24-7.1-14.71a11.58,11.58,0,0,1-2.18-3.89c-.73-2.34-1.7-3.37-2.79-5.43-.78-1.48-.62-3.22-1.38-4.87-.89-1.92-2.2-2.91-2.91-4.74a135.81,135.81,0,0,0-5.63-12.62c-4.58-9-8.9-18-13.75-26.87-2.51-4.58-4.69-9.6-7-14.31-2-4.07-3.3-11.27-7.48-13.72.23-3.65-2.68-7-4.05-10.25-1.14-2.69-3.22-7.52-5.68-9.24.56.25.8-1,.66-.94a3.07,3.07,0,0,1,.41.47c0-.57.77.09.37-.94l.52.47a2.8,2.8,0,0,0-.32-.73,4.51,4.51,0,0,0,.59.47c.09-.08-.56-1-.19-.56.94.75,2.78-2.68,1.31-2.9.78,0,1-.22.38-.32.34.15.23-.72.24-.72a2.79,2.79,0,0,0-.79,0c1-.41,1-.62-.09-.37,1-.5.92-.7-.18-.32.65-.37.74-.58.65-.66-.1-.31-.33-.36-.67-.13a1.41,1.41,0,0,1,.26-.5,2.41,2.41,0,0,0-.55.21,1.37,1.37,0,0,0,.26-.49l-.6.34.31-.61c.54,1.37-1.52-.53-.34-.23-.72-.19-.39,1-.3,0-.12-.56-.42-.08-.71-.52-.43-.07-.43-.23-.67.32.26-.6-.62-1-.92,0a3.63,3.63,0,0,1-.21-.66c.1.32,0,.52-.17.58-.14-.69-.25-.73-.32-.1a.37.37,0,0,1-.25-.35l-.42.1a1.67,1.67,0,0,0,.06.72c-.34-.72-.41-.75-.39-.25,0,.1,0,.17,0,.07-.39-.58-.46-.16-.58-.06a2.23,2.23,0,0,0,.24.76c-.54-.92-.84-1-.3.12-.7-.92-.85-.86-.28.16-.69-.91-1.11-.32-1.77.41a5.42,5.42,0,0,0-.72-.4,4.07,4.07,0,0,0,.22-2.76,3.22,3.22,0,0,1,.62,0c-.44-.47.71-.63-.37-1.1.17.07,1.37.19.22-.32-.57-.05.61-.09.61-.09a4.16,4.16,0,0,0-.7-.35c.47,1.2,1.13-2.6.9-2.43.2-.1.19-.25,0-.45-.77-.54,1.13-.89-.77-.95,2-.46.11-.38.28-.45.6-.35.14-.51.11-.73s-.42-.06-.78,0c1-.51,1-.67-.13-.47,1-.55.9-.75-.22-.42.53-.3,1-1.42-.1-1a1.41,1.41,0,0,1,.26-.5l-.58.11a1.8,1.8,0,0,0,.24-.55l-.64.25.27-.64c.92,1.58-2-.94-.48-.38-.6-.22-.58,1-.48,0-.17-.43-.94-.37-1.29-.52-.41.16-1-.15-.94.65-.06-.5-2.25-.12-1.3,1l-.73-.12c-.21,2.37,1.22-1.18-.28.48a1.1,1.1,0,0,1-.3.95c0,.11.27.23.61.38-.83-.07-.92,0-.47.25.06,0,.08.07,0,0-.66,0-.33.31-.37.49s.36.2.68.3c-1-.16-1.25,0-.13.4-1.15-.18-1.16-.06-.08.37-.73-.12-.88.06-.88.06l0,.35c.81.73-1.37,1,.3,1.76h-.83c-.15,0,1.19.45.11.35-.07,0-.12,0-.22,0s-.08-.2.05-.3c.72-.28-.84-1.35-.87-1.37a2.74,2.74,0,0,0,.48-.36c-.5,0,.16-.95-1-.75.28-.11,1.12-.72,0-.45-.11-.22.05-.37.46-.46l-.62.06c1-.37-.63-2.21-.82-2.69a.27.27,0,0,0-.28-.28c-.85-.19.1-1.45-1.27-.47.46-.58.51-.88,0-.55.18-.42-.3-.59-.51-.72s-.35.26-.57.57c.36-1.11.13-1.25-.45-.28.26-1.07,0-1.19-.49-.09.11-.73,0-1-.2-1a4.31,4.31,0,0,1-.61-.1l-.38.49a2.55,2.55,0,0,1-.41-.46,5.24,5.24,0,0,1-.2.64,1.21,1.21,0,0,0-.49-.37v.73l-.6-.41c.2.35.18.55-.06.61-.72-.41-.17.24-.68.44s-.69.44-.35.87c0,.16-.13.23-.3.24-.13.58-.22.63.35.88-.43-.18-.8,1.17.26,1.26a2.75,2.75,0,0,1-.67.32c.78,2,.68-1.72.07.47.46-1.66.6,1.68.11.43l.08.48c0,.1.37.08.7.06-.72.34-.8.43-.28.45.05,0,.12,0,0,.05-1,.67.29.73.66.66-1,.38-1.06.64.1.41-1,.45-1,.62.16.39-1.38.67,0,.69-.38,1.23a.12.12,0,0,0-.06.14.26.26,0,0,0,.22.25,2.19,2.19,0,0,1,.2.66c-.47-.2-.28,0-.73.18a2.48,2.48,0,0,1,.24-.55c-.26.15-.37-.24-.56-.41a1.85,1.85,0,0,0-.56.45c.07-.06.53-1.48-.25-.36-.35.39.27-.5.05-.62a3.08,3.08,0,0,0-.55.59c1.43.13-2.78-1.89-2.35-1.3-.1-.2-.25-.2-.46,0-.49.55-1.35-.67-.95.89-.39-.7-.67-.82-.53-.19,0,.09,0,.06-.05,0-.8-.73-.76.47-.46.86-.86-.75-1.07-.55-.34.3-1-.59-1.16-.34-.23.43-.67-.38-1.61.07-.72.62a1.39,1.39,0,0,1-.53.1l.49.37-.56.17a1.3,1.3,0,0,0,.61.27l-.67.13c.41,0,.56.1.44.3-.63.13-.62.3.14.34.17,0,.19,0,0,.07l-.35.14c-.29.33.19,1.5.68,1.44-.54.07-.43,1.41.62,1-.16.19-.31.38-.45.58a1.67,1.67,0,0,0,.75-.28,3.23,3.23,0,0,0-.47.63c-.45-2.89,1.07,2.23.32.32.39.46.45.36.9,0-.41.67-.42.79,0,.5.33-.13,0,1.18,1,.07-.51.88-.39,1.17.31.22-.45,1-.31,1.08.35.15-.38.85-.13,1,.57,1.31l-.05,0c-.12,0-.08.37-.13.67l-.26-.64c.12.31.08.5-.12.56l-.23-.55c-.76.19.73,1.38-.39.11l-.35.14c-.33.75-3.33,1.13-1.8,2.35-.71-.35-1-.3-.49.08.07,0,0,0-.05,0-.65-.09-.45.29-.49.48s.31.21.65.36c-1.08-.14-1.12,0-.08.38-1.09,0-1.13.16,0,.38-.74,0-.92.13-.88.23v.28c-.29-.75,1.16,1,.08.49l.59,0a1.7,1.7,0,0,0-.46.29l.67,0c-.77.35-.76.52,0,.35.15-.06.07,0,0,.07-1,.62.28.22.26.24a.73.73,0,0,0-.26.21c-.09.3.24.61.31.79l.27.24a.75.75,0,0,0,.54-.21c-.52.43,0,1.34.76.49-.14.16-.59,1.36.17.28.08-.1-.52,1.27.23.31-.09.07.19,1,.76,0-.15.8-.11.89.17.44,0-.06.08-.08.05,0,0,.67.32.39.49.38s.13-.39.23-.71c-.12,1,.08,1.22.3,0,0,1.19.18,1.18.36,0,0,1.92.75,0,1.36.72,0,.05,0,.1.08.08,1.35,3.45-.78,6,2.18,9.2a10.07,10.07,0,0,0,.27,4.3c.41,1.24,2.2,2.74,1.94,4.1a9.3,9.3,0,0,0,1.19,5.27c1.17,2.2,1.06,2.05,1.38,4.75a32.85,32.85,0,0,0,1.91,7c.6,1.7,2.63,4.43,2.36,6.27-.17,5.21,3.72,9.87,4.93,14.6,1.38,5.43,2.44,11.27,4.56,16.63.7,1.76,2.05,3.23,2.61,5s-.07,3.67,1,5.54c1.25,2.12,1.15,2.29,1.49,4.72.24,1.72,2.68,4.42,2.35,5.95-.34,3.68,2.44,11.59,5.31,14-.33,2.8,0,4,1.77,6.58,1.2,1.21,1.37,5.22,2.08,6.91Z"/><path fill="#382d15" d="M746.52,485.17a4,4,0,0,0,1.42-.1c4-.25,6.55-5.35,6.64-9,0-.24,0-.69,0-.69-.11-2.87-2.23-7.17-3.75-9.59s-4.64-9.38-7.78-9.15c.12-3.08-8.76-8.73-11.22-6-1.53-1.61-3.27-1.9-4.8-.13-1.81-1.5-3.4-1.23-4.59.81-2.15-2.33-7.43,1-9.48,1.72-.39.14-1.23,0-1.7.15s-.67.86-1.2,1c-1.58.45-3.26-.65-4.19,1.52-2.49-1-2.27.63-4.11,1.19-1.59.48-2.6-.91-3.74,1.19-.27.37-.37.41-.72.19a1.39,1.39,0,0,0-.82-.27,18.56,18.56,0,0,0-5.22,1.53c-1.08.46-2.63.73-3.59,1.18-2.28.79-4.25,2.2-6.32,3-1.28.48-3.54.71-5.08,1.15-2.15.61-4.38,2.22-6.2,2.71-.72.2-1.34-.61-2.22-.35-.69.2-1.37,1.42-1.75,1.49-.14,0-2.24-.25-1.89-.37-.85.3-1.69,1.17-2.39,1.36-2.57.69-6.83.16-8.22,3.41a2.91,2.91,0,0,0-3.59,1.3c-.43.89-3.46,1.7-4.42,2.55-1.3,1.15-2.37,2.14-2.06,4a2.79,2.79,0,0,0-2.48,4.16c-2.18.81-2.73,2.79-1.13,4.65-2.16,1.29-1,4.39-.36,6.23,1.48,2.71,4.43,5.67,7.46,6.45,2.6.66,10.67,1.68,12-1.64,2.63,1.33,2.52-.32,4.62-.73s3.13.83,4.29-1.85c1.89,1.53,4.83-.35,6.65-1.19,2.46-1.13,5-1.87,7.54-2.95,0-.06.13-.1.18-.12a13.5,13.5,0,0,0,4.3-1.65c2.57-1.61,6-2.44,8.84-3.64,3-1.29,6.26-2.4,9.33-3.51s5.78-2.24,8.74-3.26c2.27-.78,5-3.49,7.29-2.73,2.64-1.76,6.38-1.17,9.24-2.58.2-.07.51.16.8.5,1.19,1.83,2.38-.25,3.2.35.38.28.36,1,.63,1.35.79,1.44,2,.37,3,1,.38.26.8,1.83,1.22,2.32,1.54,1.81,4.11,2.59,6.35,3l1.32.1Z"/><path fill="#382d15" d="M677.36,397.89a4,4,0,0,0,.37-1.37c1.08-3.87-2.91-7.94-6.29-9.21-.21-.11-.64-.27-.64-.27-2.75-.84-7.51-.23-10.28.41s-10.39,1.31-11.2,4.36c-2.13-.84-4.31,1.37-5.94,2.44s-4.58,4.06-3.43,6.18c-2,.9-2.88,2.45-1.69,4.5-2,1.22-2.28,2.8-.74,4.6-3.1,1.35-1.3,6.83-1.24,9.15a3.58,3.58,0,0,0-.77,1.59c.27.74.52,1.48.74,2.23,0,1.62-1.81,2.48,0,4.12-1.72,1.93-.2,2.09-.3,4.07-.07,1.67-1.65,2.34,0,4.14.27.37.27.47,0,.74a1.36,1.36,0,0,0-.53.68,21.14,21.14,0,0,0-.13,5.94c0,1-.29,2.38-.19,3.27,0,2.42.68,4.73.74,7,.05,1.77-.61,4.41-.75,6.42s.65,4,.6,5.74c0,.49-.92,1.08-1,1.74,0,1,1,1.59,1,2.34,0,.51-1.1,1-1.12,1.47,0,1,.55,1.87.5,2.7-.14,2.68-2.12,6.48.53,8.89a2.91,2.91,0,0,0,.05,3.81c.71.7.48,3.83,1,5,.66,1.6,1.25,2.93,3.06,3.23a2.82,2.82,0,0,0,3.12,3.71c0,2.33,1.74,3.49,4,2.59.51,2.44,3.81,2.39,5.77,2.38,3.05-.51,6.81-2.33,8.54-4.94,1.48-2.24,5.08-9.53,2.36-11.83,2.32-2.23.39-2.39.76-4.61s1.87-2.68-.29-4.65c2-1.27,1.21-4.77,1.06-6.67-.21-2.7-.12-5.38-.32-8.1a.31.31,0,0,1,0-.21,13.69,13.69,0,0,0-.16-4.6c-.67-2.9-.33-6.53-.54-9.54s-.31-6.56-.26-9.66c.06-3.49-.19-6.87-.19-10.36,0-2.25-1.63-5.2-.22-7.06-.8-3.06,1-6.39.58-9.58,0-.21.32-.42.74-.58,2.12-.53.54-2.34,1.37-2.91.4-.27,1.06,0,1.49-.16,1.61-.27,1-1.77,2-2.46.37-.27,2-.16,2.6-.39,2.2-.86,3.78-3,4.86-5l.53-1.22Z"/><path fill="#382d15" d="M546,546.26c-1.09,3.91,2.77,8,6.24,9.26.21.1.63.26.63.26,2.76.84,7.51.23,10.29-.4s10.44-1.31,11.25-4.36c2.13.83,4.31-1.37,5.94-2.44s4.58-4.06,3.43-6.19c2-.9,2.88-2.45,1.69-4.49,2-1.22,2.28-2.81.74-4.61,3.1-1.34,1.3-6.82,1.24-9.15a3.48,3.48,0,0,0,.77-1.59c-.27-.73-.52-1.47-.74-2.22,0-1.63,1.81-2.49,0-4.13,1.75-2,.2-2.06.29-4.07.08-1.66,1.66-2.34,0-4.13-.27-.37-.27-.48.05-.74a1.34,1.34,0,0,0,.53-.69,21.07,21.07,0,0,0,.13-5.93c0-1,.29-2.39.19-3.28,0-2.42-.68-4.73-.74-6.94-.05-1.77.61-4.41.75-6.42s-.63-4-.57-5.74c0-.5.89-1.09.93-1.74,0-1-1-1.59-1-2.34,0-.51,1.1-1,1.12-1.47,0-1-.54-1.86-.49-2.71.15-2.81,2-6.3-.54-8.88a2.91,2.91,0,0,0,0-3.81c-.71-.7-.48-3.83-1-5-.66-1.6-1.25-2.94-3.06-3.24,1-1.95-1.11-4.09-3.07-3.7,0-2.33-1.74-3.49-4-2.59-.5-2.44-3.81-2.4-5.76-2.39-3.47,1.16-6.84,2.21-8.8,5.54-1.33,2.27-4.73,9-2.05,11.24-2.32,2.23-.39,2.39-.76,4.6s-1.87,2.69.28,4.66c-2,1.26-1.2,4.77-1.06,6.67.21,2.7.13,5.37.32,8.09a.33.33,0,0,1,.05.21,13.75,13.75,0,0,0,.16,4.61c.67,2.89.33,6.52.55,9.54s.31,6.55.26,9.66c-.06,3.48.18,6.87.18,10.35,0,2.25,1.64,5.21.23,7.06.8,3.07-1,6.4-.58,9.58,0,.21-.32.42-.74.58-2.12.53-.54,2.34-1.38,2.91-.39.27-1,0-1.48.16a2.53,2.53,0,0,0-.79.32c-.69.55-.57,1.71-1.16,2.14s-2.4.39-3.21.8a10.32,10.32,0,0,0-4.26,4.63,14.11,14.11,0,0,0-1,2.54Z"/><path fill="#ea472c" d="M709.38,375.88a11.19,11.19,0,0,0,.15-2.84.48.48,0,0,0,.12-.21c.79-2.5-2.82-11.29-2.71-13.88a57.37,57.37,0,0,0-.35-7.86c-.23-2.59.35-4.51.59-7.1.29-3,.2-6.17.21-9.17,0-2.43-1.06-4.7-1.1-7,0-1.59.93-2.7,1.19-4.23.43-2.52-.33-5.35-.17-7.93.33-5.12,1.22-10.55.26-15.65-.42-2.28-1.21-3.41-.81-5.58.47-2.56,1.48-4.18.8-6.91s-1-2.92-.15-5.64a10.34,10.34,0,0,0-.29-7.56,2.1,2.1,0,0,1,.06-2.33c1.45-2.82.85-7,.87-10,0-3.54.47-7.3-1.46-10.49,2.36-4.62.88-9.48,1.45-14.42s1.27-12.85-1.81-17a9.45,9.45,0,0,0-.36-11.82A9,9,0,0,0,703,196.65c1.51-4.53-3.18-9.63-6.43-12.28-4.36-3.55-11.13-5.12-16.69-5.69-6.4-.66-12.41,1.46-18.73,2-5.15.41-13.88.34-17.67,4.36a14.67,14.67,0,0,0-6.63-.75c-2,.36-3.38,1.86-5.33,2.19-4.72.78-7.48-1.08-11.63,2.7-5.18-3-14.76.88-20,2.18-6.44,1.57-13,2-19.47,3.81-8.2.76-17.82,5.12-25,8.83-7.63,3.91-16.28,12.16-20,19.79a88.83,88.83,0,0,0-5.75,14.49c-1.37,5-1,10.24-1.59,15.38-.51,4.74-1.3,10.4-.17,15.12.44,1.8,1.12,2.85,1.06,4.72-.06,1.41-1.08,2.61-1,4.16,1.56,7.6-1.56,15.48.23,23.09.85,3.57.29,3.85-.41,7.3-.5,2.48,2.11,6.77,1.08,8.49h0a9.86,9.86,0,0,0-.65,8.17c1.05,3.25.65,2.7,0,5.94-1.17,5.49-4.34,13.21-3.93,18.7.63,8.34-3,22-.54,30.85-.06,3.26,3.21,9.83,3.84,11.33,1.4,3.32,4.23,9.75,8.6,9.92.44,4,3,3.65,5.52,5.54s2.66,4,6.72,4.15c1.63,5,13.24,8.15,17.79,9.89,3.39,1.3,7,1.86,10.49,3,2.94,1,8.58,3.22,11.46,1.21,2.1,2.07,5,2.77,7.62,1.2a6.1,6.1,0,0,0,7.77.79c-.07.42,2.58-6.29,4.36-5.76,3.86.3,5.69,7.14,9.46,7.13,3,0,4.45,1,7.17-.72-.17.37,1,.75,3.5.93,2.47-.15,5.41-.05,7.81-.66,1-.26,2.1-1.12,3-1.26s2.28.57,3.44.44c1.7-.19,2.48-1.55,3.94-1.89,1.13-.27,2.52.79,3.92.46,1.14-.27,1.87-1.39,2.93-1.67,1.62-.44,3.52,0,5.28-.25a27.77,27.77,0,0,0,4.92-1.35c3-1.11,6.22-2.31,9.1-3.59,2.26-1,4.8-1.75,7.23-2.89,3-1.42,5.36-3.39,8.12-5,3.57-2.08,6.69-3.8,9.44-7,.36-.59.5-1,.43-1.19.2-1.16,3.68-2.42,4.51-3.78.47-.8.47-1.74,1-2.47.78-1.05,2.12-1.46,2.85-2.68a7,7,0,0,0,.57-3.53c1.29,1.92,2.39-6.8,2.38-6.76.24-1.33,1.35-2.36,1.38-3.74S709,377.16,709.38,375.88Z"/><path fill="#382d15" d="M580,238.35a8.15,8.15,0,0,0-1.06,2.12,4.27,4.27,0,0,0,.85,2.75,1.22,1.22,0,0,1,.11.74c-.17,2.5.8,4.57,1.95,6.72.36.5.7,1,1,1.54a3.73,3.73,0,0,0,1.48,1.32,4.59,4.59,0,0,0,1.22.16,4.44,4.44,0,0,0,5,4c1.22,2.59,3.44,3.38,5.93,2.17,1.14,2.49,5.56,2.07,7.77,1.74,1.59-.24,2.46-1.12,3.93-1.53,1.11-.31,2.22,0,3.33-.42,1.12-.63,2.23-1.67,3.25-2.34,1.59-1,3.13-.75,3.68-3.22,3.11-.61,2.74-2.4,4.45-4.33.83-.94,1.9-1,2.53-2.25.4-.81-.14-2.67.85-3,4.36-.62,2.35-9.17,4.29-11.11,2.32-3,.44-7.29.47-10.42,0-1.69.54-2.86.45-4.68a60.11,60.11,0,0,0-.46-6,25.93,25.93,0,0,0-1.61-5c-.55-1.57-.14-2.52-.6-4.21-.38-1.39-1.51-2-1.8-3.23-.42-1.88.62-2.78-1.16-4.49a.93.93,0,0,1-.32-1.17c.61-2.44-1.38-8.47-3.38-9.95.74-2,.68-2.8-.43-4.7-.53-.54-.05-4-.1-4.93-.12-2,.18-4.68-1.33-6.19a4.55,4.55,0,0,0,1-5.82,4.54,4.54,0,0,0,1.85-5.55c2.69-1,3.49-6.09,3.49-8.58-.21-1.9.35-3.75.53-5.63a24.66,24.66,0,0,0-.72-7.36c-.6-3.18-1.07-10.19-5.1-11.08,0-3.37-1.72-3.47-3.86-5.13a2.6,2.6,0,0,1-.48-.64,7.33,7.33,0,0,0-1.22-1.8,4.7,4.7,0,0,0-3.91-.63c-2.33-6-16.45-2.12-20.27-.64a2.85,2.85,0,0,0-.63.27l-.53.15c-5.2,2.32-8.68,8.59-8.12,14.3,1,10,7,15.76,13.3,22.75,1,.8,1.74,2.44,2.38,3.48,1,1.58,3,3.44,3.65,5a16.82,16.82,0,0,1,.06,2.76c1.33,2.3,1.16,5.24,1.41,7.82.17,1.81,1.43,4.4.44,5.88-1.52,1.71.12,3.19-.23,4.78-.2.92-1.55,1.58-1.84,2.62s.37,2,.15,2.85c-.36,1.34-2.16,3.12-2.87,4.66a57,57,0,0,1-3.68,7.53c-5.53,8.45-11.26,16.68-14.28,26.35-.61,3.21-3.54,8.59-.8,11.53Z"/><path fill="#4e73b8" d="M632,154.63a2,2,0,0,1-.21.32l-.75-.69,1,.37ZM537.6,551a6.63,6.63,0,0,0,.53,3.38c2.11,3.39,3.37,6.06,7.17,8,1.79.93,7.66,3.18,9,.84.79,1.17,1.8,1.43,2.7.37.05-.08,2.6.11,2.75.06,1.36-.28,2.77-.61,2.91-2.17,1.74,1.16,2.54.84,2.91-1.12,1.69,1.06,2.59.64,2.75-1.42,1.91,2.08,4.39-1.74,5.41-2.56.36-.28,1.28-.36,1.7-.64a11.64,11.64,0,0,1,.51-1.14,4.59,4.59,0,0,0,1.64-.27.36.36,0,0,0,.21-.21c0,.92,1.34,3.23.8,3.86a1.29,1.29,0,0,0-.11,1.17c.42,1.55,1.77,3.41,3.6,3.38,1.66,0,1.83-1.55,3.28-1.37a1,1,0,0,0,1.11-.27c1.48-2.28,4.56-4.28,2.91-7.35,0-.15,1.32-1,1.32-1.43.21-1.15-.87-1-.93-1.74l1.09-1a.93.93,0,0,0-.15-1.23,6.87,6.87,0,0,1-.44-.74,3.23,3.23,0,0,0,.86-1.23c.05-1.5.56-3.4-.85-4.39,1.33-.92.84-2.18.89-3.52,0-1.66,1.09-3.75-.89-4.73,1.53-.69,1.85-2.07.05-3,1.7-1,1.75-2,0-3,3.3-1.23.27-9.12-1.64-10.55-1.53-1.14-6.77-3.48-8.15-.93-1.77-2.26-1.45-.31-3.1-.22s-1.66-1.89-3,.54c-.91-2.39-8.11-2.1-10.11-1.64l-.37.16.42,2.06-.42-2.06h-.32a6.16,6.16,0,0,0-2.43.9,3.45,3.45,0,0,1-.37.26c-3.59,3.58-3.67,6.1-3.86,10.9.21,1.67.57,6.25-1.27,7.36a21.43,21.43,0,0,0-1.75,1.43,8.66,8.66,0,0,0-.58,1.32c-.46-.12-.91-.23-1.38-.32h0c-.41.5-6.79,2.93-6.83,2.91a1.29,1.29,0,0,0-1.16-.1c-.78.47-.68,1.43-1.11,1.81-.61.53-2-.65-2.33.94-.17.52.05,1.05-.17,1.4-.4.65-1.26-.29-1.68,1-1,2.16-.77,4-1.11,6.3Z"/><path fill="#4e73b8" d="M752.32,493a8.14,8.14,0,0,1,3.25-.79c3.69-.72,6-5.05,7-8.2.75-2.36,2.72-11-1.09-11.72.84-1.13.76-2.17-.54-2.67-.09,0-.75-2.49-.85-2.62-.7-1.19-1.48-2.42-3-2,.53-2,0-2.68-2-2.38.44-2-.25-2.66-2.26-2.14,1.35-2.48-3.07-3.57-4.18-4.27-.39-.25-.76-1.09-1.17-1.4-.41,0-.83-.05-1.24-.11a4.6,4.6,0,0,0-.79-1.46.39.39,0,0,0-.27-.13c.88-.26,2.62-2.32,3.39-2a1.32,1.32,0,0,0,1.14-.29c1.44-1,2.74-3.1,1.87-4.87-.56-1.14-2-1-2.22-2.28a1.06,1.06,0,0,0-.62-1c-2.64-.65-5.58-2.86-7.9-.34-.13.1-1.38-.92-1.78-.78-1.16.18-.62,1.14-1.34,1.45l-1.3-.7a.92.92,0,0,0-1.11.53,5.07,5.07,0,0,1-.55.66,3.23,3.23,0,0,0-1.44-.4c-1.5.46-3.31.57-3.87,2.24-1.31-1-2.34-.09-3.63.31-1.58.5-3.89.2-4.17,2.39-1.16-1.23-2.56-1.08-2.87.94-1.5-1.28-2.42-1-2.85,1-2.24-2.7-8.71,2.74-9.43,5-.59,1.82-1.08,7.54,1.78,8-1.56,2.42.18,1.47.82,3s-1.25,2.19,1.48,2.64c-1.93,1.61.68,8.36,1.75,10.08a1,1,0,0,0,.23.32l1.81-1.08L712.58,479l.1.3a6.15,6.15,0,0,0,1.65,2,3.29,3.29,0,0,1,.37.27c4.55,2.22,7,1.47,11.56.08,1.51-.74,5.72-2.59,7.37-1.21a19.74,19.74,0,0,0,1.92,1.18,8.75,8.75,0,0,0,1.44.12q0,.71.15,1.41l0,0c.6.22,5,5.45,5,5.49a1.32,1.32,0,0,0,.28,1.14c.7.58,1.58.17,2.08.46.7.4,0,2.11,1.65,1.89.55,0,1-.39,1.38-.3.75.17.14,1.28,1.48,1.27a6.39,6.39,0,0,0,3.31-.14Z"/><path fill="#efc41a" d="M682,285.62c-.92-1.1-.07-2.38-.06-3.62a2.23,2.23,0,0,0-1.26-2s1.41-1,1.37-1.25c-.2-.83-1.43-.72-1.54-1.18,0-.16,1.34-.59,1.42-1.17s-1-1-1-1.22c.47-1.71,2.32-3.47-.37-4.57,1.58-.8,1.75-1.15.75-2-.9-1.2,2.19-3.73-1.13-4.75,2.07-.64,2.45-1.77,0-2.48,2.28-.93,2.28-1.71,0-2.47a2.68,2.68,0,0,0,1.48-3.76,1.9,1.9,0,0,1-.06-1.9c.82-2,.12-7.53-1.68-8a2.56,2.56,0,0,0,1.6-1.45,5,5,0,0,0-1.27-1.1,1.13,1.13,0,0,0,.19-.19c-1.71-.83-4-2.06-4.85-2.37a31.15,31.15,0,0,1,.09,5.54c-.67,1.65.93,3,.16,4.39a5.57,5.57,0,0,0,0,2.47,4,4,0,0,0,1.16,1.07,7.16,7.16,0,0,0-1.11,1.15v.06c1.46,1.59-1.08,3.62,1.42,5.46,0,0-1.32,1-1.32,1.26.24,1,1.32.58,1.51,1.18,0,.08-1.33.67-1.38,1.32-.07,1,1.36.59,1.42,1.17.08.84-2.46,1.06-1.34,3.56.84,1.42-.6,2.84.11,4.42.89,1.51-.85,2.81,0,4.44.8,1.23.14,3.73-.08,5.92-.2,1.88-.1,3.54,1.46,4.07-1.53.63-2,1.27-.74,2,.15.06,0,.21-.06.29a2.64,2.64,0,0,0,1,4.39c-2.21,1.05-2.21,1.63,0,2.55-2.23.85-2.23,1.56.1,2.47-1.94.38-1.55,1.08-1.74,3.2,0,.72.79,1.16.91,1.59s-1.09.45-1,1c.05.23,1.21,1,1.11,1.2-.6,1.34-1.88,1.21.16,2.28-.82,0-1.26.44-1.28,1.35a3.94,3.94,0,0,1,1.11,1c-.18.54-1.14.27-1.07,1.16.05.61,1.37.94,1.34,1.23l-1,.54c-.93,1.78,0,3.14,0,4.33-.05,1.91-1.12,2.77.53,4.25.15.13-1.22.8-1.06,1.14,1.38,1.84-1.51,3.66,1.16,5.59-.08,0-1.38,1-1.38,1.21.11.86,1.4.81,1.44,1.25,0,.24-1.32.48-1.45,1.09s1,1.08.93,1.35c-.6,1.61-2.46,3.25.15,4.6-1.6.63-1.75,1-.79,1.9.79,1.07-2.34,3.5.83,4.83-2.11.43-2.53,1.49-.15,2.48-2.32.62-2.38,1.4-.11,2.47-3.56.68-.33,3.42-1.85,5.45-1,1.72-.69,7.48,1,8.15a2.38,2.38,0,0,0-1.71,1.18,6.66,6.66,0,0,0,1.16,1.32,4.26,4.26,0,0,0-1.26,1.07,2.41,2.41,0,0,0,1.71,1.45c-1.06.16-1.44.51-1.59,1.07a11.15,11.15,0,0,0,2.5-.12,13.59,13.59,0,0,0,2.9-.74,4.6,4.6,0,0,1,.16-.85c1-2-.66-7,.53-8.77,1.08-2.27-.9-2.57-.9-3.67,0,.21,1.18-1,1.21-1-1.31-1.73,1.32-3.55-1-5.73-.32-.21,1.43-.56,1.38-1.13,0-1.16-1.21-.67-1.42-1.31,0-.14,1.42-.51,1.43-1.22s-.88-.74-1.22-1.06c.39-.06,1.46-3.17,1.48-3.17a25.38,25.38,0,0,0,0-5c-.82-1.38.46-6,.52-7.75.07-2.31.51-6-1.37-6.84,1.53-.57,2-1.19.79-2.05-.16-.13-.05-.22.06-.29a2.67,2.67,0,0,0-.85-4.46c2.22-1,2.22-1.56,0-2.55,2.23-.79,2.23-1.56-.1-2.48,1.94-.38,1.56-1.05,1.76-3.19,0-.71-.81-1.16-.92-1.59s1.08-.44,1-1c0-.2-1.21-1-1.11-1.19.61-1.36,1.88-1.24-.16-2.3.82,0,1.25-.49,1.28-1.38a3.26,3.26,0,0,1-1.1-1c.26-.8,1.38-.19,1.05-1.5-.1-.38-2-.8-1-1.1a1,1,0,0,0,.68-.35c1-2.13,0-2.28-.38-4.09-.22-1.05,1.95-2.71-.25-4.48C680.76,286.64,682.2,285.94,682,285.62Z"/><path fill="#382d15" d="M769.93,259.29a43.12,43.12,0,0,0-.8-10.63c-.25-1.43.24-2.78,0-4.3s-1.26-2.11-1.72-3.32c-.58-1.54.21-3.08-.51-4.76-.5-1.16-1.65-1.71-2.25-2.73-.87-1.47-.74-3.6-1.46-5.27a24.13,24.13,0,0,0-2.72-4.55,69.77,69.77,0,0,0-6.62-7.65,32.5,32.5,0,0,1-2.5-2.3,30.16,30.16,0,0,0-3.75-4c-2.54-2.12-5.3-3.57-7.85-5.53a36.76,36.76,0,0,0-9.62-5.7,2,2,0,0,0-1.29,0c-1.21.23-1.76-1.61-2.62-2.22-1.4-1-2.68-.56-4.07-1.14-2.84-1.19-4-3.17-7.58-2.7.34-.26-.64-1-3-2.22-1.82-.65-3.48-.46-5.27-1.2-2.16-.88-3.75-.74-5.94-1.34-3.74-1-10.48-5.81-14.41-2.74a6,6,0,0,0-7.95-1.13c-3-1.84-5.58-1.5-8.17,1.33,0-.44-1-.58-3.16-.06-3.32,1.68-6.27,3.42-8.38,6.55-1.73,2.58-4.87,5.07-3.89,8.57-5.56,3.75-1.91,15.67.22,20.33,3.48,7.6,11.82,12.58,19.78,13.55l.84.31,0-.19c3.85.58,7.82.57,11.69.91,2.48.22,4.85.8,7.3,1.24,1.88.34,4.19,1.11,6.09,1,.88,0,2.24-1,2.86-.16a6.09,6.09,0,0,0,3.4,1.91c1,.19,2.51-.57,3.44-.2.72.29,1.22,1.48,2,1.91,1.32.76,2.36.32,3.68.74,2.11.67,4.25,3,6.17,4.44,2.16,1.55,6.24,3.75,6.66,6.71a5.06,5.06,0,0,1,1.76,2.46c.25,1.66-.54,4.19-.6,6a50.42,50.42,0,0,1-.49,7.78A78.54,78.54,0,0,1,725,284.08c-4.61,11-9.31,21.59-15.35,31.95,0,.14-.13.34-.25.61l2,1.2a.3.3,0,0,0,0,.08l-2.11-1.16c-1.38.09-2.49,5.78-2.58,6.77-.23,2.65.61,5.11,1.24,7.64,1.35,3.55,6.25,11.21,11.2,8.47,2.94,3.37,5.75,1,9,0s5.49-1.11,6.24-5.22c3.2-.75,5.43-4.73,7.05-7.34,2-3.23,4.22-6.21,6.28-9.39,1.85-2.86,3.21-6,5.06-8.83,1.71-2.65,5.46-7.5,4.22-10.88,3-1.7,4.09-4.12,3.28-7.11a6,6,0,0,0,2.87-7.4c.4.19,1.13-.51,2.12-2.13a56,56,0,0,0,2.6-10.41c.44-3.08,2-5,.61-8.18C768.83,263,769.39,261.82,769.93,259.29Z"/><path fill="#382d15" d="M724.64,336.89a3.66,3.66,0,0,0-1.29-2.68c-.07,0-.11,0-.14,0-.57-.07-.77-.93-1.48-.84,0,0-.08-.1-.35-.22s-1,.07-1.29,0-1.37,0-1.54.46a.64.64,0,0,0-.79.29.7.7,0,0,0-.8.31s-.11-.06-.32,0c.23-.09-1.75.72-1.82.82-2.06-.65-5.28,3.2-7.18,2.76-1.07-.09-2,2.08-2.34,2.68a3.79,3.79,0,0,1,0,.39,4.33,4.33,0,0,0,4.14,5.18h.08v-.26h0V346c.51,0,2.42-.25,2.7-.89a2.78,2.78,0,0,0,1.59-.6c.48.16,4.09-1.15,4.3-1.66a.63.63,0,0,0,.78-.3.65.65,0,0,0,.79-.31c0,.05.12.06.32,0a18.83,18.83,0,0,0,1.82-.82c0,.05.13,0,.41,0C724.3,340.39,724.25,338.72,724.64,336.89Z"/><path fill="#382d15" d="M716.42,330.09c0-.57-.61-2.7-1.47-2.66a.65.65,0,0,0-.74-.56.73.73,0,0,0-.8-.45s0-.14-.19-.28c.31.18-1.78-1-1.88-1.05s0-.14-.25-.34c-2.5-1.69-3.93-4-6.18-5.94-.07,0-.12-.06-.14-.05-.62-.11-.79-1.07-1.58-1,0,0-2-.35-2.31-.31a1.59,1.59,0,0,0-1.11.57.66.66,0,0,0-.79.51.7.7,0,0,0-.66.69s-.13,0-.31.19-.81,1.76-.56,2.17c-1.92,2.23,4.22,5.53,4.43,6.9.24.87,2.3,1.92,2.84,2.52a1.3,1.3,0,0,1,.38.15c1.79,1.43,4.39,3.74,6.85,3.76H712v-.27h0v.28c.56,0,2.78-.33,2.83-1.26.48,0,1.13-1.11,1.09-1.53C716.56,331.86,716.41,330.56,716.42,330.09Z"/><path fill="#382d15" d="M719.8,320.17c0-.56-.59-2.7-1.46-2.65a.65.65,0,0,0-.73-.57.73.73,0,0,0-.78-.47s0-.14-.18-.29c.3.2-1.73-1.1-1.83-1.11s0-.14-.24-.35c-2.39-1.76-3.84-4.21-6.06-6.06a.26.26,0,0,0-.15-.06c-.61-.1-.78-1.06-1.57-1,0,0-2-.35-2.3-.31a1.55,1.55,0,0,0-1.11.57.66.66,0,0,0-.79.5.69.69,0,0,0-.65.7c0-.05-.14,0-.32.18s-.82,1.75-.56,2.17c-1.91,2.24,4.17,5.5,4.36,6.92.22.88,2.25,2,2.77,2.58a1.3,1.3,0,0,1,.38.15c1.74,1.48,4.27,3.87,6.74,3.9h.09v-.28h0V325c.54,0,2.77-.33,2.82-1.24.48,0,1.13-1.11,1.09-1.53C719.93,321.89,719.78,320.7,719.8,320.17Z"/><path fill="#382d15" d="M728.19,314.51c-.14-.7-.92-3.68-2.24-3.38a.76.76,0,0,0-.8-.58.79.79,0,0,0-.81-.6s0-.16-.17-.34c.27.21-1.77-1.34-1.92-1.36q.07,0-.24-.39c-2.48-2.1-4.32-4.41-6.59-6.73-.07-.06-.12-.08-.15-.07-.69-.14-.76-1.23-1.66-1.16,0,0-.09-.14-.41-.28-.63-.16-3.15-.36-3.33.59a.73.73,0,0,0-.84.61.74.74,0,0,0-.65.81c0-.05-.15,0-.32.24s-.69,2-.34,2.44c-1.5,2.61,5.09,5.54,5.34,7.33.24.95,2.44,2.14,3,2.84a2.19,2.19,0,0,1,.41.18c1.84,1.65,4.49,4.57,7.19,4.59h.09v-.3h0v.31c.59,0,3.07-.44,3.05-1.48.52-.08,1.13-1.33,1-1.77A1.58,1.58,0,0,0,728.19,314.51Z"/><path fill="#4e73b8" d="M584.26,118.25c-.08.28-.1.55-.21,1.09.27,1,1.39,1,1.65,1.66s-.89,1.31-.23,2.34a29.39,29.39,0,0,0,10.73,11.47,25.55,25.55,0,0,0,8,2.78c1.55.27,6.54,1.29,8.07.49a4.63,4.63,0,0,0,.73-.66,2.7,2.7,0,0,0,.88,1.29,1,1,0,0,0,.55.16,1.91,1.91,0,0,0,.78-.13c.45-.05,2.49,4,3.62,4.26-1,1.57-1.16,2.46.57,3.5-1.56,1.44-1.51,2.44.36,3.58-1.8,1-1,4-.5,5.59a4,4,0,0,0,.26.45c.61.81.3.68.47,1.49l-.43.95a9.58,9.58,0,0,1,.73,1.28c0,1.27-1.28,2.62.41,3.71-1.52,1.71.18,3.2.1,5.15.14,1.45,2.49,1.61,2.37,2.42a1,1,0,0,0,.08.79c2,2.79,7.7,5,11.21,4.61a5.4,5.4,0,0,0,1.28-.5c.84-.86.69-1.18,1.75-1a1.12,1.12,0,0,0,1.2-.23c1.95-2.39,5.93-3.73,5.09-7.53-.06-.16,1.18-1.19,1.21-1.24a1.29,1.29,0,0,0,.29-.78c.12-.81-.63-1.93-.73-2.47a1.83,1.83,0,0,0,.59-2.09,12.65,12.65,0,0,1-.92-1.16c-.49-1.85-.33-3.31-1.43-5.25v-.05l-.12-.15a2.2,2.2,0,0,0-2.23-1c.1-1.66-.21-2.11-1.69-2.49-.54-.08-1.23-1.9-1.6-2.23a7.74,7.74,0,0,0-1.45-1.19,2.29,2.29,0,0,0-.3-.34c1.75-.49,2.38-2.21.8-3.64,1.92-.94,2.12-2.18.53-3.67,3.43-1.28,1.17-11.14.65-13.58-.13-1.73-.43-6.32-2.94-6.4,1-2.51-.37-2-1.31-3.61-.84-1.47.42-2.92-2.43-2.93,1.56-2.86-5.83-8.39-7.83-9.58l-.39-.17-.24-.24a10.27,10.27,0,0,0-3-1.61c-3.88-.81-7.2-2.61-11.3-2.88-2.6-.17-7.1,0-9.44,1.31-1.75.78-3.67,1-5.29,2-1.09.72-1.28,1.71-2.13,2.5a6.32,6.32,0,0,0-1.81.45s-.06,0-.05,0a3.29,3.29,0,0,1-.46.74c-1.64,2.71-4.5,3.66-3.34,7.41,0,.45-1.06,2.18-1.19,2.84-.3,1.6.89.29.07,2.43Z"/><path fill="#382d15" d="M699.2,394.26a4.19,4.19,0,0,1-.82,1.58,13.56,13.56,0,0,1-3.29,3.78c-.32.22-1.84.81-1.92,1a8.19,8.19,0,0,1-1.77,1.27,36.59,36.59,0,0,1-3.79,1.62c-1.41.6-4.34,1.11-5.47,1.91-.52.83-2,1.48-3.86,2a51.84,51.84,0,0,1-5.79,1.18c-2.82.42-5.48.7-6.83.92-5.53.88-11.16,1.73-16.76,2.17-4.78.36-9.52.66-14.28.93-2.08.12-4.2.13-6.3.2-1.1,0-6.7-.79-7.29-.3-1.95.48-16.6-.14-16.49-.5a10.49,10.49,0,0,1-6.14-.36,10,10,0,0,1-6-.48c-4.55,1.46-12.78-.88-17.51-1.66-4.57-.76-11.35-1-15.39-3.49-.61,0-1.31-.09-2.05-.18a31.91,31.91,0,0,1-5.35-1.29,15.14,15.14,0,0,1-4.36-2.13c-1.16,0-3.59-.76-6.2-2-5.11-2.49-10.92-6.82-9.38-10.29.25,0,.5,0,.74-.06,0,0,0,0,0-.07h-.73c.31-4.78,4.79-8.07,10-10.33a61,61,0,0,1,9.26-3.1c1.25-.32,2.4-.61,3.38-.83.71-.17,1.42-.32,2.13-.47,4-.9,8.12-1.63,12.24-2.28s9.14-.39,13.08-1.66c12.79-.19,25.1-1.29,37.9-1,7.23.14,14.39.72,21.59,1.37,3.89.35,7.7.87,11.58,1.35,3,.38,6.74.42,9.44,1.87,2.84-.2,6.3.93,9.08,1.56l.14,0c.83.24,3.14,1.15,4.85,1.76a6.93,6.93,0,0,0,2,.58,10,10,0,0,1,5.86,2,9.35,9.35,0,0,1,4.91,1.92,7.88,7.88,0,0,1,.69.62c4.24.23,8.31,5.22,8.94,9.08A3.82,3.82,0,0,1,699.2,394.26Z"/><path fill="#4e73b8" d="M691.25,413.65c.2,6.73-.32,13.45-.56,20.19-.12,3.55-.87,7-.87,10.61,0,3.3.41,6.84-.47,10.1a18.32,18.32,0,0,1-6,13.67,19.76,19.76,0,0,1-7.73,3.84,18.54,18.54,0,0,1-2.9.56,15.06,15.06,0,0,1-2.5.08A9.71,9.71,0,0,1,667,472a5.34,5.34,0,0,1-.71-.37c-3.93,1.63-6.33.24-10.22.15s-6.22.86-10.26-.57c-3,1.33-7.26.81-10.61.72-5-.15-12.64-.39-16.43-3.52-4-2.47-4.45-7.1-5.09-10.84s-2.52-10-.57-13.4a7.31,7.31,0,0,1,.16-8.42,9.24,9.24,0,0,1-.84-8.06c-1.21-.83-2-1.94-3.13-2.85l-.11-.09a3.05,3.05,0,0,0-.32-.13c-.22,0-.46-.1-.68-.13h-.53s-.42,0-.58.09l-.27,0c-5.17,1.49-2.48,7.51-3.6,10.73,1.8,2.55,1.28,5.92,1.15,8.72a20.58,20.58,0,0,1-.49,4.88c-.27.94-1.24,1.89-.81,2.91a7.88,7.88,0,0,1-.64,6.31,1.19,1.19,0,0,0,0,1.53c1.39,2.69-.3,5.52-2.76,7.25-1.7.84-2.4,2.43-4.35,3.21a19.67,19.67,0,0,1-5,1c-4.25.46-8.47-.18-12.73-.23a45.52,45.52,0,0,1-5.46-.66c-1.63-.17-3.27.36-4.9.45-3.37.2-8.34.3-11.89-.72a10.85,10.85,0,0,1-1.55-.58l-.12-.05a20.4,20.4,0,0,0-3.71-1.71l-.16-.08c-2-.76-4-1.53-5.5-3.56-2-2.65-1.9-5-2.28-7.88-.31-2.35-1.46-4.3-1.16-6.84.4-3.38-1-6.31.47-9.71-1.57-2.91-.4-4.77-.15-7.64.17-2-.82-3.72-.54-5.79a21.24,21.24,0,0,0-.18-5.51c-.33-3.29-1.27-9.66,1.35-12.43a7.33,7.33,0,0,1-.22-7.8q.15-.3.33-.6c-1.59-3-1.53-5,.21-8.47-1.93-2.31-1.23-6.36-.8-9.05a9.4,9.4,0,0,1,.84-2.64,61,61,0,0,1,9.26-3.1c1.25-.32,2.4-.61,3.38-.83.71-.17,1.42-.32,2.13-.47,4-.9,8.12-1.63,12.24-2.28s9.14-.39,13.08-1.66c12.79-.19,25.1-1.29,37.9-1,7.23.14,14.39.72,21.59,1.37,3.89.35,7.7.87,11.58,1.35,3,.38,6.74.42,9.44,1.87,2.84-.2,6.3.93,9.08,1.56l.14,0c.83.24,3.14,1.15,4.85,1.76a6.93,6.93,0,0,0,2,.58,10,10,0,0,1,5.86,2,9.35,9.35,0,0,1,4.91,1.92,21.76,21.76,0,0,1,1,2.55,43.66,43.66,0,0,1,.48,9.56,66.58,66.58,0,0,0,.44,7.07c.06.74.12,1.48.14,2.22C691.67,407.28,691.15,410.45,691.25,413.65Z"/><path fill="#efc41a" d="M678.34,410.07c-.92-.81-.07-1.75-.06-2.67,0-.52-.26-1-1.26-1.49,0,0,1.42-.75,1.37-.93-.2-.61-1.43-.53-1.53-.87,0-.12,1.33-.44,1.41-.87s-1-.75-1-.9c.47-1.27,2.32-2.57-.36-3.39,1.58-.59,1.74-.85.74-1.47-.9-.89,2.19-2.76-1.12-3.52,2.06-.47,2.44-1.31,0-1.84,2.27-.68,2.27-1.26,0-1.83,1.07-.27,2.49-1.5,1.49-2.78a1.07,1.07,0,0,1-.06-1.4c.81-1.5.12-5.58-1.69-5.9a2.45,2.45,0,0,0,1.61-1.08,4.94,4.94,0,0,0-1.28-.81,1.15,1.15,0,0,0,.19-.14c-1.71-.61-4-1.52-4.85-1.76a17.89,17.89,0,0,1,.1,4.11c-.68,1.22.93,2.23.15,3.25-.37.63,0,1.2,0,1.83a4,4,0,0,0,1.16.79,7,7,0,0,0-1.11.85v.05c1.46,1.18-1.07,2.67,1.43,4-.05,0-1.32.76-1.32.93.23.71,1.32.43,1.51.88,0,.06-1.34.49-1.38,1-.08.72,1.35.43,1.41.86.08.62-2.45.79-1.33,2.64.84,1.05-.6,2.1.1,3.27.89,1.12-.84,2.09,0,3.29.81.91.15,2.76-.08,4.39-.2,1.39-.09,2.62,1.46,3-1.53.48-2,.95-.74,1.53.15,0,0,.15-.06.21-1.71,1.12-.5,2.94,1,3.25-2.22.78-2.22,1.21-.05,1.89-2.23.63-2.23,1.16.11,1.83-1.95.28-1.56.8-1.75,2.37,0,.53.79.86.91,1.18s-1.09.33-1,.76c0,.16,1.22.71,1.11.88-.6,1-1.87.9.17,1.69-.83,0-1.27.33-1.29,1a4,4,0,0,1,1.11.75c-.18.41-1.13.21-1.06.87,0,.44,1.37.69,1.33.9-.35.15-.7.28-1.05.4-.93,1.33,0,2.33,0,3.21,0,1.42-1.12,2.06.53,3.15.15.1-1.21.59-1.06.84,1.38,1.37-1.51,2.71,1.17,4.14-.09,0-1.38.72-1.38.9.1.63,1.39.6,1.44.93s-1.32.35-1.45.8,1,.8.93,1c-.6,1.2-2.47,2.41.14,3.41-1.59.46-1.75.72-.79,1.41.79.79-2.34,2.59.84,3.57-2.12.32-2.54,1.11-.16,1.84-2.32.46-2.38,1-.1,1.83-3.57.51-.33,2.54-1.86,4-1,1.28-.69,5.55,1,6a2.45,2.45,0,0,0-1.71.88,6.46,6.46,0,0,0,1.15,1,3.94,3.94,0,0,0-1.26.79,2.4,2.4,0,0,0,1.71,1.07c-1.06.12-1.44.38-1.59.79a15.06,15.06,0,0,0,2.5-.08,18.54,18.54,0,0,0,2.9-.56,2,2,0,0,1,.17-.62c1.05-1.49-.66-5.16.53-6.5,1.07-1.68-.91-1.9-.91-2.72,0,.16,1.18-.73,1.21-.75-1.31-1.29,1.33-2.63-1-4.25-.32-.15,1.43-.41,1.38-.83,0-.87-1.2-.5-1.41-1,0-.11,1.41-.38,1.42-.91s-.88-.54-1.21-.78c.39-.05,1.45-2.35,1.47-2.35a13.93,13.93,0,0,0,.05-3.7c-.81-1,.46-4.44.52-5.74.07-1.72.52-4.45-1.37-5.07,1.53-.42,2-.88.79-1.52-.15-.09,0-.16.06-.21,1.71-1.08.67-3-.85-3.3,2.22-.75,2.22-1.16,0-1.89,2.23-.59,2.23-1.16-.11-1.84,2-.28,1.56-.78,1.76-2.36,0-.53-.8-.86-.92-1.18s1.08-.33,1-.75c0-.16-1.22-.73-1.11-.89.6-1,1.87-.92-.17-1.7.83,0,1.25-.36,1.29-1a3.32,3.32,0,0,1-1.11-.72c.26-.59,1.38-.14,1.05-1.11-.09-.28-2-.59-1-.81a1.18,1.18,0,0,0,.69-.26c1-1.59,0-1.69-.39-3-.21-.77,2-2-.25-3.31C677.1,410.83,678.54,410.31,678.34,410.07Z"/><path fill="#efc41a" d="M557.88,401.33c-.21-.62-1.44-.54-1.53-.88,0-.13,1.32-.47,1.4-.91s-1-.77-1-.93c.47-1.3,2.33-2.64-.36-3.49,1.59-.59,1.74-.86.74-1.52-.88-.9,2.19-2.85-1.11-3.64,2.07-.47,2.43-1.34,0-1.88,2.28-.71,2.28-1.3-.06-1.9,1.08-.28,2.5-1.53,1.49-2.85a1.2,1.2,0,0,1-.06-1.48c.81-1.51.12-5.72-1.69-6a2.49,2.49,0,0,0,1.14-.59c-.71.15-1.42.3-2.13.47-1,.22-2.13.51-3.38.83-.2,1.07,1,2,.29,3-.36.64,0,1.25,0,1.9a4.71,4.71,0,0,0,1.17.81,7,7,0,0,0-1.12.86v.06c1.46,1.21-1.07,2.76,1.44,4.16,0,0-1.37.79-1.33,1,.25.72,1.32.44,1.52.91,0,.05-1.35.49-1.39,1-.07.74,1.35.45,1.41.89.1.64-2.45.81-1.33,2.71.84,1.11-.6,2.16.11,3.37.89,1.17-.85,2.17,0,3.4.72.85.27,2.48,0,4s-.36,3.18,1.38,3.62c-1.54.49-2,1-.75,1.57.17,0,.06.16,0,.21-1.71,1.16-.51,3,.94,3.35-2.22.82-2.22,1.26-.05,2-2.22.64-2.22,1.19.11,1.89-1.94.3-1.55.8-1.75,2.43,0,.54.8.9.92,1.23s-1.09.34-1,.78c0,.15,1.22.74,1.12.92-.6,1-1.88.92.16,1.73-.83,0-1.25.34-1.29,1a3.62,3.62,0,0,1,1.11.77c-.18.42-1.13.23-1.06.9.06.46,1.34.71,1.34.94-.35.13-.7.29-1.06.42-.93,1.35,0,2.39,0,3.29,0,1.46-1.12,2.13.53,3.25.17.11-1.21.62-1.06.88,1.39,1.4-1.51,2.79,1.17,4.26-.08,0-1.37.75-1.37.92.11.66,1.38.64,1.43,1s-1.31.37-1.44.84,1,.83.92,1c-.6,1.21-2.47,2.46.14,3.49-1.58.5-1.75.75-.79,1.46.8.82-2.34,2.69.85,3.69-2.12.32-2.55,1.13-.17,1.9-2.32.48-2.38,1.07-.1,1.89-3.55.51-.33,2.61-1.85,4.15-1,1.34-.69,5.72,1,6.23a2.51,2.51,0,0,0-1.72.9,1.45,1.45,0,0,1,.16.18,20.4,20.4,0,0,1,3.71,1.71l.12.05a10.85,10.85,0,0,0,1.55.58l0-.06c1.05-1.54-.65-5.33.53-6.71,1.07-1.74-.9-1.94-.9-2.82,0,.18,1.18-.73,1.22-.74-1.31-1.37,1.31-2.74-1-4.4-.31-.15,1.43-.44,1.37-.87,0-.89-1.2-.5-1.4-1,0-.08,1.4-.37,1.43-.9s-.89-.59-1.23-.82c.4-.06,1.45-2.43,1.47-2.43a14,14,0,0,0,.05-3.82c-.81-1.06.47-4.58.52-5.91.08-1.78.52-4.59-1.37-5.23,1.54-.43,2-.93.8-1.56-.16-.11,0-.17.05-.23,1.71-1.11.67-3.07-.85-3.41,2.23-.75,2.23-1.19.06-1.94,2.22-.61,2.22-1.2-.11-1.9,1.94-.29,1.55-.81,1.75-2.42,0-.56-.8-.91-.92-1.23s1.1-.34,1-.78c0-.16-1.21-.74-1.11-.94.6-1,1.89-.92-.15-1.72.82,0,1.25-.37,1.28-1.06a3.12,3.12,0,0,1-1.11-.75c.26-.6,1.38-.15,1-1.14-.09-.28-2-.6-.95-.84a1,1,0,0,0,.68-.27c1-1.63,0-1.73-.39-3.13-.21-.82,2-2.05-.24-3.42-.18-.14,1.27-.66,1.05-.92a1.23,1.23,0,0,1-.41-.75c-.15-1.15,1.37-2.44-.91-3.53C556.54,402.34,557.93,401.52,557.88,401.33Z"/></svg>