<svg xmlns="http://www.w3.org/2000/svg" xmlns:xlink="http://www.w3.org/1999/xlink" width="1200" height="800" x="0" y="0" version="1.1" viewBox="0 0 1200 800"><g><g transform="translate(105.0 100.0) scale(1.3727272727272728 1.3693877551020408) rotate(0.0 109.99999999999999 245.0) translate(-0.0 -0.0)"><g id="R_hand_3_-i0"><linearGradient id="R_hand_1_-i0" x1="5482.932" x2="6348.03" y1="2542.673" y2="2542.673" gradientTransform="matrix(0.0761 -0.0026 0.0026 0.0761 -268.7423 -83.7095)" gradientUnits="userSpaceOnUse"><stop offset="0" style="stop-color:#ffbeb6"/><stop offset="1" style="stop-color:#f2a19c"/></linearGradient><path id="R_hand_6_-i0" fill="url(#R_hand_1_-i0)" d="M180.535,128.456c2.824,1.293-4.774-52.144-5.119-55.087 c-0.395-3.366,13.232,0.488,17.047,1.615c3.815,1.127,9.428-0.325,12.799-2.96C208.632,69.389,220,61.439,220,61.439 s-5.74-2.88-13.629,1.422c-0.852,0.465-1.729,1.012-2.626,1.657c-9.211,6.615-15.042,1.779-13.806,1.106 c1.235-0.672,6.87-1.496,9.071-1.573c2.2-0.076,6.098,0.154,6.683-3.412c0,0-23.863-0.555-31.534,0.93 c-7.703,3.324-7.75,8.287-9.032,11.767c-3.229,8.77-9.707,31.698-9.391,36.211C156.764,124.255,180.535,128.456,180.535,128.456z"/></g><linearGradient id="L_trousers_1_-i0" x1="-6043.205" x2="-3788.611" y1="6234.622" y2="5291.791" gradientTransform="matrix(-0.0741 0 0 0.0741 -214.5327 -94.8663)" gradientUnits="userSpaceOnUse"><stop offset="0" style="stop-color:#a1c3fc"/><stop offset=".696" style="stop-color:#81aef2"/><stop offset="1" style="stop-color:#78a9ef"/></linearGradient><path id="L_trousers-i0" fill="url(#L_trousers_1_-i0)" d="M50.54,202.312c10.952,51.365,9.104,43.625,14.752,88.721 c4.477,35.748,1.975,20.757,3.662,58.579c1.688,37.835-2.698,77.717,20.067,101.59l30.813,0.024c0,0-0.941-97.898-1.458-130.505 c-0.425-28.302-3.123-61.437-5.131-82.28c-0.116-1.19-0.264-2.381-0.46-3.569c-2.434-14.771-3.099-19.874-4.283-28.424 c-0.127-0.858-5.478-37.486-5.593-38.245c-8.546,0.884-11.493,0-21.807,0.884c-19.428,1.667-17.682,0.295-27.808-1.48 c-0.851-0.254-1.678-0.587-2.469-0.994c-1.527-0.594-3.004-1.309-4.419-2.135C46.189,174.218,47.199,186.645,50.54,202.312z"/><linearGradient id="R_trousers_1_-i0" x1="-3913.163" x2="-4252.777" y1="4890.341" y2="2017.778" gradientTransform="matrix(-0.0741 0 0 0.0741 -214.5327 -94.8663)" gradientUnits="userSpaceOnUse"><stop offset="0" style="stop-color:#a1c3fc"/><stop offset=".696" style="stop-color:#81aef2"/><stop offset="1" style="stop-color:#78a9ef"/></linearGradient><path id="R_trousers-i0" fill="url(#R_trousers_1_-i0)" d="M27.563,451.007h32.22c0,0,54.581-128.666,57.054-154.833 c2.45-26.155,0.486-57.34-2.958-83.017c-0.418-3.103-7.305-42.965-7.779-45.958c-8.574,0.33-10.432,0.33-21.767,0.33 c-17.479,0-17.809,0-27.758-0.143c-5.003-0.024-9.702-0.32-14.015-0.773c0.068,12.979-1.377,46.342,5.965,68.633 c19.696,59.867,5.498,62.672-3.537,79.627c-8.271,15.521-7.117,10.134-10.609,39.814c-2.007,17.06-5.773,15.015-9.726,37.16 C20.724,413.977,27.563,451.007,27.563,451.007z"/><path id="texture-i0" fill="#FFF" d="M53.824,221.119 c-0.036-0.086-0.135-0.125-0.221-0.089c-0.085,0.036-0.126,0.136-0.089,0.221c0.036,0.086,0.135,0.125,0.221,0.089l0,0 C53.822,221.302,53.862,221.204,53.824,221.119L53.824,221.119z M52.242,217.32c-0.029-0.082-0.12-0.126-0.203-0.097 c-0.005,0.002-0.011,0.004-0.018,0.008c-0.089,0.034-0.132,0.13-0.101,0.219c0.043,0.087,0.143,0.125,0.232,0.09 C52.238,217.505,52.278,217.406,52.242,217.32L52.242,217.32L52.242,217.32z M52.399,241.624c-0.178,0.012-0.313,0.165-0.303,0.342 c0.009,0.171,0.155,0.302,0.326,0.294c0.005,0,0.011-0.001,0.018-0.001c0.178-0.013,0.313-0.165,0.303-0.342 C52.729,241.741,52.575,241.611,52.399,241.624L52.399,241.624L52.399,241.624z M51.845,233.831 c-0.176,0.015-0.306,0.169-0.292,0.343l0,0c0.01,0.178,0.165,0.315,0.342,0.303c0.178-0.01,0.315-0.165,0.303-0.342 C52.18,233.957,52.026,233.824,51.845,233.831L51.845,233.831z M51.304,226.039c-0.178,0.021-0.312,0.174-0.305,0.355 c0.009,0.171,0.155,0.302,0.326,0.294c0.005,0,0.011-0.001,0.018-0.001c0.175-0.008,0.312-0.155,0.304-0.331 c0-0.004,0-0.008-0.001-0.011C51.634,226.164,51.482,226.029,51.304,226.039L51.304,226.039z M50.749,218.256 c-0.176,0.015-0.306,0.169-0.292,0.343c0,0,0,0,0,0.001c0.011,0.178,0.167,0.314,0.344,0.301c0.178-0.011,0.314-0.167,0.301-0.344 c-0.013-0.178-0.167-0.314-0.344-0.301C50.755,218.255,50.753,218.255,50.749,218.256z M67.721,233.849 c-0.076-0.165-0.272-0.236-0.436-0.158c-0.165,0.076-0.236,0.272-0.158,0.436c0.076,0.165,0.272,0.236,0.436,0.158 c0.002-0.001,0.004-0.002,0.005-0.003C67.729,234.203,67.795,234.012,67.721,233.849L67.721,233.849z M64.237,226.862 c-0.076-0.165-0.272-0.236-0.436-0.158c-0.165,0.076-0.236,0.272-0.158,0.436c0.077,0.165,0.272,0.236,0.436,0.158 c0.002-0.001,0.004-0.002,0.005-0.003C64.244,227.216,64.313,227.024,64.237,226.862L64.237,226.862z M60.754,219.875 c-0.089-0.157-0.282-0.221-0.446-0.143c-0.16,0.084-0.222,0.283-0.138,0.443c0.081,0.155,0.27,0.219,0.428,0.145 C60.759,220.235,60.826,220.041,60.754,219.875L60.754,219.875z M70.72,224.379c-0.084-0.133-0.262-0.174-0.395-0.09 c-0.133,0.084-0.174,0.262-0.09,0.395c0.084,0.133,0.262,0.174,0.395,0.09l0,0c0.132-0.079,0.176-0.251,0.097-0.386 C70.724,224.386,70.722,224.383,70.72,224.379L70.72,224.379z M67.031,218.459c-0.022-0.05-0.063-0.089-0.114-0.108l-0.011-0.002 c-0.089-0.039-0.19-0.031-0.271,0.021c-0.138,0.087-0.179,0.267-0.093,0.405c0.001,0.001,0.001,0.002,0.002,0.003 c0.085,0.132,0.262,0.172,0.395,0.09c0.063-0.037,0.105-0.099,0.117-0.17C67.089,218.617,67.079,218.529,67.031,218.459 L67.031,218.459z M48.461,221.413c-0.155-0.035-0.308,0.062-0.344,0.215c0,0.002-0.001,0.004-0.001,0.004 c-0.043,0.143,0.039,0.294,0.182,0.337c0.009,0.003,0.018,0.004,0.026,0.006c0.154,0.035,0.308-0.062,0.343-0.215 c0-0.002,0.001-0.004,0.001-0.004C48.702,221.605,48.611,221.454,48.461,221.413L48.461,221.413z M60.137,231.913 c-0.155,0.035-0.257,0.182-0.233,0.341c0.027,0.155,0.174,0.259,0.328,0.233c0.156-0.025,0.265-0.17,0.244-0.328 C60.449,231.998,60.299,231.889,60.137,231.913L60.137,231.913z M58.991,225.039c-0.155,0.035-0.257,0.182-0.233,0.341 c0.027,0.155,0.174,0.259,0.328,0.233c0.151-0.022,0.256-0.161,0.236-0.313c-0.001-0.005-0.002-0.011-0.003-0.018 C59.294,225.126,59.148,225.018,58.991,225.039L58.991,225.039z M57.843,218.178c-0.151,0.022-0.256,0.161-0.236,0.313 c0.001,0.005,0.002,0.011,0.003,0.018c0.027,0.155,0.174,0.259,0.328,0.233c0.155-0.027,0.258-0.174,0.232-0.328 c-0.022-0.151-0.16-0.257-0.312-0.236C57.855,218.175,57.849,218.176,57.843,218.178L57.843,218.178z M57.564,219.188 c-0.093-0.003-0.171,0.07-0.174,0.163c-0.003,0.093,0.07,0.17,0.163,0.174c0.093,0.003,0.171-0.07,0.174-0.163l0,0 C57.729,219.269,57.657,219.192,57.564,219.188L57.564,219.188z M57.31,220.598c-0.104-0.014-0.203,0.052-0.231,0.155 c-0.023,0.102,0.041,0.205,0.143,0.229c0.096,0.029,0.196-0.025,0.224-0.121c0.002-0.006,0.004-0.015,0.004-0.022 C57.479,220.734,57.416,220.627,57.31,220.598C57.311,220.599,57.311,220.599,57.31,220.598L57.31,220.598z M67.14,218.509 c-0.016-0.103-0.113-0.175-0.216-0.16c-0.002,0-0.004,0.001-0.007,0.001l-0.011-0.002c-0.1,0.025-0.165,0.123-0.148,0.224 c0.016,0.103,0.113,0.175,0.216,0.16c0.002,0,0.004-0.001,0.007-0.001c0.027-0.008,0.052-0.021,0.075-0.035 C67.121,218.658,67.154,218.583,67.14,218.509L67.14,218.509z M74.082,237.808c-0.182,0.028-0.309,0.196-0.286,0.381 c0.03,0.181,0.2,0.302,0.381,0.274c0.181-0.03,0.306-0.197,0.286-0.381C74.433,237.901,74.262,237.78,74.082,237.808L74.082,237.808 z M72.828,229.859c-0.181,0.03-0.303,0.2-0.274,0.382c0.03,0.181,0.2,0.303,0.381,0.274c0.181-0.029,0.303-0.2,0.274-0.382 C73.181,229.951,73.009,229.83,72.828,229.859L72.828,229.859z M46.157,223.414c-0.149-0.108-0.356-0.075-0.466,0.074 c-0.108,0.149-0.075,0.357,0.074,0.466c0.001,0.001,0.002,0.001,0.003,0.002c0.149,0.108,0.356,0.075,0.466-0.074 c0.108-0.149,0.075-0.357-0.074-0.466C46.159,223.415,46.158,223.414,46.157,223.414z M50.889,216.911 c-0.142-0.111-0.347-0.086-0.457,0.057c-0.002,0.002-0.004,0.004-0.004,0.006c-0.105,0.153-0.074,0.362,0.074,0.477 c0.15,0.105,0.355,0.072,0.465-0.075c0.108-0.145,0.078-0.35-0.066-0.459C50.895,216.915,50.892,216.913,50.889,216.911 L50.889,216.911z M58.406,233.562c-0.175-0.042-0.352,0.066-0.394,0.242c-0.001,0.002-0.001,0.004-0.002,0.006 c-0.045,0.176,0.06,0.356,0.236,0.406c0.179,0.035,0.355-0.072,0.407-0.247C58.697,233.789,58.586,233.605,58.406,233.562 C58.407,233.562,58.407,233.562,58.406,233.562L58.406,233.562z M60.291,225.744c-0.17-0.045-0.346,0.056-0.391,0.227 c-0.002,0.006-0.004,0.014-0.004,0.022c-0.044,0.174,0.063,0.35,0.236,0.394l0,0c0.18,0.045,0.363-0.066,0.406-0.246v-0.001 c0.045-0.17-0.056-0.346-0.226-0.391C60.306,225.747,60.299,225.746,60.291,225.744L60.291,225.744z M62.177,217.915 c-0.182-0.038-0.36,0.078-0.398,0.261c-0.036,0.177,0.073,0.352,0.249,0.396c0.175,0.042,0.352-0.066,0.394-0.242 c0.001-0.002,0.001-0.004,0.002-0.006C62.469,218.143,62.359,217.96,62.177,217.915C62.178,217.915,62.178,217.915,62.177,217.915 L62.177,217.915z M63.266,236.158c-0.181-0.038-0.36,0.078-0.396,0.26c-0.038,0.181,0.078,0.36,0.259,0.396 c0.181,0.038,0.357-0.078,0.396-0.26C63.563,236.375,63.448,236.197,63.266,236.158C63.267,236.158,63.267,236.158,63.266,236.158 L63.266,236.158z M64.819,228.294c-0.183-0.028-0.357,0.09-0.399,0.271c-0.028,0.177,0.086,0.347,0.262,0.387 c0.181,0.038,0.36-0.078,0.396-0.26C65.112,228.511,64.998,228.337,64.819,228.294L64.819,228.294z M66.36,220.441 c-0.179-0.035-0.351,0.081-0.387,0.26c-0.035,0.178,0.081,0.351,0.259,0.387c0.001,0,0.002,0,0.003,0 c0.181,0.038,0.36-0.078,0.396-0.26C66.66,220.648,66.541,220.478,66.36,220.441L66.36,220.441z M49.923,226.173 c-0.148-0.1-0.349-0.06-0.449,0.089c-0.003,0.004-0.004,0.008-0.008,0.012c-0.101,0.15-0.061,0.355,0.089,0.455 c0.153,0.103,0.361,0.065,0.467-0.088c0.102-0.152,0.063-0.36-0.089-0.462C49.928,226.177,49.926,226.175,49.923,226.173 L49.923,226.173z M54.363,219.503c-0.148-0.1-0.349-0.06-0.449,0.089c-0.003,0.004-0.004,0.008-0.008,0.012 c-0.101,0.15-0.061,0.355,0.089,0.455c0.153,0.103,0.361,0.065,0.467-0.088c0.103-0.152,0.063-0.36-0.089-0.463 C54.369,219.506,54.366,219.504,54.363,219.503L54.363,219.503z M63.224,222.396c-0.118-0.06-0.263-0.013-0.322,0.105 c-0.004,0.008-0.008,0.016-0.01,0.023c-0.055,0.127,0.003,0.275,0.129,0.33c0.127,0.055,0.275-0.003,0.329-0.129 C63.406,222.6,63.349,222.453,63.224,222.396z M65.601,216.839c-0.124-0.057-0.271-0.004-0.328,0.121 c-0.001,0.003-0.003,0.005-0.004,0.008c-0.056,0.128,0.001,0.275,0.129,0.334c0.128,0.056,0.275-0.001,0.333-0.129 C65.785,217.045,65.728,216.896,65.601,216.839L65.601,216.839z" enable-background="new" opacity=".86"/><linearGradient id="L_hand_1_-i0" x1="5229.373" x2="6329.011" y1="2607.554" y2="3242.803" gradientTransform="matrix(0.0741 0 0 0.0741 -267.5851 -94.8663)" gradientUnits="userSpaceOnUse"><stop offset="0" style="stop-color:#23286b"/><stop offset=".071" style="stop-color:#222768"/><stop offset=".673" style="stop-color:#181d55"/><stop offset="1" style="stop-color:#151a4f"/></linearGradient><path id="L_hand-i0" fill="url(#L_hand_1_-i0)" d="M125.611,71.725c0,0,3.865,1.498,27.366,36.717 c4.378,6.561,17.979,16.781,17.979,16.781l-27.492,16.661c-6.396-3.904-40.207-42.736-39.636-53.411l0,0 C103.827,88.472,118.489,73.841,125.611,71.725"/><linearGradient id="sweater-2_1_-i0" x1="4808.661" x2="4808.661" y1="2199.979" y2="4085.597" gradientTransform="matrix(0.0741 0 0 0.0741 -267.5851 -94.8663)" gradientUnits="userSpaceOnUse"><stop offset="0" style="stop-color:#23286b"/><stop offset=".575" style="stop-color:#191e58"/><stop offset="1" style="stop-color:#151a4f"/></linearGradient><path id="sweater-2-i0" fill="url(#sweater-2_1_-i0)" d="M97.237,61.749c0,0,17.11,67.339,48.722,102.577c0,0-54.021,36.839-114.444-3.604 c0,0,30.042-90.653,31.612-98.505C63.528,60.213,97.237,61.749,97.237,61.749"/><linearGradient id="L_shoe_1_-i0" x1="5973.156" x2="4956.149" y1="7891.091" y2="7640.322" gradientTransform="matrix(0.0741 0 0 0.0741 -267.5851 -94.8663)" gradientUnits="userSpaceOnUse"><stop offset="0" style="stop-color:#23286b"/><stop offset=".575" style="stop-color:#191e58"/><stop offset="1" style="stop-color:#151a4f"/></linearGradient><path id="L_shoe-i0" fill="url(#L_shoe_1_-i0)" d="M88.789,451.174l-13.907,38.823L173.064,490c0,0-5.034-9.717-21.817-16.915 c-16.783-7.197-32.447-21.911-32.447-21.911H88.789"/><path id="R_shoe-i0" fill="#23286B" d="M28.351,450.809l-13.907,38.823l98.183,0.003c0,0-5.034-9.717-21.817-16.915 c-16.783-7.197-32.447-21.911-32.447-21.911H28.351"/><linearGradient id="L_shoulder_1_-i0" x1="5079.085" x2="5079.085" y1="2178.866" y2="2879.332" gradientTransform="matrix(0.0741 0 0 0.0741 -267.5851 -94.8663)" gradientUnits="userSpaceOnUse"><stop offset="0" style="stop-color:#23286b"/><stop offset=".575" style="stop-color:#191e58"/><stop offset="1" style="stop-color:#151a4f"/></linearGradient><path id="L_shoulder-i0" fill="url(#L_shoulder_1_-i0)" d="M125.611,71.725c-7.839,4.785-15.142,10.4-21.784,16.746L91.939,65.017 l5.301-3.272C97.24,61.745,111.662,60.322,125.611,71.725z"/><linearGradient id="neck_1_-i0" x1="4704.215" x2="4923.809" y1="2032.457" y2="2032.457" gradientTransform="matrix(0.0741 0 0 0.0741 -267.5851 -94.8663)" gradientUnits="userSpaceOnUse"><stop offset="0" style="stop-color:#ffbeb6"/><stop offset="1" style="stop-color:#f2a19c"/></linearGradient><path id="neck-i0" fill="url(#neck_1_-i0)" d="M94.878,47.353c0,0-0.236,11.328,2.358,14.396c0,0-5.187,8.024-16.272,1.416l0.943-17.463 L94.878,47.353z"/><linearGradient id="R_hand_2_-i0" x1="5627.783" x2="4700.951" y1="2348.604" y2="2098.111" gradientTransform="matrix(0.0712 0.0204 -0.0204 0.0712 -244.9679 -95.8993)" gradientUnits="userSpaceOnUse"><stop offset="0" style="stop-color:#ffbeb6"/><stop offset="1" style="stop-color:#f2a19c"/></linearGradient><path id="R_hand-i0" fill="url(#R_hand_2_-i0)" d="M61.778,152.889c0,0,12.338,9.738,20.654,14.13c7.587,4.007,11.354,5.358,14.443,1.332 c2.793-3.791,5.23-7.83,7.282-12.068c0.852-1.953,3.885-2.268,3.609,2.643c-0.276,4.912-6.702,8.205-3.768,10.477 c2.932,2.272,12.522,2.037,19.633,1.102c7.112-0.935,11.006-1.217,5.471,8.069c-5.535,9.286-12.66,15.057-33.371,8.3 c-20.711-6.757-34.775-4.198-41.773-2.986L61.778,152.889z"/><path id="R_sleeve-2-i0" fill="#23286B" d="M63.265,73.712c0,0-9.947,27.201-10.478,45.87c-0.533,18.669,2.826,22.012,17.684,28.102 c14.857,6.09,18.329,6.468,18.329,6.468l-18.402,58.318c0,0-16.628,2.005-27.808-11.606c-11.179-13.612-15.636-17.184-23.73-20.633 c-8.094-3.447-24.123-15.775-17.144-43.418S20.547,88.767,50.34,62.76l0,0"/><path id="face-i0" fill="#FFBEB6" d="M107.952,19.828c0.017,0.124,0.026,0.216,0.035,0.27c0.008,0.018,0.011,0.035,0.009,0.055 c0.067,0.494,0.117,1,0.155,1.526c0.407,5.65,4.251,10.209,4.162,11.753c-0.089,1.545-3.162,2.418-4.612,2.478 c-1.451,0.059-1.097,6.258-7.192,10.098c-5.721,3.604-16.447,3.559-21.74,0.243C77.276,34.123,67.425,7.931,79.33,3.166 c12.994-5.206,24.808,7.069,24.808,7.069C106.11,13.107,107.414,16.384,107.952,19.828z"/><path id="eye-i0" fill="#1C2868" d="M103.981,24.914c1.37,1.951,4.062,2.419,6.011,1.047c0.707-0.496,1.247-1.194,1.553-2.001 c0.237-0.613-0.675-1.098-0.915-0.478c-0.578,1.721-2.441,2.647-4.161,2.069c-0.648-0.218-1.213-0.633-1.613-1.188 C104.458,23.835,103.582,24.38,103.981,24.914z"/><linearGradient id="hair_1_-i0" x1="4077.321" x2="5070.576" y1="1769.618" y2="1769.618" gradientTransform="matrix(0.0741 0 0 0.0741 -267.5851 -94.8663)" gradientUnits="userSpaceOnUse"><stop offset=".129" style="stop-color:#428dfc"/><stop offset=".999" style="stop-color:#1d72d8"/></linearGradient><path id="hair-i0" fill="url(#hair_1_-i0)" d="M106.57,11.364C104.098,8.11,96.292,3.292,91.738,1.73 c-0.253-0.113-0.529-0.169-0.807-0.165c-4.158-1.588-8.68-1.978-13.049-1.123C64.977,3.077,52.846,17.237,56.151,31.224 c0.77,4.768-0.204,9.653-2.743,13.76c-2.589,4.11-6.682,6.447-10.545,9.193c-4.682,3.327-8.892,7.571-8.255,13.745 c0.048,0.46,0.773,0.465,0.725,0C34.186,56.785,47.693,54,53.168,46.618c2.501-3.402,3.879-7.5,3.938-11.723 c2.643,12.447-5.626,16.641-10.386,20.324c-7.54,5.833-7.859,13.016-7.859,13.016c29.266,9.491,47.151,0.271,47.151,0.271 s7.859-9.492,1.626-22.778c-6.233-13.287-5.42-14.643,4.607-23.32c0.145-0.126,0.277-0.239,0.419-0.361 c-3.846,4.443-7.118,9.581-6.201,15.688c0.679,4.523,3.394,8.442,4.335,12.909c1.191,6.029,0.216,12.287-2.752,17.668 c-0.219,0.413,0.407,0.779,0.626,0.367c3.456-6.247,4.259-13.622,2.232-20.468c-1.488-4.834-4.342-8.998-3.706-14.272 c0.725-5.999,5.193-10.884,9.18-15.069l0,0c3.741-3.195,5.327-4.65,5.687-6.406c0.68,0.592,5.073,2.474,5.801,6.849 C107.865,19.31,109.041,14.62,106.57,11.364z"/><linearGradient id="L_sleeve-2_1_-i0" x1="6215.675" x2="6189.01" y1="1344.833" y2="614.859" gradientTransform="matrix(0.0723 0.0163 -0.0163 0.0723 -252.6 -100.0321)" gradientUnits="userSpaceOnUse"><stop offset="0" style="stop-color:#23286b"/><stop offset=".575" style="stop-color:#191e58"/><stop offset="1" style="stop-color:#151a4f"/></linearGradient><path id="L_sleeve-2-i0" fill="url(#L_sleeve-2_1_-i0)" d="M196.668,110.895c1.508-15.736,0.637-24.487,0.473-25.874 c-0.02-0.133-0.026-0.194-0.026-0.194l-41.494-3.68c-0.009,0.007-0.018,0.015-0.025,0.024c-0.408,0.404-5.601,5.791-2.167,14.574 c1.122,2.801,1.624,5.814,1.469,8.826l-0.017-0.014c0,0-0.002,0.098-0.003,0.277c-0.005,0.068-0.01,0.137-0.021,0.223 c-0.507,6.913-2.613,13.612-6.151,19.569c-0.174,0.288-0.341,0.588-0.489,0.892c-0.035,0.067-0.069,0.141-0.103,0.208 c-1.813,3.56-3.091,7.367-3.793,11.301c-0.005,0.024-0.01,0.048-0.017,0.072c-0.018,0.034-0.027,0.074-0.026,0.114 c-0.363,1.695-0.634,3.29-0.816,4.669c1.306,0.949,2.671,1.81,4.088,2.581c1.219,0.666,2.493,1.229,3.805,1.683l0.276,0.093 c3.345,1.202,6.806,2.051,10.327,2.532c0.852,0.116,1.712,0.184,2.572,0.204c0.206,0.007,0.413,0.014,0.613,0.009 c0.206,0.007,0.425,0.006,0.636-0.005c1.457,0.013,2.913-0.1,4.35-0.337c0.113-0.015,0.225-0.028,0.339-0.052 c5.485-0.692,10.576-3.222,14.442-7.176c0.321-0.324,0.646-0.667,0.953-1.015c0.276-0.302,0.546-0.612,0.807-0.927l0.015-0.017 c0.28-0.339,0.553-0.685,0.817-1.039c0.25-0.324,0.481-0.654,0.715-0.991c0.075-0.107,0.145-0.218,0.219-0.326 c0.116-0.165,0.232-0.332,0.339-0.498c0.281-0.425,0.55-0.866,0.811-1.311c0.074-0.125,0.151-0.249,0.223-0.375 c0.178-0.303,0.351-0.606,0.515-0.912c0.052-0.098,0.101-0.186,0.142-0.275c0.135-0.247,0.272-0.504,0.389-0.756 c0.064-0.105,0.12-0.221,0.173-0.328C194.239,126.145,195.951,118.425,196.668,110.895z"/></g></g><g><g transform="translate(400.0 488.0) scale(0.935 0.9333333333333333) rotate(0.0 199.99999999999997 150.0) translate(-0.0 -0.0)"><linearGradient id="SVGID_1_-i1" x1="2412.549" x2="7661.892" y1="3991.811" y2="3991.811" gradientTransform="matrix(0.0762 0 0 0.0762 -183.8362 -154.176)" gradientUnits="userSpaceOnUse"><stop offset="0" style="stop-color:#a1c3fc"/><stop offset=".696" style="stop-color:#81aef2"/><stop offset="1" style="stop-color:#78a9ef"/></linearGradient><polygon fill="url(#SVGID_1_-i1)" points=".073 0 0 299.998 7.511 300 7.583 7.559 392.944 7.559 392.944 300 400 300 400 7.559 400 1.265 400 0"/></g></g><g><g transform="translate(792.0 386.0) scale(1.2988505747126438 1.2966666666666666) rotate(0.0 130.5 150.0) translate(-0.0 -0.0)"><linearGradient id="chair_leg_4_-i2" x1="5940.48" x2="6206.959" y1="5543.803" y2="5543.803" gradientTransform="matrix(0.0741 0 0 0.0741 -230.5491 -187.4563)" gradientUnits="userSpaceOnUse"><stop offset=".09" style="stop-color:#eee"/><stop offset=".818" style="stop-color:#d6d7d8"/></linearGradient><polygon id="chair_leg-i2" fill="url(#chair_leg_4_-i2)" points="229.301 300 223.376 300 209.555 146.856 215.412 146.856 215.461 146.679"/><linearGradient id="chair_leg_5_-i2" x1="5051.514" x2="5317.993" y1="5543.803" y2="5543.803" gradientTransform="matrix(0.0741 0 0 0.0741 -230.5491 -187.4563)" gradientUnits="userSpaceOnUse"><stop offset=".09" style="stop-color:#eee"/><stop offset=".818" style="stop-color:#d6d7d8"/></linearGradient><polygon id="chair_leg_3_-i2" fill="url(#chair_leg_5_-i2)" points="163.453 300 157.528 300 143.707 146.856 149.564 146.856 149.613 146.679"/><linearGradient id="chair_leg_6_-i2" x1="-3706.895" x2="-3440.416" y1="5543.803" y2="5543.803" gradientTransform="matrix(-0.0741 0 0 0.0741 -191.6355 -187.4563)" gradientUnits="userSpaceOnUse"><stop offset=".09" style="stop-color:#eee"/><stop offset=".818" style="stop-color:#d6d7d8"/></linearGradient><polygon id="chair_leg_1_-i2" fill="url(#chair_leg_6_-i2)" points="63.299 300 69.225 300 83.045 146.856 77.189 146.856 77.14 146.679"/><linearGradient id="chair_leg_7_-i2" x1="-2852.653" x2="-2586.174" y1="5543.803" y2="5543.803" gradientTransform="matrix(-0.0741 0 0 0.0741 -191.6355 -187.4563)" gradientUnits="userSpaceOnUse"><stop offset=".09" style="stop-color:#eee"/><stop offset=".818" style="stop-color:#d6d7d8"/></linearGradient><polygon id="chair_leg_2_-i2" fill="url(#chair_leg_7_-i2)" points="0 300 5.926 300 19.746 146.856 13.889 146.856 13.84 146.679"/><linearGradient id="chair_bottom_2_-i2" x1="6178.055" x2="4542.502" y1="4598.79" y2="4318.941" gradientTransform="matrix(0.0741 0 0 0.0741 -230.5491 -187.4563)" gradientUnits="userSpaceOnUse"><stop offset=".09" style="stop-color:#eee"/><stop offset=".818" style="stop-color:#d6d7d8"/></linearGradient><polygon id="chair_bottom-i2" fill="url(#chair_bottom_2_-i2)" points="77.138 146.84 215.415 146.859 219.657 132.806 77.138 132.806"/><linearGradient id="chair_back_1_-i2" x1="6188.685" x2="4823.146" y1="3566.597" y2="3038.588" gradientTransform="matrix(0.0741 0 0 0.0741 -230.5491 -187.4563)" gradientUnits="userSpaceOnUse"><stop offset=".09" style="stop-color:#eee"/><stop offset=".818" style="stop-color:#d6d7d8"/></linearGradient><polygon id="chair_back-i2" fill="url(#chair_back_1_-i2)" points="219.657 132.806 141.14 132.806 182.483 0 261 0"/><linearGradient id="chair_bottom_3_-i2" x1="-16981.107" x2="-13549.19" y1="4237.618" y2="4694.104" gradientTransform="matrix(-0.0162 0 0 0.0741 -207.8584 -187.4563)" gradientUnits="userSpaceOnUse"><stop offset=".09" style="stop-color:#eee"/><stop offset=".818" style="stop-color:#d6d7d8"/></linearGradient><polygon id="chair_bottom_1_-i2" fill="url(#chair_bottom_3_-i2)" points="77.138 146.84 13.779 146.968 13.779 132.761 77.138 132.806"/></g></g><g><g transform="translate(720.0 330.0) scale(1.129496402877698 1.1323529411764706) rotate(24.490024815660547 69.5 68.0) translate(-0.0 -0.0)"><linearGradient id="_4_page_2_-i3" x1="-125.246" x2="-9.432" y1="-379.454" y2="-218.472" gradientTransform="matrix(0.4833 0 0 0.4833 12 111.5333)" gradientUnits="userSpaceOnUse"><stop offset="0" style="stop-color:#a1c3fc"/><stop offset=".696" style="stop-color:#81aef2"/><stop offset="1" style="stop-color:#78a9ef"/></linearGradient><polyline id="_4_page_1_-i3" fill="url(#_4_page_2_-i3)" points="0 44.077 31.21 0 88.428 70.03 57.218 114.252"/><linearGradient id="_3_page_2_-i3" x1="50.457" x2="-16.872" y1="-132.59" y2="-230.217" gradientTransform="matrix(0.4833 0 0 0.4833 12 111.5333)" gradientUnits="userSpaceOnUse"><stop offset="0" style="stop-color:#a1c3fc"/><stop offset=".696" style="stop-color:#81aef2"/><stop offset="1" style="stop-color:#78a9ef"/></linearGradient><polyline id="_3_page_1_-i3" fill="url(#_3_page_2_-i3)" points="0 44.077 47.248 26.533 104.322 96.563 57.218 114.252"/><linearGradient id="_2_page_2_-i3" x1="-25.099" x2="140.218" y1="-207.294" y2="-10.437" gradientTransform="matrix(0.4833 0 0 0.4833 12 111.5333)" gradientUnits="userSpaceOnUse"><stop offset="0" style="stop-color:#a1c3fc"/><stop offset=".428" style="stop-color:#8db6f6"/><stop offset=".696" style="stop-color:#81aef2"/><stop offset="1" style="stop-color:#78a9ef"/></linearGradient><polygon id="_2_page_1_-i3" fill="url(#_2_page_2_-i3)" points="104.322 96.563 69.933 136 12.86 65.97 47.248 26.533"/><linearGradient id="cover_2_-i3" x1="122.447" x2="321.421" y1="-58.673" y2="256.37" gradientTransform="matrix(0.4833 0 0 0.4833 12 111.5333)" gradientUnits="userSpaceOnUse"><stop offset="0" style="stop-color:#a1c3fc"/><stop offset=".696" style="stop-color:#81aef2"/><stop offset="1" style="stop-color:#78a9ef"/></linearGradient><polygon id="cover_1_-i3" fill="url(#cover_2_-i3)" points="139 115.411 69.933 136 12.86 65.97 81.782 45.382"/></g></g><g><g transform="translate(707.0 263.0) scale(1.2846975088967971 1.2875) rotate(0.0 140.5 200.0) translate(-0.0 -0.0)"><path id="hand-i4" fill="#FFBEB6" d="M64.326,150.987c0,0,9.555,10.231,20.107,6.586s11.674-1.389,18.474,2.483 c2.934,1.669,14.222,7.453,23.012,11.787l-4.27-23.499c-10.702-0.13-25.217-0.808-29.787-3.309 c-7.498-4.118-11.598-11.257-14.799-13.29c-3.23-2.057-4.311-2.24-6.137-0.146c0,0-1.756-0.742-6.124-3.029 C56.052,124.649,59.896,146.943,64.326,150.987z"/><linearGradient id="R_trousers_1_-i4" x1="3173.513" x2="4357.938" y1="-4937.493" y2="-3597.536" gradientTransform="matrix(0.0741 0 0 -0.0741 -230.5491 -0.9887)" gradientUnits="userSpaceOnUse"><stop offset="0" style="stop-color:#3e8af8"/><stop offset=".465" style="stop-color:#2a82f5"/><stop offset="1" style="stop-color:#1479f2"/></linearGradient><path id="R_trousers-i4" fill="url(#R_trousers_1_-i4)" d="M83.884,361.371H54.011c0,0,6.057-101.809,8.89-130.058 c2.848-28.392,4.583-38.533,43.389-42.33c44.313-4.336,71.246-4.251,71.246-4.251l-44.652,37.685 c-10.436,8.808-14.968,22.779-11.689,36.038l0.524,2.121c1.936,7.834,1.176,16.093-2.157,23.442l-15.675,34.552 C103.89,318.569,106.435,347.445,83.884,361.371z"/><path id="L_leg-i4" fill="#428DFC" d="M244.889,192.806c-1.516,5.875-1.087,32.366-31.298,38.179 c-35.018,6.738-56.14,5.352-66.264,8.114c-8.227,2.244-10.594,5.386-9.723,11.222c0.872,5.826,9.22,12.591,11.844,23.669 c2.625,11.077-2.321,18.022,8.317,31.711c10.377,13.354,16.676,26.603,7.109,55.671l-31.765,0.002 c0,0-57.126-109.939-60.038-132.966s14.353-28.175,22.515-30.513c3.091-0.892,13.391-3.732,34.311-8.864 c4.477,3.012,14.492,8.65,23.734,6.134c12.361-3.378,15.165-8.154,29.498-4.776c8.499,2.001,23.624,4.696,35.749,0.327 C227.479,192.1,236.177,192.798,244.889,192.806z"/><linearGradient id="neck_1_-i4" x1="5973.961" x2="5973.961" y1="-1063.006" y2="-689.976" gradientTransform="matrix(0.0741 0 0 -0.0741 -230.5491 -0.9887)" gradientUnits="userSpaceOnUse"><stop offset="0" style="stop-color:#ffbeb6"/><stop offset="1" style="stop-color:#f2a19c"/></linearGradient><path id="neck-i4" fill="url(#neck_1_-i4)" d="M221.185,62.712c-5.083,2.852-9.645,6.547-13.491,10.928l-0.436,0.337 c-0.562-5.747-1.977-11.376-4.2-16.705c4.676-0.317,10.232-2.249,16.632-6.985C219.026,54.487,219.544,58.789,221.185,62.712z"/><path id="face-i4" fill="#FFBEB6" d="M223.334,39.199c-0.287,1.982-2.794,5.727-3.645,11.087c-20.755,17.543-35.015-2.22-35.015-2.22 c-3.011,0.882-6.687-1.819-5.507-4.25c4.769-9.833,4.081-11.196,5.181-16.021c0.287-1.258,0.525-2.398,0.724-3.368 c0.03-0.129,0.059-0.258,0.079-0.376c0.158-0.802,0.287-1.467,0.376-1.962l0.168-0.961c0,0,11.035,10.77,24.249,9.373 C223.156,29.113,223.86,35.544,223.334,39.199z"/><path id="texture-i4" fill="#FFF" d="M227.474,194.291 c-0.071-0.048-0.168-0.031-0.217,0.039c-0.049,0.062-0.039,0.154,0.023,0.203c0.002,0.002,0.004,0.003,0.006,0.005 c0.071,0.048,0.168,0.031,0.217-0.039C227.547,194.432,227.534,194.344,227.474,194.291z M214.231,202.318 c-0.081,0.019-0.133,0.098-0.119,0.178c0.017,0.082,0.096,0.134,0.178,0.117c0.077-0.016,0.129-0.088,0.119-0.166 c-0.011-0.083-0.087-0.141-0.169-0.131C214.237,202.317,214.234,202.317,214.231,202.318z M213.667,198.711 c-0.086,0.008-0.147,0.084-0.139,0.168l0,0c0.019,0.087,0.101,0.143,0.188,0.129c0.083-0.016,0.136-0.096,0.119-0.178l0,0 c-0.01-0.077-0.081-0.131-0.157-0.121C213.675,198.709,213.671,198.71,213.667,198.711L213.667,198.711z M213.082,195.085 c-0.083,0.023-0.134,0.104-0.119,0.188c0.014,0.08,0.09,0.132,0.168,0.119c0.082-0.013,0.138-0.088,0.129-0.168 C213.247,195.137,213.17,195.076,213.082,195.085L213.082,195.085z M199.373,198.75c-0.066-0.037-0.15-0.021-0.198,0.039 c-0.052,0.063-0.044,0.157,0.019,0.21c0.063,0.052,0.157,0.044,0.21-0.019c0.003-0.004,0.007-0.008,0.009-0.013 C199.462,198.897,199.443,198.8,199.373,198.75L199.373,198.75z M220.838,197.898c-0.041-0.067-0.13-0.088-0.197-0.046 c-0.004,0.002-0.007,0.005-0.011,0.007c-0.064,0.036-0.087,0.119-0.049,0.183c0.003,0.005,0.006,0.01,0.01,0.015 c0.034,0.066,0.117,0.094,0.184,0.058c0.005-0.003,0.01-0.005,0.014-0.009c0.07-0.039,0.096-0.128,0.055-0.198 C220.842,197.905,220.84,197.901,220.838,197.898L220.838,197.898z M218.926,194.778c-0.043-0.064-0.129-0.086-0.198-0.049 c-0.03,0.03-0.059,0.049-0.069,0.08v0.02c-0.018,0.039-0.01,0.088,0.02,0.119c0.001,0.011,0.009,0.019,0.02,0.02h0.01 c0.01,0.01,0.02,0.03,0.039,0.039c0.042,0.012,0.088,0.008,0.129-0.01C218.95,194.949,218.972,194.852,218.926,194.778 L218.926,194.778z M217.015,191.666c-0.044-0.068-0.136-0.088-0.204-0.042c-0.068,0.045-0.088,0.136-0.042,0.204 c0.042,0.065,0.129,0.086,0.196,0.046c0.07-0.042,0.094-0.134,0.051-0.205C217.016,191.668,217.016,191.667,217.015,191.666 L217.015,191.666z M206.951,200.138c-0.085-0.015-0.165,0.036-0.188,0.119c-0.023,0.082,0.025,0.165,0.106,0.188 c0.081,0.023,0.165-0.025,0.188-0.106c0.001-0.004,0.002-0.009,0.003-0.013C207.072,200.246,207.028,200.167,206.951,200.138 L206.951,200.138z M207.803,196.591c-0.083-0.02-0.164,0.028-0.188,0.109c-0.015,0.085,0.04,0.164,0.124,0.179 c0.074,0.014,0.148-0.028,0.173-0.101C207.929,196.697,207.882,196.616,207.803,196.591L207.803,196.591z M233.498,207.797 c-0.096-0.129-0.274-0.16-0.406-0.069c-0.127,0.096-0.15,0.277-0.055,0.404c0.094,0.122,0.266,0.15,0.392,0.062 c0.128-0.085,0.163-0.256,0.079-0.384C233.503,207.806,233.5,207.801,233.498,207.797L233.498,207.797z M229.485,202.138 c-0.091-0.128-0.268-0.158-0.397-0.069c-0.13,0.085-0.166,0.258-0.084,0.388c0.004,0.007,0.009,0.013,0.014,0.019 c0.091,0.129,0.268,0.16,0.397,0.069C229.544,202.45,229.575,202.27,229.485,202.138z M225.474,196.491 c-0.096-0.129-0.274-0.16-0.406-0.069c-0.128,0.086-0.163,0.258-0.077,0.386c0.002,0.004,0.005,0.007,0.008,0.011 c0.091,0.131,0.272,0.161,0.403,0.07C225.529,196.799,225.562,196.622,225.474,196.491z M208.882,219.845 c-0.155-0.025-0.302,0.076-0.337,0.228c-0.026,0.155,0.078,0.3,0.232,0.326c0.002,0,0.003,0,0.005,0.001 c0.158,0.028,0.309-0.079,0.337-0.237c0,0,0,0,0-0.001c0.026-0.149-0.073-0.289-0.222-0.315 C208.893,219.846,208.887,219.846,208.882,219.845z M210.041,212.998c-0.154-0.026-0.299,0.077-0.326,0.23 c0,0.003-0.001,0.006-0.001,0.009c-0.028,0.155,0.073,0.305,0.227,0.337c0.158,0.023,0.306-0.082,0.337-0.238 C210.298,213.179,210.195,213.033,210.041,212.998z M211.2,206.162c-0.157-0.019-0.302,0.085-0.337,0.238 c-0.025,0.157,0.083,0.303,0.239,0.328c0.153,0.023,0.296-0.077,0.326-0.227c0.031-0.154-0.067-0.304-0.222-0.336 C211.204,206.163,211.202,206.162,211.2,206.162L211.2,206.162z M212.349,199.325c-0.154-0.016-0.294,0.088-0.327,0.238 c-0.028,0.158,0.077,0.31,0.235,0.338c0.158,0.028,0.31-0.078,0.338-0.236c0.028-0.158-0.077-0.31-0.235-0.338 C212.356,199.327,212.353,199.327,212.349,199.325z M213.518,192.488c-0.155-0.026-0.3,0.079-0.326,0.233 c0,0.002,0,0.003-0.001,0.005c-0.033,0.15,0.061,0.3,0.212,0.334c0.005,0.001,0.011,0.002,0.016,0.003 c0.15,0.028,0.295-0.069,0.324-0.219c0.001-0.006,0.002-0.012,0.003-0.018C213.773,192.67,213.673,192.522,213.518,192.488 L213.518,192.488z M239.233,196.937c-0.132-0.089-0.31-0.052-0.399,0.08c-0.088,0.132-0.052,0.31,0.079,0.399 c0.004,0.003,0.008,0.005,0.012,0.008c0.135,0.08,0.308,0.04,0.397-0.09c0.087-0.127,0.053-0.299-0.072-0.387 C239.243,196.944,239.238,196.94,239.233,196.937L239.233,196.937z M223.394,216.129c-0.154,0.033-0.251,0.183-0.217,0.337 c0.033,0.153,0.183,0.251,0.337,0.217c0.158-0.033,0.261-0.188,0.227-0.346C223.699,216.185,223.547,216.095,223.394,216.129 L223.394,216.129z M221.849,209.372c-0.147,0.025-0.248,0.164-0.222,0.312c0.001,0.008,0.003,0.017,0.005,0.025 c0.033,0.153,0.182,0.251,0.335,0.217c0.001,0,0.001,0,0.002,0c0.158-0.033,0.261-0.188,0.227-0.346 c-0.036-0.153-0.19-0.246-0.341-0.209C221.852,209.371,221.851,209.372,221.849,209.372L221.849,209.372z M220.294,202.604 c-0.153,0.038-0.246,0.193-0.208,0.346c0.033,0.153,0.182,0.251,0.335,0.217c0.001,0,0.001,0,0.002,0 c0.157-0.036,0.258-0.189,0.227-0.346C220.609,202.667,220.451,202.571,220.294,202.604L220.294,202.604z M218.748,195.848 c-0.153,0.036-0.246,0.19-0.209,0.341c0,0.002,0.001,0.003,0.001,0.005c0.028,0.146,0.17,0.242,0.316,0.213 c0.007-0.001,0.014-0.003,0.021-0.005c0.15-0.028,0.249-0.171,0.22-0.321c-0.001-0.005-0.002-0.011-0.003-0.016 C219.056,195.912,218.904,195.815,218.748,195.848L218.748,195.848z M197.412,211.948c-0.12-0.084-0.284-0.053-0.367,0.066 c-0.007,0.01-0.014,0.021-0.019,0.033c-0.083,0.13-0.044,0.302,0.086,0.385c0.001,0.001,0.002,0.002,0.004,0.002 c0.13,0.087,0.304,0.05,0.39-0.08c0.002-0.003,0.004-0.007,0.006-0.01C197.592,212.208,197.547,212.032,197.412,211.948z M201.107,206.083c-0.127-0.087-0.299-0.053-0.386,0.073c-0.004,0.005-0.007,0.011-0.01,0.016c-0.087,0.132-0.051,0.308,0.079,0.397 c0.142,0.07,0.313,0.028,0.406-0.099C201.274,206.337,201.235,206.167,201.107,206.083L201.107,206.083z M204.791,200.207 c-0.13-0.088-0.306-0.054-0.395,0.075c-0.001,0.001-0.002,0.002-0.002,0.004c-0.088,0.133-0.052,0.312,0.081,0.401 c0.003,0.002,0.006,0.004,0.009,0.006c0.127,0.084,0.297,0.047,0.38-0.08c0.002-0.003,0.004-0.007,0.006-0.01 C204.958,200.472,204.923,200.295,204.791,200.207L204.791,200.207L204.791,200.207z M208.467,194.332 c-0.132-0.081-0.303-0.037-0.383,0.094c-0.001,0.002-0.002,0.003-0.003,0.005c-0.085,0.122-0.053,0.289,0.068,0.373 c0.007,0.005,0.014,0.009,0.021,0.013c0.135,0.079,0.308,0.039,0.397-0.09c0.084-0.13,0.045-0.304-0.085-0.388 C208.476,194.338,208.472,194.335,208.467,194.332L208.467,194.332z M229.941,214.514c-0.125,0.031-0.201,0.158-0.169,0.284 c0.003,0.012,0.007,0.023,0.011,0.033c0.038,0.129,0.174,0.202,0.303,0.163c0.005-0.001,0.009-0.003,0.014-0.005 c0.131-0.044,0.202-0.186,0.158-0.317c-0.036-0.128-0.169-0.201-0.296-0.165C229.954,214.509,229.948,214.511,229.941,214.514 L229.941,214.514z M227.99,208.628c-0.131,0.039-0.204,0.177-0.165,0.307c0.002,0.007,0.004,0.013,0.007,0.02 c0.044,0.132,0.183,0.205,0.317,0.168c0.135-0.048,0.205-0.198,0.157-0.333C228.258,208.663,228.122,208.592,227.99,208.628 L227.99,208.628z M226.365,202.911c-0.007-0.049-0.036-0.093-0.079-0.119h-0.01c-0.067-0.053-0.157-0.068-0.238-0.039 c-0.136,0.047-0.208,0.196-0.16,0.332c0.001,0.002,0.001,0.003,0.002,0.005c0.045,0.13,0.186,0.199,0.317,0.158 c0.064-0.017,0.117-0.065,0.139-0.129C226.387,203.063,226.397,202.981,226.365,202.911L226.365,202.911z M224.097,196.878 c-0.14,0.046-0.214,0.197-0.168,0.337l0,0c0.052,0.129,0.193,0.197,0.327,0.158c0.131-0.039,0.204-0.177,0.165-0.307 c-0.002-0.007-0.004-0.013-0.007-0.02C224.372,196.914,224.231,196.838,224.097,196.878z M204.167,212.632 c-0.129-0.061-0.284-0.009-0.346,0.119c-0.065,0.126-0.017,0.282,0.109,0.346c0.132,0.058,0.287,0.007,0.356-0.119 C204.333,212.849,204.283,212.705,204.167,212.632z M206.941,207.103c-0.129-0.061-0.284-0.009-0.346,0.119 c-0.064,0.12-0.019,0.269,0.101,0.333c0.003,0.001,0.005,0.003,0.008,0.004c0.114,0.065,0.26,0.027,0.326-0.088 c0.004-0.007,0.008-0.014,0.011-0.022c0.069-0.12,0.028-0.274-0.091-0.343C206.946,207.106,206.944,207.104,206.941,207.103 L206.941,207.103z M209.715,201.575c-0.129-0.061-0.284-0.009-0.346,0.119c-0.065,0.114-0.026,0.26,0.088,0.326 c0.007,0.004,0.014,0.008,0.022,0.011c0.129,0.061,0.284,0.009,0.346-0.119C209.884,201.788,209.836,201.639,209.715,201.575 L209.715,201.575z M212.478,196.036c-0.129-0.046-0.274,0.003-0.346,0.119c-0.061,0.129-0.009,0.284,0.119,0.346 c0.126,0.06,0.278,0.013,0.346-0.109C212.655,196.26,212.604,196.106,212.478,196.036L212.478,196.036z M236.143,200.851 c-0.087-0.106-0.242-0.123-0.348-0.036c-0.007,0.005-0.013,0.011-0.019,0.017c-0.104,0.077-0.125,0.222-0.047,0.325 c0.006,0.008,0.012,0.015,0.018,0.022c0.077,0.106,0.225,0.129,0.332,0.051c0.009-0.007,0.017-0.014,0.025-0.022 C236.212,201.121,236.229,200.961,236.143,200.851L236.143,200.851z M232.091,196.165c-0.099-0.101-0.258-0.108-0.366-0.02 c-0.105,0.096-0.114,0.26-0.02,0.366c0.091,0.101,0.245,0.108,0.346,0.02c0.112-0.087,0.133-0.246,0.046-0.357 C232.096,196.171,232.093,196.168,232.091,196.165L232.091,196.165z M217.599,213.078c-0.144-0.003-0.265,0.105-0.278,0.248 c-0.005,0.143,0.106,0.263,0.25,0.268c0.135,0.005,0.25-0.094,0.266-0.228C217.846,213.221,217.742,213.095,217.599,213.078 L217.599,213.078z M218.045,206.915c-0.14-0.008-0.259,0.099-0.268,0.238c-0.008,0.14,0.098,0.26,0.238,0.269 c0.136,0.008,0.255-0.093,0.268-0.229C218.291,207.051,218.185,206.928,218.045,206.915L218.045,206.915z M218.49,200.752 c-0.129-0.018-0.248,0.071-0.266,0.2c-0.001,0.009-0.002,0.019-0.002,0.028c-0.008,0.14,0.099,0.259,0.238,0.268 c0.137,0.011,0.257-0.091,0.268-0.228c0.011-0.137-0.091-0.257-0.227-0.268C218.497,200.752,218.494,200.752,218.49,200.752z M218.936,194.579c-0.14-0.013-0.263,0.09-0.278,0.228v0.02c0.003,0.048,0.016,0.096,0.039,0.139h0.01 c0.01,0.01,0.02,0.03,0.039,0.039c0.042,0.043,0.098,0.071,0.158,0.08c0.14,0.008,0.259-0.101,0.267-0.239 C219.18,194.707,219.075,194.588,218.936,194.579z M196.53,202.733c-0.096-0.104-0.255-0.116-0.366-0.03 c-0.105,0.097-0.113,0.26-0.02,0.366c0.09,0.107,0.248,0.121,0.354,0.031c0.001-0.001,0.001-0.001,0.002-0.002 C196.607,203.006,196.621,202.844,196.53,202.733L196.53,202.733z M201.206,198.681c-0.096-0.099-0.251-0.108-0.356-0.02 c-0.109,0.081-0.132,0.234-0.051,0.341c0.004,0.005,0.008,0.01,0.012,0.015c0.094,0.107,0.257,0.12,0.366,0.03 c0.109-0.088,0.126-0.249,0.037-0.357C201.211,198.688,201.209,198.684,201.206,198.681L201.206,198.681z M233.388,199.781 c-0.046-0.065-0.134-0.091-0.208-0.059c-0.073,0.04-0.101,0.134-0.059,0.207v0.001c0.033,0.069,0.116,0.099,0.185,0.066 c0.004-0.002,0.009-0.004,0.013-0.007C233.395,199.95,233.426,199.857,233.388,199.781L233.388,199.781z M231.596,196.611 c-0.043-0.07-0.134-0.096-0.208-0.059c-0.074,0.04-0.101,0.134-0.059,0.208c0.04,0.074,0.134,0.101,0.208,0.059 C231.607,196.775,231.632,196.685,231.596,196.611L231.596,196.611z M218.036,201.565c-0.075-0.023-0.155,0.02-0.177,0.094 c0,0.002-0.001,0.003-0.001,0.005c-0.023,0.08,0.021,0.163,0.099,0.188c0.083,0.02,0.164-0.028,0.188-0.109 C218.162,201.663,218.114,201.583,218.036,201.565L218.036,201.565L218.036,201.565z M219.016,198.047 c-0.07-0.026-0.148,0.011-0.173,0.081c-0.002,0.006-0.004,0.012-0.005,0.019c-0.026,0.076,0.013,0.158,0.088,0.185 c0.004,0.001,0.007,0.002,0.011,0.003c0.082,0.019,0.164-0.023,0.198-0.099c0.02-0.085-0.033-0.168-0.117-0.188 C219.017,198.047,219.017,198.047,219.016,198.047L219.016,198.047z M220.006,194.53c-0.079-0.023-0.163,0.023-0.186,0.102 c-0.001,0.002-0.001,0.005-0.002,0.007c-0.019,0.08,0.03,0.16,0.109,0.178l0,0c0.075,0.023,0.155-0.02,0.177-0.094 c0-0.002,0.001-0.003,0.001-0.005C220.129,194.639,220.085,194.555,220.006,194.53L220.006,194.53z M225.701,200.177 c-0.076,0.004-0.136,0.068-0.132,0.145c0,0.008,0.001,0.016,0.003,0.023c0.017,0.079,0.088,0.134,0.168,0.129 c0.082-0.013,0.138-0.088,0.129-0.168c-0.009-0.081-0.082-0.139-0.163-0.13C225.706,200.176,225.704,200.177,225.701,200.177 L225.701,200.177z M225.256,196.55c-0.079,0-0.129,0.08-0.129,0.168c0.017,0.079,0.088,0.134,0.168,0.129 c0.087-0.01,0.149-0.089,0.14-0.174c0-0.001,0-0.003,0-0.004c-0.013-0.081-0.088-0.134-0.168-0.121 C225.262,196.548,225.259,196.55,225.256,196.55L225.256,196.55z M212.329,196.55c-0.057-0.05-0.145-0.044-0.195,0.013 c-0.005,0.005-0.009,0.011-0.013,0.017c-0.049,0.065-0.036,0.158,0.03,0.208c0.065,0.049,0.158,0.036,0.208-0.03 C212.409,196.693,212.395,196.601,212.329,196.55z M214.588,193.687c-0.056-0.05-0.144-0.045-0.194,0.011 c-0.005,0.006-0.01,0.012-0.014,0.019c-0.049,0.054-0.046,0.139,0.008,0.188c0.004,0.004,0.008,0.007,0.012,0.01 c0.066,0.053,0.163,0.044,0.217-0.02c0.049-0.062,0.039-0.154-0.023-0.203C214.592,193.69,214.59,193.688,214.588,193.687 L214.588,193.687z M234.895,203.803c-0.088,0.023-0.139,0.112-0.115,0.199c0.002,0.006,0.004,0.013,0.006,0.019 c0.033,0.088,0.128,0.136,0.217,0.109c0.091-0.036,0.139-0.135,0.109-0.227C235.079,203.815,234.982,203.771,234.895,203.803 L234.895,203.803L234.895,203.803z M233.547,199.86c-0.091,0.028-0.144,0.125-0.119,0.217c0.036,0.09,0.135,0.136,0.227,0.109 c0.086-0.026,0.132-0.118,0.105-0.202c-0.002-0.005-0.004-0.011-0.006-0.016c-0.026-0.087-0.116-0.136-0.202-0.111 C233.551,199.859,233.549,199.859,233.547,199.86L233.547,199.86z M232.19,195.917c-0.093,0.031-0.142,0.132-0.11,0.224 c0,0.001,0.001,0.003,0.001,0.004c0,0.01,0,0.01,0.01,0.02c0.042,0.071,0.127,0.107,0.208,0.09c0.09-0.036,0.136-0.136,0.109-0.228 C232.378,195.935,232.28,195.888,232.19,195.917L232.19,195.917z M217.529,202.723c-0.091-0.034-0.192,0.004-0.238,0.09 c-0.04,0.086-0.005,0.186,0.08,0.228c0.076,0.043,0.173,0.018,0.217-0.058c0.004-0.007,0.007-0.014,0.01-0.021 C217.645,202.876,217.614,202.772,217.529,202.723L217.529,202.723z M219.353,198.978c-0.088-0.03-0.184,0.008-0.227,0.09 c-0.044,0.081-0.016,0.181,0.064,0.225c0.002,0.001,0.003,0.002,0.005,0.003c0.083,0.047,0.187,0.019,0.234-0.063 c0.001-0.002,0.002-0.004,0.003-0.006C219.471,199.135,219.436,199.03,219.353,198.978L219.353,198.978z M221.185,195.243 c-0.088-0.036-0.189-0.003-0.237,0.08c-0.036,0.086-0.002,0.184,0.079,0.228c0.076,0.043,0.173,0.018,0.217-0.058 c0.004-0.007,0.007-0.014,0.01-0.021c0.044-0.079,0.018-0.177-0.059-0.222C221.192,195.246,221.188,195.245,221.185,195.243 L221.185,195.243z M241.441,197.551c-0.061-0.073-0.171-0.084-0.245-0.022c-0.001,0.001-0.002,0.001-0.003,0.002 c-0.07,0.064-0.079,0.172-0.02,0.248c0.064,0.071,0.174,0.077,0.246,0.012c0.001-0.001,0.002-0.001,0.002-0.002 C241.491,197.728,241.5,197.623,241.441,197.551L241.441,197.551z M226.286,202.793h-0.01c-0.093,0.003-0.165,0.077-0.168,0.168 c-0.01,0.088,0.054,0.168,0.144,0.177c0.005,0.001,0.01,0.001,0.015,0.001c0.025,0.002,0.049-0.005,0.069-0.02 c0.068-0.008,0.117-0.07,0.109-0.139l0,0c0.01-0.093-0.056-0.177-0.15-0.187C226.292,202.793,226.289,202.793,226.286,202.793 L226.286,202.793z M226.544,198.631c-0.096-0.008-0.18,0.062-0.188,0.158c-0.008,0.096,0.062,0.18,0.158,0.188 c0.004,0,0.007,0.001,0.011,0.001c0.093,0.006,0.172-0.063,0.178-0.155c0-0.001,0-0.002,0-0.003c0.01-0.093-0.056-0.177-0.15-0.187 C226.55,198.631,226.547,198.631,226.544,198.631L226.544,198.631z M226.801,194.48c-0.086-0.012-0.164,0.047-0.176,0.133 c-0.001,0.009-0.002,0.017-0.002,0.026c-0.01,0.093,0.056,0.177,0.15,0.187c0.003,0,0.006,0.001,0.009,0.001 c0.096,0.002,0.174-0.073,0.178-0.168c0.01-0.088-0.054-0.168-0.144-0.177C226.811,194.48,226.806,194.48,226.801,194.48 L226.801,194.48z M212.022,195.966c-0.06-0.065-0.163-0.069-0.228-0.009c-0.003,0.003-0.006,0.006-0.009,0.009 c-0.07,0.06-0.079,0.166-0.02,0.238c0.062,0.075,0.173,0.084,0.248,0.021c0.074-0.062,0.084-0.173,0.021-0.248 C212.029,195.974,212.026,195.971,212.022,195.966L212.022,195.966z M215.142,193.211c-0.063-0.071-0.172-0.078-0.243-0.014 c-0.002,0.001-0.003,0.003-0.005,0.004c-0.065,0.06-0.069,0.163-0.009,0.229c0.003,0.003,0.006,0.006,0.009,0.009 c0.049,0.067,0.144,0.083,0.212,0.033c0.006-0.004,0.011-0.009,0.016-0.014c0.073-0.061,0.085-0.17,0.023-0.244 C215.144,193.214,215.144,193.213,215.142,193.211L215.142,193.211z M228.406,221.094c-0.161-0.019-0.307,0.098-0.326,0.259 c0,0.003-0.001,0.006-0.001,0.009c-0.011,0.16,0.107,0.301,0.268,0.317c0.163,0.013,0.307-0.105,0.327-0.268 c0.015-0.16-0.104-0.302-0.264-0.317C228.408,221.094,228.407,221.094,228.406,221.094L228.406,221.094z M228.981,213.97 c-0.16-0.015-0.301,0.102-0.317,0.262c0,0.002,0,0.004,0,0.006c-0.007,0.163,0.115,0.302,0.278,0.317 c0.161,0.014,0.303-0.106,0.316-0.268c0.014-0.161-0.106-0.303-0.268-0.316C228.986,213.97,228.983,213.97,228.981,213.97z M229.575,206.846c-0.16-0.019-0.307,0.097-0.325,0.258c-0.019,0.161,0.096,0.307,0.258,0.325c0.006,0.001,0.012,0.001,0.018,0.002 c0.164,0.016,0.31-0.104,0.327-0.268C229.856,207.001,229.735,206.864,229.575,206.846L229.575,206.846z M230.16,199.721 c-0.163-0.007-0.302,0.115-0.317,0.277c-0.011,0.16,0.107,0.301,0.268,0.317c0.164,0.011,0.306-0.113,0.318-0.278 C230.438,199.878,230.32,199.737,230.16,199.721L230.16,199.721z M201.86,207.439c-0.101-0.123-0.282-0.141-0.406-0.038 c-0.004,0.003-0.007,0.006-0.011,0.009c-0.122,0.093-0.147,0.266-0.055,0.388c0.005,0.007,0.01,0.013,0.016,0.019 c0.109,0.125,0.296,0.142,0.426,0.039C201.947,207.748,201.96,207.564,201.86,207.439z M207.307,202.823 c-0.101-0.126-0.284-0.146-0.411-0.044c-0.126,0.101-0.146,0.284-0.044,0.411c0.003,0.004,0.006,0.007,0.009,0.011 c0.107,0.121,0.288,0.138,0.416,0.039C207.4,203.132,207.413,202.947,207.307,202.823z M212.756,198.195 c-0.105-0.125-0.29-0.143-0.416-0.039c-0.12,0.111-0.137,0.294-0.039,0.426c0.107,0.122,0.292,0.135,0.416,0.03 c0.126-0.099,0.147-0.281,0.048-0.406C212.762,198.202,212.759,198.198,212.756,198.195z M218.204,193.579 c-0.099-0.126-0.281-0.147-0.406-0.048c-0.004,0.003-0.007,0.006-0.011,0.009c-0.12,0.111-0.138,0.295-0.039,0.426 c0.107,0.122,0.292,0.135,0.416,0.03c0.126-0.099,0.147-0.281,0.048-0.406C218.21,193.586,218.207,193.582,218.204,193.579z M238.43,202.535c-0.157,0.045-0.247,0.21-0.201,0.367c0.045,0.158,0.211,0.247,0.367,0.201c0.004-0.001,0.008-0.002,0.012-0.004 c0.157-0.045,0.247-0.21,0.201-0.367c-0.045-0.158-0.211-0.247-0.367-0.201C238.438,202.532,238.434,202.534,238.43,202.535z M236.429,195.739c-0.058-0.013-0.12-0.013-0.178,0c-0.158,0.05-0.245,0.217-0.198,0.376c0.058,0.157,0.232,0.236,0.389,0.177 c0.148-0.055,0.227-0.214,0.185-0.365C236.596,195.835,236.523,195.764,236.429,195.739z M215.757,214.138 c-0.148-0.071-0.325-0.009-0.397,0.139l0,0c-0.07,0.143-0.018,0.316,0.119,0.397c0.149,0.068,0.324,0.012,0.406-0.129 c0.077-0.146,0.022-0.327-0.124-0.405C215.76,214.14,215.759,214.139,215.757,214.138L215.757,214.138z M219.026,207.787 c-0.142-0.073-0.316-0.018-0.389,0.124c-0.003,0.005-0.005,0.01-0.007,0.015c-0.074,0.138-0.023,0.31,0.115,0.385 c0.001,0.001,0.003,0.001,0.004,0.002c0.146,0.078,0.327,0.022,0.404-0.124c0.001-0.002,0.002-0.003,0.002-0.005 c0.076-0.138,0.026-0.311-0.111-0.388C219.038,207.793,219.032,207.79,219.026,207.787z M222.285,201.426 c-0.146-0.064-0.315-0.003-0.386,0.139c-0.075,0.142-0.021,0.317,0.121,0.393c0.003,0.001,0.005,0.003,0.008,0.004 c0.138,0.072,0.308,0.02,0.381-0.118c0.002-0.004,0.004-0.007,0.005-0.011c0.077-0.146,0.022-0.327-0.125-0.405 C222.288,201.427,222.286,201.427,222.285,201.426L222.285,201.426z M225.553,195.075c-0.148-0.067-0.323-0.007-0.397,0.139 c-0.067,0.149-0.001,0.323,0.147,0.391c0.139,0.062,0.303,0.01,0.378-0.123c0.077-0.146,0.022-0.327-0.124-0.405 C225.556,195.077,225.555,195.076,225.553,195.075L225.553,195.075z M241.748,198.562c-0.154,0.054-0.236,0.22-0.188,0.376 c0.066,0.148,0.23,0.224,0.386,0.178c0.152-0.056,0.228-0.224,0.172-0.375c-0.001-0.004-0.003-0.007-0.004-0.011 c-0.052-0.147-0.214-0.222-0.36-0.17C241.753,198.562,241.75,198.562,241.748,198.562L241.748,198.562z M219.412,217.397 c-0.154-0.062-0.329,0.008-0.397,0.158c-0.06,0.148,0.005,0.317,0.149,0.387c0.142,0.068,0.312,0.008,0.38-0.134 c0.002-0.005,0.004-0.01,0.006-0.015C219.622,217.646,219.559,217.469,219.412,217.397L219.412,217.397z M222.393,210.938 c-0.154-0.063-0.329,0.007-0.397,0.158c-0.063,0.152,0.008,0.326,0.16,0.39c0.149,0.062,0.319-0.005,0.385-0.152 C222.605,211.183,222.539,211.01,222.393,210.938z M225.375,204.488c-0.144-0.068-0.316-0.008-0.385,0.136 c0,0.001-0.001,0.002-0.001,0.003c-0.071,0.147-0.011,0.323,0.135,0.395c0.147,0.071,0.323,0.011,0.395-0.135 c0.071-0.146,0.011-0.323-0.135-0.395C225.381,204.49,225.378,204.488,225.375,204.488z M228.356,198.027 c-0.142-0.069-0.313-0.011-0.382,0.131c-0.001,0.003-0.003,0.006-0.004,0.008c-0.065,0.148,0.001,0.321,0.149,0.387 c0.134,0.072,0.301,0.023,0.373-0.111c0.005-0.009,0.009-0.018,0.013-0.028c0.066-0.146,0.002-0.318-0.144-0.385 C228.36,198.029,228.358,198.028,228.356,198.027z M234.874,210.007c-0.163-0.002-0.298,0.125-0.307,0.287 c0.001,0.164,0.135,0.297,0.299,0.297c0.153-0.001,0.279-0.116,0.295-0.268C235.167,210.157,235.039,210.017,234.874,210.007 L234.874,210.007z M235.171,202.892c-0.166-0.006-0.306,0.122-0.317,0.287c-0.003,0.16,0.119,0.293,0.278,0.307 c0.161,0.008,0.298-0.116,0.307-0.277c0-0.003,0-0.007,0-0.01C235.45,203.04,235.329,202.903,235.171,202.892z M235.449,195.778 c-0.164-0.002-0.303,0.123-0.317,0.287c-0.004,0.165,0.128,0.303,0.293,0.307c0.001,0,0.003,0,0.004,0 c0.16,0.006,0.297-0.117,0.307-0.277C235.738,195.93,235.613,195.792,235.449,195.778L235.449,195.778z M209.981,205.993 c-0.101-0.117-0.277-0.131-0.395-0.031c-0.008,0.007-0.015,0.014-0.022,0.021c-0.118,0.104-0.129,0.284-0.025,0.401 c0.002,0.002,0.003,0.004,0.005,0.005c0.104,0.12,0.287,0.133,0.406,0.028c0.003-0.003,0.007-0.006,0.01-0.009 c0.12-0.098,0.138-0.274,0.04-0.394C209.995,206.008,209.989,206,209.981,205.993z M215.212,201.158 c-0.112-0.12-0.301-0.127-0.421-0.015s-0.127,0.301-0.015,0.421c0.11,0.118,0.295,0.127,0.416,0.02 c0.123-0.104,0.138-0.287,0.034-0.411C215.222,201.168,215.217,201.163,215.212,201.158z M220.442,196.333 c-0.112-0.12-0.301-0.127-0.421-0.015c-0.12,0.112-0.127,0.301-0.015,0.421c0.11,0.118,0.295,0.127,0.416,0.02 c0.123-0.104,0.138-0.287,0.034-0.411C220.452,196.344,220.447,196.338,220.442,196.333L220.442,196.333z M222.254,205.518 c-0.091-0.078-0.225-0.067-0.304,0.023c-0.005,0.006-0.009,0.011-0.013,0.017c-0.07,0.099-0.047,0.236,0.049,0.307 c0.094,0.077,0.23,0.064,0.308-0.028c0.077-0.093,0.064-0.231-0.028-0.308C222.263,205.525,222.259,205.521,222.254,205.518z M225.474,201.217c-0.099-0.077-0.241-0.058-0.317,0.039c-0.076,0.099-0.058,0.241,0.039,0.317c0.099,0.077,0.241,0.058,0.317-0.039 C225.59,201.437,225.572,201.294,225.474,201.217z M228.683,196.918c-0.101-0.068-0.236-0.051-0.317,0.039 c-0.071,0.102-0.049,0.242,0.049,0.317c0.097,0.068,0.23,0.051,0.307-0.039c0.077-0.096,0.062-0.234-0.031-0.311 C228.688,196.922,228.686,196.92,228.683,196.918L228.683,196.918z M233.329,207.707c-0.12-0.028-0.241,0.04-0.278,0.158 c-0.023,0.119,0.044,0.238,0.158,0.278c0.117,0.025,0.232-0.044,0.268-0.158c0.038-0.113-0.023-0.235-0.135-0.274 C233.338,207.71,233.334,207.708,233.329,207.707L233.329,207.707z M234.647,202.506c-0.111-0.028-0.224,0.037-0.254,0.149 c-0.002,0.007-0.003,0.013-0.004,0.02c-0.034,0.112,0.028,0.231,0.142,0.266c0.002,0.001,0.005,0.001,0.007,0.002 c0.123,0.03,0.247-0.045,0.278-0.168C234.841,202.653,234.766,202.534,234.647,202.506L234.647,202.506z M235.983,197.303 c-0.123-0.027-0.245,0.047-0.277,0.168c-0.031,0.108,0.031,0.222,0.14,0.253c0.006,0.002,0.013,0.003,0.019,0.005 c0.113,0.037,0.234-0.023,0.274-0.136c0.001-0.004,0.003-0.009,0.004-0.013C236.171,197.461,236.101,197.341,235.983,197.303 L235.983,197.303z M216.925,195.639c-0.058-0.104-0.189-0.14-0.292-0.083c-0.002,0.001-0.003,0.002-0.005,0.003 c-0.104,0.052-0.146,0.178-0.094,0.282c0.004,0.009,0.009,0.017,0.015,0.025c0.058,0.104,0.189,0.14,0.292,0.083 c0.002-0.001,0.003-0.002,0.005-0.003C216.954,195.884,216.989,195.746,216.925,195.639L216.925,195.639L216.925,195.639z M221.542,192.904c-0.063-0.106-0.2-0.141-0.307-0.08c-0.104,0.058-0.14,0.189-0.083,0.292c0.001,0.002,0.002,0.003,0.003,0.005 c0.056,0.108,0.19,0.15,0.298,0.094c0.003-0.002,0.006-0.003,0.009-0.005C221.568,193.149,221.603,193.012,221.542,192.904 L221.542,192.904z M237.519,196.64c-0.063-0.018-0.131,0.006-0.168,0.059c-0.021,0.065,0.008,0.137,0.069,0.168 c0.061,0.025,0.132-0.004,0.158-0.066c0-0.001,0.001-0.002,0.001-0.003C237.601,196.739,237.576,196.671,237.519,196.64z M233.13,200.306c-0.066-0.075-0.18-0.08-0.255-0.013c-0.005,0.004-0.009,0.009-0.013,0.013c-0.079,0.063-0.091,0.179-0.028,0.259 c0.005,0.007,0.011,0.013,0.018,0.019c0.075,0.078,0.197,0.082,0.277,0.01c0.079-0.066,0.09-0.185,0.023-0.265 C233.146,200.321,233.138,200.313,233.13,200.306z M236.618,196.918c-0.079-0.08-0.208-0.08-0.287,0c-0.08,0.08-0.08,0.208,0,0.287 c0.086,0.073,0.214,0.064,0.287-0.021C236.684,197.108,236.684,196.993,236.618,196.918z" enable-background="new" opacity=".71"/><linearGradient id="sweater_1_-i4" x1="6500.868" x2="6194.935" y1="-982.662" y2="-2787.671" gradientTransform="matrix(0.0741 0 0 -0.0741 -230.5491 -0.9887)" gradientUnits="userSpaceOnUse"><stop offset="0" style="stop-color:#23286b"/><stop offset="1" style="stop-color:#151a4f"/></linearGradient><path id="sweater-i4" fill="url(#sweater_1_-i4)" d="M271.594,194.54c0,0-16.74,8.184-53.905-3.419 c-9.132-2.887-18.064-6.376-26.735-10.443l12.075-101.083c1.416-2.085,2.971-4.071,4.656-5.944c0,0-0.01-0.01,0.01-0.01 c0.317-0.356,0.634-0.704,0.951-1.04c0.05-0.064,0.107-0.124,0.168-0.178c0.327-0.337,0.644-0.673,0.961-0.991 c0.693-0.694,1.367-1.338,2.041-1.952c0.327-0.297,0.664-0.595,0.99-0.872c0.98-0.862,1.931-1.615,2.813-2.279 c0.297-0.217,0.585-0.436,0.872-0.644c1.416-1.021,2.655-1.803,3.635-2.378c0.397-0.228,0.753-0.426,1.06-0.595 c-0.079-0.198-0.158-0.397-0.217-0.595c0.09-0.059,0.188-0.129,0.278-0.198c11.386,7.779,21.025,17.848,28.3,29.566 c12.352,19.708,9.123,26.98,15.829,38.593C272.069,141.69,293.019,166.648,271.594,194.54z"/><path id="L_sleeve-i4" fill="#23286B" d="M236.499,169.313c-2.516,12.682-9.974,19.004-18.81,21.807 c-11.917,3.785-26.338,1.199-34.559-0.733c-14.333-3.378-17.136,1.397-29.498,4.776c-12.362,3.368-24.882-2.031-24.882-2.031 l-9.896-44.805c0,0,17.741-0.614,36.462-1.774c18.79-1.16,31.747-9.561,37.641-41.872c1.549-8.981,4.983-17.531,10.074-25.087 c1.416-2.085,2.971-4.071,4.656-5.944c0,0-0.01-0.01,0.01-0.01c0.317-0.356,0.634-0.704,0.951-1.04 c0.05-0.064,0.107-0.124,0.168-0.178c0.327-0.337,0.644-0.673,0.961-0.991c0.693-0.704,1.367-1.348,2.041-1.952 c0.327-0.297,0.664-0.595,0.99-0.872c0.98-0.862,1.931-1.615,2.813-2.279c0.297-0.217,0.585-0.436,0.872-0.644 c1.416-1.021,2.655-1.803,3.635-2.378c0.397-0.228,0.753-0.426,1.06-0.595c0.648,1.616,1.426,3.177,2.328,4.667 c8.865,14.793,6.261,20.351,6.261,20.351l6.439-1.794C239.737,109.012,240.758,147.812,236.499,169.313z"/><linearGradient id="R_shoe_1_-i4" x1="3111.324" x2="4430.171" y1="-5150.805" y2="-5150.805" gradientTransform="matrix(0.0741 0 0 -0.0741 -230.5491 -0.9887)" gradientUnits="userSpaceOnUse"><stop offset="0" style="stop-color:#28306d"/><stop offset=".51" style="stop-color:#1f275f"/><stop offset="1" style="stop-color:#171f51"/></linearGradient><path id="R_shoe-i4" fill="url(#R_shoe_1_-i4)" d="M83.884,361.371H54.011c0,0-15.592,14.639-32.296,21.8S0,400,0,400l97.727-0.003 L83.884,361.371"/><path id="L_shoe-i4" fill="#28306D" d="M164.873,361.371l-31.765,0.001c0,0-13.699,14.637-30.404,21.798 c-16.705,7.161-21.716,16.829-21.716,16.829l97.728-0.003L164.873,361.371"/><path id="eye-i4" fill="#1C2868" d="M181.843,32.418c1.894,3.06,6.14,2.549,7.666-0.817c0.184-0.406-0.426-0.638-0.609-0.234 c-0.69,1.885-2.779,2.855-4.664,2.163c-0.783-0.287-1.444-0.836-1.872-1.552C182.139,31.612,181.618,32.056,181.843,32.418 L181.843,32.418z"/><path id="hair-i4" fill="#E94A47" d="M272.827,58.628c-3.218-5.467-8.221-8.984-13.059-12.896c-5.183-4.292-9.506-9.531-12.738-15.435 c-0.84-2.689-1.745-5.908-2.826-9.884c-5.914-21.748-28.349-22.61-44.525-18.439c-15.988,4.122-19.811,14.486-15.333,25.82 c0.575-2.507,0.971-4.567,1.178-5.707l0.168-0.961c0,0,11.035,10.77,24.249,9.373c6.054-0.635,9.477,0.371,11.363,1.999 c0.951,1.98,1.256,4.211,0.87,6.374c-0.499,3.112-2.006,5.867-3.283,8.713c-1.631,3.634-2.796,7.227-2.165,11.242 c1.571,10.017,13.865,19.831,6.658,30.119c-0.459,0.654,0.615,1.274,1.069,0.625c8.723-12.454-9.25-23.895-6.246-36.628 c0.525-1.962,1.253-3.864,2.173-5.675c-0.293,0.99-0.525,1.997-0.692,3.016c-0.733,4.558-0.258,10.294,3.823,17.091 c8.865,14.793,6.261,20.351,6.261,20.351l44.862-12.524c0,0,2.268-10.087-10.777-21.917c-8.606-7.804-11.836-10.157-14.736-17.094 c1.239,1.786,2.588,3.492,4.041,5.111c4.251,4.718,9.825,7.879,14.268,12.372c5.616,5.715,8.575,13.524,8.16,21.527 c-0.028,0.797,1.21,0.796,1.238,0C277.119,69.407,275.73,63.653,272.827,58.628z"/></g></g><g><g transform="translate(317.0 181.0) scale(1.1935191907939886 1.2332990750256936) rotate(0.0 50.2715 4.865) translate(390.599 -65.576)"><rect width="100.543" height="9.73" x="-390.599" y="65.576" fill="#D6D7D8"/></g></g><g><g transform="translate(389.0 97.0) scale(0.6075949367088608 0.6086956521739131) rotate(0.0 39.5 69.0) translate(-0.0 -0.0)"><path fill="#99C7F1" d="M52.812,0c-14.44,0-26.188,11.756-26.188,26.206c0,0.15,0.003,0.299,0.006,0.449h1.207h1.207 c-0.003-0.149-0.006-0.299-0.006-0.449c0-13.118,10.665-23.791,23.774-23.791s23.774,10.673,23.774,23.791 c0,11.132-7.681,20.501-18.017,23.084l-0.389,1.334l-0.382,1.309C69.862,49.596,79,38.95,79,26.206C79,11.756,67.252,0,52.812,0z"/><path fill="#FFF" d="M76.587,26.206c0-13.118-10.665-23.791-23.774-23.791S29.038,13.088,29.038,26.206 c0,0.15,0.003,0.299,0.006,0.449h4.128c0.239,10.653,8.937,19.217,19.64,19.217c2.522,0,4.931-0.481,7.146-1.347L58.57,49.29 C68.906,46.707,76.587,37.338,76.587,26.206z"/><path fill="#FAD7D7" d="M72.464,26.206c0-10.861-8.798-19.665-19.652-19.665c-10.853,0-19.651,8.804-19.651,19.665 c0,0.15,0.008,0.299,0.011,0.449h31.995l-5.208,17.87C67.277,41.663,72.464,34.543,72.464,26.206z"/><linearGradient id="SVGID_1_-i6" x1="36.029" x2="-11.312" y1="72.286" y2="88.883" gradientUnits="userSpaceOnUse"><stop offset="0" style="stop-color:#eee"/><stop offset=".554" style="stop-color:#d6d7d8"/></linearGradient><path fill="url(#SVGID_1_-i6)" d="M26.631,26.655H0l30.411,104.341h4.344l23.044-79.062c-1.615,0.313-3.282,0.479-4.987,0.479 C38.523,52.412,26.871,40.898,26.631,26.655z"/><path fill="#FFF" d="M52.812,45.871c-10.703,0-19.401-8.564-19.64-19.217h-4.128c0.24,12.912,10.809,23.342,23.768,23.342 c1.985,0,3.913-0.246,5.757-0.707l1.389-4.766C57.743,45.391,55.335,45.871,52.812,45.871z"/><path fill="#D6D7D8" d="M52.812,45.871c-10.703,0-19.401-8.564-19.64-19.217h-4.128c0.24,12.912,10.809,23.342,23.768,23.342 c1.985,0,3.913-0.246,5.757-0.707l1.389-4.766C57.743,45.391,55.335,45.871,52.812,45.871z"/><path fill="#0073DC" d="M52.812,51.204c-13.647,0-24.736-10.951-24.975-24.55h-1.207c0.24,14.244,11.892,25.757,26.182,25.757 c1.705,0,3.372-0.166,4.987-0.479l0.382-1.309C56.452,51.003,54.656,51.204,52.812,51.204z"/><path fill="#0073DC" d="M52.812,51.204c1.843,0,3.639-0.202,5.369-0.581l0.389-1.334c-1.844,0.461-3.772,0.707-5.757,0.707 c-12.959,0-23.529-10.43-23.768-23.342h-1.207C28.077,40.254,39.166,51.204,52.812,51.204z"/><path fill="#479AE6" d="M52.812,49.997c-12.959,0-23.529-10.43-23.768-23.342h-1.207h-1.207 c0.24,14.244,11.892,25.757,26.182,25.757c1.705,0,3.372-0.166,4.987-0.479l0.382-1.309l0.389-1.334 C56.726,49.751,54.797,49.997,52.812,49.997z"/><path fill="#BDDBFE" d="M33.172,26.655c0.239,10.653,8.937,19.217,19.64,19.217c2.522,0,4.931-0.481,7.146-1.347l5.208-17.87H33.172 z"/><path fill="#FFB4B3" d="M33.172,26.655c0.239,10.653,8.937,19.217,19.64,19.217c2.522,0,4.931-0.481,7.146-1.347l5.208-17.87H33.172 z"/><polygon fill="#AFD4FE" points="8.07 54.344 30.411 130.996 34.756 130.996 57.097 54.344"/><path fill="#74B4F7" d="M47.407,138c-1.587-4.154-7.621-7.246-14.823-7.246S19.347,133.846,17.76,138H47.407z"/><polygon fill="#92C4FE" points="13.139 71.734 30.411 130.996 34.756 130.996 52.028 71.734"/></g></g><g><g><g transform="translate(502.0 353.0) scale(0.8695652173913043 0.8662420382165605) rotate(0.0 23.000000000000004 78.5) translate(-0.0 -0.0)"><linearGradient id="SVGID_1_-i7" x1="0" x2="46" y1="79.65" y2="79.65" gradientUnits="userSpaceOnUse"><stop offset="0" style="stop-color:#23286b"/><stop offset="1" style="stop-color:#151a4f"/></linearGradient><polygon fill="url(#SVGID_1_-i7)" points="32.375 46.582 32.375 2.3 13.625 2.3 13.625 46.582 0 46.582 0 157 46 157 46 46.582"/><polygon fill="#E94A47" points="23.582 102.234 2.172 81.088 23.582 59.942 44.992 81.088"/><rect width="24.456" height="14.377" x="10.772" fill="#E94A47"/></g></g></g><g><g transform="translate(317.0 139.0) scale(0.40789473684210525 0.4095238095238095) rotate(0.0 76.0 52.5) translate(-0.0 -0.0)"><linearGradient id="SVGID_1_-i8" x1="8.547" x2="145.964" y1="21.422" y2="21.422" gradientUnits="userSpaceOnUse"><stop offset="0" style="stop-color:#a1c3fc"/><stop offset="1" style="stop-color:#78a9ef"/></linearGradient><path fill="url(#SVGID_1_-i8)" d="M145.964,42.844H8.547v-4.372c0-19.327,17.327-28.043,33.156-33.245 c21.209-6.969,48.258-6.969,67.614,0c20.605,7.419,36.646,13.918,36.646,33.245V42.844z"/><linearGradient id="SVGID_2_-i8" x1="8.547" x2="145.964" y1="5185.21" y2="5185.21" gradientTransform="matrix(1 0 0 -1 0 5270.9551)" gradientUnits="userSpaceOnUse"><stop offset="0" style="stop-color:#a1c3fc"/><stop offset="1" style="stop-color:#78a9ef"/></linearGradient><path fill="url(#SVGID_2_-i8)" d="M145.964,66.489H8.547v4.372c0,19.327,16.517,32.45,33.156,33.245c21.196,1.012,48.245,1.36,67.614,0 c21.84-1.533,36.646-13.918,36.646-33.245V66.489z"/><linearGradient id="SVGID_3_-i8" x1="10.07" x2="144.44" y1="60.373" y2="60.373" gradientUnits="userSpaceOnUse"><stop offset="0" style="stop-color:#23286b"/><stop offset="1" style="stop-color:#151a4f"/></linearGradient><path fill="url(#SVGID_3_-i8)" d="M138.324,66.497H16.186c-3.364,0-6.116-2.752-6.116-6.116v-0.016c0-3.364,2.752-6.116,6.116-6.116 h122.138c3.364,0,6.116,2.752,6.116,6.116v0.016C144.44,63.744,141.688,66.497,138.324,66.497z"/><g><polygon fill="#F2A19C" points="17.407 53.806 0 46.526 1.343 43.296 17.407 50.014 34.145 43.015 50.883 50.014 67.622 43.015 84.362 50.014 101.102 43.015 117.843 50.014 134.586 43.015 152 50.295 150.657 53.525 134.586 46.807 117.843 53.806 101.102 46.807 84.362 53.806 67.622 46.807 50.883 53.806 34.145 46.807"/></g><path id="texture-2_1_-i8" fill="#FFF" d="M87.848,38.577c-0.103-0.126-0.291-0.142-0.416-0.039 c-0.126,0.104-0.142,0.292-0.038,0.417c0.103,0.126,0.291,0.142,0.416,0.039l0,0C87.936,38.891,87.954,38.704,87.848,38.577 L87.848,38.577z M60.827,24.81c0.016-0.167-0.106-0.315-0.272-0.331l0,0c-0.152-0.019-0.29,0.088-0.309,0.24 c-0.002,0.012-0.003,0.026-0.002,0.039c-0.019,0.16,0.093,0.304,0.253,0.325C60.661,25.097,60.811,24.977,60.827,24.81L60.827,24.81 L60.827,24.81z M74.065,32.665c0.065-0.153,0.007-0.331-0.136-0.414c-0.15-0.077-0.336-0.016-0.413,0.137 c-0.077,0.151-0.016,0.337,0.136,0.414C73.805,32.865,73.981,32.808,74.065,32.665z M102.758,5.495 c0.156-0.272,0.067-0.619-0.201-0.782c-0.253-0.166-0.591-0.095-0.757,0.156c-0.006,0.009-0.012,0.017-0.015,0.026 c-0.156,0.272-0.067,0.619,0.201,0.782C102.248,5.841,102.595,5.76,102.758,5.495L102.758,5.495z M95.681,17.266 c0.157-0.274,0.062-0.622-0.212-0.778c-0.268-0.154-0.61-0.066-0.769,0.199c-0.163,0.264-0.082,0.61,0.182,0.774l0,0 C95.16,17.614,95.507,17.529,95.681,17.266z M88.58,29.05c0.161-0.265,0.08-0.608-0.184-0.77c-0.005-0.003-0.011-0.006-0.017-0.009 c-0.253-0.166-0.591-0.095-0.757,0.156c-0.006,0.009-0.012,0.017-0.015,0.026c-0.153,0.277-0.069,0.625,0.195,0.801 C88.072,29.408,88.418,29.319,88.58,29.05z M119.864,29.375c-0.192-0.245-0.546-0.288-0.791-0.093 c-0.245,0.192-0.287,0.547-0.093,0.793c0.189,0.24,0.534,0.286,0.778,0.103C120.004,29.983,120.051,29.627,119.864,29.375 L119.864,29.375z M108.818,37.54c-0.192-0.245-0.546-0.288-0.791-0.093c-0.245,0.192-0.287,0.547-0.093,0.793 c0.189,0.24,0.534,0.286,0.778,0.103C108.958,38.15,109.005,37.792,108.818,37.54L108.818,37.54z M75.248,2.222 c0.04-0.312-0.175-0.599-0.487-0.643c-0.303-0.049-0.585,0.159-0.634,0.462c0,0.002-0.001,0.004-0.001,0.004 c-0.064,0.296,0.123,0.586,0.417,0.65c0.014,0.003,0.028,0.005,0.044,0.009C74.899,2.738,75.186,2.531,75.248,2.222z M73.186,15.832 c0.036-0.312-0.172-0.6-0.478-0.662c-0.311-0.04-0.597,0.177-0.641,0.488c-0.046,0.308,0.167,0.597,0.474,0.642 c0.004,0.001,0.008,0.002,0.01,0.002c0.303,0.049,0.585-0.159,0.634-0.46C73.185,15.835,73.186,15.833,73.186,15.832z M71.13,29.42 c0.052-0.297-0.143-0.58-0.439-0.632c-0.008-0.002-0.018-0.003-0.026-0.003c-0.305-0.058-0.599,0.145-0.657,0.451 c-0.002,0.01-0.004,0.018-0.005,0.028c-0.045,0.313,0.172,0.602,0.481,0.646c0.312,0.045,0.6-0.173,0.645-0.483 C71.13,29.424,71.13,29.422,71.13,29.42z M127.558,40.443c-0.144-0.238-0.451-0.317-0.691-0.177 c-0.239,0.142-0.318,0.452-0.177,0.693c0.141,0.241,0.451,0.319,0.691,0.177l0,0C127.618,40.991,127.697,40.683,127.558,40.443z M86.223,10.04c0.059-0.279-0.109-0.554-0.384-0.629c-0.262-0.068-0.528,0.089-0.596,0.351c-0.002,0.008-0.003,0.014-0.004,0.022 c-0.074,0.27,0.085,0.548,0.354,0.619c0.004,0.001,0.006,0.001,0.01,0.002C85.871,10.465,86.142,10.306,86.223,10.04L86.223,10.04z M83.232,21.925c0.063-0.27-0.104-0.539-0.37-0.604c-0.262-0.068-0.528,0.089-0.596,0.351c-0.002,0.008-0.003,0.014-0.004,0.022 c-0.074,0.27,0.085,0.548,0.354,0.621c0.004,0.001,0.006,0.001,0.01,0.002C82.899,22.371,83.168,22.198,83.232,21.925L83.232,21.925 z M80.249,33.854c0.074-0.27-0.085-0.548-0.354-0.621c-0.004-0.001-0.006-0.001-0.01-0.002c-0.252-0.075-0.517,0.073-0.591,0.326 c-0.005,0.015-0.008,0.032-0.011,0.048c-0.074,0.27,0.085,0.548,0.354,0.621c0.004,0.001,0.006,0.001,0.01,0.002 C79.914,34.282,80.179,34.119,80.249,33.854L80.249,33.854z M107.06,27.015c0.159-0.23,0.107-0.545-0.12-0.71 c-0.222-0.166-0.534-0.122-0.7,0.101c-0.163,0.227-0.123,0.544,0.093,0.721C106.564,27.294,106.886,27.244,107.06,27.015 L107.06,27.015z M99.745,36.871c0.167-0.21,0.134-0.517-0.075-0.684c-0.007-0.005-0.016-0.012-0.023-0.019 c-0.222-0.166-0.534-0.122-0.7,0.101c-0.163,0.227-0.123,0.544,0.093,0.721C99.266,37.15,99.58,37.098,99.745,36.871L99.745,36.871z M61.782,14.821c-0.033-0.264-0.272-0.449-0.535-0.418c-0.011,0.002-0.021,0.002-0.03,0.005c-0.275,0.033-0.473,0.285-0.441,0.562 c0.001,0.006,0.001,0.013,0.003,0.017c0.052,0.273,0.309,0.459,0.586,0.42c0.272-0.038,0.46-0.291,0.422-0.564 C61.785,14.836,61.782,14.829,61.782,14.821L61.782,14.821z M63.576,26.976c-0.043-0.278-0.298-0.474-0.578-0.439 c-0.278,0.049-0.467,0.315-0.418,0.594c0.045,0.266,0.29,0.451,0.558,0.423c0.273-0.029,0.472-0.276,0.442-0.55 C63.58,26.996,63.578,26.985,63.576,26.976L63.576,26.976z M133.7,28.95c0.179-0.27,0.118-0.632-0.143-0.827 c-0.261-0.19-0.625-0.135-0.816,0.124c-0.183,0.269-0.12,0.636,0.143,0.827C133.144,29.263,133.509,29.209,133.7,28.95L133.7,28.95z M125.376,40.414c0.191-0.261,0.135-0.627-0.123-0.818c-0.258-0.192-0.625-0.135-0.816,0.124c-0.191,0.261-0.135,0.627,0.123,0.818 C124.82,40.729,125.184,40.673,125.376,40.414L125.376,40.414z M75.925,14.568c-0.061-0.323-0.361-0.542-0.687-0.498 c-0.32,0.061-0.53,0.373-0.467,0.694c0.059,0.31,0.352,0.517,0.662,0.473C75.749,15.181,75.966,14.887,75.925,14.568L75.925,14.568z M78.132,28.569c-0.056-0.316-0.349-0.533-0.667-0.492c-0.32,0.049-0.54,0.348-0.491,0.669c0.049,0.321,0.347,0.541,0.667,0.492 C77.957,29.184,78.175,28.887,78.132,28.569L78.132,28.569z M105.653,22.709c0.06-0.316-0.132-0.625-0.439-0.715 c-0.315-0.064-0.622,0.135-0.694,0.448c-0.081,0.307,0.101,0.623,0.41,0.705c0.004,0.001,0.008,0.002,0.012,0.002 C105.259,23.227,105.576,23.03,105.653,22.709C105.653,22.711,105.653,22.709,105.653,22.709L105.653,22.709z M102.343,36.507 c0.075-0.319-0.121-0.638-0.437-0.714c0,0,0,0-0.002,0c-0.306-0.073-0.615,0.119-0.685,0.427l0,0 c-0.076,0.313,0.115,0.628,0.425,0.704C101.95,37.002,102.262,36.814,102.343,36.507L102.343,36.507z M115.352,22.563 c0.079-0.31-0.109-0.627-0.42-0.707c-0.311-0.08-0.625,0.109-0.705,0.421c-0.076,0.303,0.1,0.613,0.398,0.7 C114.942,23.063,115.266,22.878,115.352,22.563L115.352,22.563z M111.494,36.148c0.084-0.315-0.1-0.64-0.414-0.726 c-0.305-0.079-0.621,0.096-0.718,0.396c-0.081,0.318,0.098,0.643,0.406,0.746C111.083,36.641,111.4,36.457,111.494,36.148 L111.494,36.148z M86.274,27.276c-0.045-0.322-0.339-0.55-0.661-0.512c-0.316,0.039-0.542,0.327-0.502,0.644 c0.024,0.314,0.296,0.55,0.609,0.526c0.009,0,0.017-0.001,0.025-0.003c0.322-0.028,0.56-0.313,0.53-0.636 C86.276,27.288,86.275,27.282,86.274,27.276L86.274,27.276z" enable-background="new"/></g></g><g><g transform="translate(592.0 342.0) scale(0.445 0.4420731707317073) rotate(0.0 100.0 164.0) translate(-0.0 -0.0)"><path fill="#EEE" d="M98.511,106.841c0,0-77.943,10.971-85.261,10.971S0,112.899,0,106.841S5.932,95.87,13.25,95.87 S98.511,106.841,98.511,106.841z"/><path fill="#EEE" d="M101.489,106.841c0,0,77.943,10.971,85.261,10.971S200,112.899,200,106.841s-5.932-10.971-13.25-10.971 S101.489,106.841,101.489,106.841z"/><path fill="#EEE" d="M98.597,77.839c0,0-73.415,10.971-80.308,10.971S5.81,83.898,5.81,77.839c0-6.059,5.588-10.971,12.48-10.971 S98.597,77.839,98.597,77.839z"/><path fill="#EEE" d="M101.403,77.839c0,0,73.415,10.971,80.308,10.971s12.48-4.912,12.48-10.971 c0-6.059-5.588-10.971-12.48-10.971C174.817,66.868,101.403,77.839,101.403,77.839z"/><path fill="#EEE" d="M98.841,48.838c0,0-60.645,10.971-66.339,10.971s-10.31-4.912-10.31-10.971s4.616-10.971,10.31-10.971 C38.196,37.867,98.841,48.838,98.841,48.838z"/><path fill="#EEE" d="M101.159,48.838c0,0,60.645,10.971,66.339,10.971s10.31-4.912,10.31-10.971s-4.616-10.971-10.31-10.971 S101.159,48.838,101.159,48.838z"/><path fill="#EEE" d="M101.159,19.835c0,0,26.512,8.582,32.206,8.582c5.694,0,10.31-3.842,10.31-8.582s-4.616-8.582-10.31-8.582 C127.671,11.254,101.159,19.835,101.159,19.835z"/><path fill="#EEE" d="M97.708,19.835c0,0-26.512,8.582-32.206,8.582s-10.31-3.842-10.31-8.582s4.616-8.582,10.31-8.582 S97.708,19.835,97.708,19.835z"/><path fill="#EEE" d="M98.597,136.866c0,0-73.415-10.971-80.308-10.971s-12.48,4.912-12.48,10.971 c0,6.059,5.588,10.971,12.48,10.971S98.597,136.866,98.597,136.866z"/><path fill="#EEE" d="M101.403,136.866c0,0,73.415-10.971,80.308-10.971s12.48,4.912,12.48,10.971 c0,6.059-5.588,10.971-12.48,10.971C174.817,147.836,101.403,136.866,101.403,136.866z"/><path fill="#EEE" d="M98.841,165.867c0,0-60.645-10.971-66.339-10.971s-10.31,4.912-10.31,10.971s4.616,10.971,10.31,10.971 S98.841,165.867,98.841,165.867z"/><path fill="#EEE" d="M101.159,165.867c0,0,60.645-10.971,66.339-10.971s10.31,4.912,10.31,10.971s-4.616,10.971-10.31,10.971 S101.159,165.867,101.159,165.867z"/><path fill="#EEE" d="M101.159,194.869c0,0,26.512-8.582,32.206-8.582c5.694,0,10.31,3.842,10.31,8.582s-4.616,8.582-10.31,8.582 C127.671,203.451,101.159,194.869,101.159,194.869z"/><path fill="#EEE" d="M97.708,194.869c0,0-26.512-8.582-32.206-8.582s-10.31,3.842-10.31,8.582s4.616,8.582,10.31,8.582 C71.196,203.451,97.708,194.869,97.708,194.869z"/><g><path fill="#EEE" d="M99.219,323.564c-0.997,0-1.719-0.628-1.719-1.403V1.403C97.5,0.629,98.222,0,99.219,0 s1.719,0.628,1.719,1.403v320.758C100.938,322.936,100.216,323.564,99.219,323.564z"/></g><path fill="#F8AFA9" d="M48.031,279.409c0-9.239,18.142-11.62,41.017-13.605c8.114-0.704,14.725,3.967,22.875,3.967 c7.885,0,13.851-0.602,18.511-1.003c12.269-1.057,15.498-0.73,20.929,15.599c4.177,12.56-23.22,23.382-51.863,23.382 S48.031,292.323,48.031,279.409z"/><path id="texture-2_1_-i9" fill="#FFF" d="M118.441,280.771 c-0.037-0.082-0.133-0.118-0.214-0.081c-0.082,0.036-0.118,0.133-0.081,0.214c0.037,0.082,0.133,0.118,0.214,0.081l0,0 C118.441,280.948,118.478,280.853,118.441,280.771L118.441,280.771z M116.843,277.146c-0.03-0.079-0.118-0.119-0.197-0.088 c-0.006,0.003-0.012,0.005-0.017,0.008c-0.084,0.034-0.125,0.129-0.092,0.213c0.043,0.081,0.14,0.117,0.225,0.082 C116.843,277.323,116.88,277.228,116.843,277.146L116.843,277.146L116.843,277.146z M115.246,273.522 c-0.04-0.084-0.136-0.125-0.224-0.093c-0.081,0.043-0.117,0.14-0.082,0.225c0.037,0.082,0.133,0.118,0.214,0.081l0,0 C115.236,273.701,115.277,273.606,115.246,273.522L115.246,273.522z M101.657,281.059c-0.083-0.028-0.173,0.016-0.202,0.099 c-0.037,0.075-0.008,0.166,0.067,0.203c0.006,0.003,0.013,0.006,0.02,0.008c0.085,0.032,0.182-0.01,0.214-0.096 c0.032-0.085-0.01-0.182-0.096-0.214C101.659,281.06,101.657,281.06,101.657,281.059z M123.928,274.234 c-0.064-0.06-0.165-0.057-0.225,0.007s-0.057,0.165,0.007,0.225s0.165,0.057,0.225-0.007l0,0c0.061-0.057,0.063-0.153,0.004-0.213 C123.935,274.241,123.932,274.237,123.928,274.234z M121.061,271.489c-0.064-0.06-0.164-0.056-0.225,0.007 c-0.024,0.027-0.04,0.06-0.045,0.096c-0.007,0.052,0.012,0.105,0.05,0.141c0.008,0.009,0.019,0.015,0.032,0.015l0.011,0.001 c0.058,0.038,0.135,0.028,0.182-0.023c0.063-0.063,0.064-0.167,0-0.23C121.066,271.493,121.063,271.49,121.061,271.489z M109.984,280.421c-0.093,0.002-0.167,0.078-0.165,0.172c0.002,0.092,0.077,0.166,0.17,0.165c0.093-0.001,0.167-0.077,0.166-0.171 C110.153,280.494,110.077,280.42,109.984,280.421z M109.893,276.458c-0.092,0.003-0.164,0.079-0.166,0.171 c0.001,0.087,0.072,0.156,0.158,0.156c0.005,0,0.009,0,0.013-0.001c0.089,0.001,0.163-0.07,0.164-0.16l0,0 C110.057,276.534,109.983,276.463,109.893,276.458z M139.943,281.107c-0.128-0.112-0.322-0.099-0.434,0.029 c-0.002,0.003-0.005,0.006-0.007,0.009c-0.108,0.129-0.092,0.32,0.037,0.428c0.001,0.001,0.002,0.001,0.003,0.002 c0.128,0.112,0.322,0.099,0.434-0.029c0.002-0.003,0.005-0.006,0.007-0.009c0.108-0.129,0.092-0.32-0.037-0.428 C139.945,281.109,139.944,281.108,139.943,281.107L139.943,281.107z M134.166,276.284c-0.128-0.108-0.32-0.092-0.428,0.037 c-0.001,0.001-0.001,0.002-0.002,0.002c-0.111,0.132-0.095,0.33,0.037,0.441s0.33,0.095,0.441-0.037 C134.319,276.589,134.297,276.394,134.166,276.284L134.166,276.284z M128.397,271.471c-0.132-0.111-0.33-0.095-0.441,0.037 c-0.111,0.132-0.095,0.33,0.037,0.441c0.132,0.111,0.33,0.095,0.441-0.037c0.112-0.128,0.099-0.322-0.029-0.434 C128.403,271.476,128.4,271.473,128.397,271.471L128.397,271.471z M117.458,300.532c-0.171,0.015-0.298,0.165-0.286,0.335 c0.012,0.165,0.155,0.289,0.32,0.277c0.006,0,0.011-0.001,0.017-0.002c0.171-0.015,0.298-0.165,0.286-0.335 C117.778,300.638,117.628,300.516,117.458,300.532L117.458,300.532z M116.777,293.042c-0.169,0.017-0.292,0.168-0.275,0.337 c0,0,0,0,0,0.001c0.014,0.172,0.164,0.299,0.335,0.286s0.299-0.164,0.286-0.335C117.1,293.159,116.95,293.034,116.777,293.042 L116.777,293.042z M116.106,285.554c-0.171,0.023-0.296,0.174-0.287,0.346c0.012,0.165,0.155,0.289,0.32,0.277 c0.006,0,0.011-0.001,0.017-0.002c0.169-0.011,0.297-0.156,0.287-0.325c0-0.004,0-0.007-0.001-0.011 C116.427,285.669,116.277,285.542,116.106,285.554L116.106,285.554z M115.423,278.075c-0.169,0.017-0.292,0.168-0.275,0.337 c0,0,0,0,0,0.001c0.015,0.171,0.166,0.299,0.338,0.283c0.171-0.015,0.299-0.166,0.283-0.338c-0.015-0.171-0.166-0.299-0.338-0.283 C115.428,278.075,115.426,278.075,115.423,278.075z M114.752,270.587c-0.172,0.021-0.294,0.177-0.274,0.348 c0.02,0.166,0.167,0.287,0.334,0.275c0.165-0.012,0.289-0.155,0.277-0.32c0-0.006-0.001-0.011-0.002-0.017 C115.073,270.702,114.924,270.574,114.752,270.587L114.752,270.587z M132.071,292.757c-0.077-0.157-0.266-0.222-0.423-0.145 c-0.158,0.077-0.222,0.266-0.145,0.423s0.266,0.222,0.423,0.145c0.002-0.001,0.004-0.002,0.006-0.003 C132.085,293.098,132.147,292.911,132.071,292.757L132.071,292.757z M128.582,286.1c-0.077-0.157-0.266-0.222-0.423-0.145 s-0.222,0.266-0.145,0.423c0.077,0.157,0.266,0.222,0.423,0.145c0.002-0.001,0.004-0.002,0.006-0.003 C128.595,286.44,128.657,286.254,128.582,286.1L128.582,286.1z M125.093,279.442c-0.088-0.15-0.277-0.207-0.432-0.13 c-0.152,0.084-0.209,0.277-0.124,0.429c0.081,0.148,0.264,0.205,0.416,0.131C125.104,279.788,125.166,279.6,125.093,279.442 L125.093,279.442z M121.59,272.793c-0.074-0.153-0.259-0.218-0.412-0.143c-0.153,0.074-0.218,0.259-0.144,0.412 c0.003,0.005,0.005,0.009,0.007,0.014c0.077,0.151,0.263,0.21,0.413,0.133c0.003-0.002,0.006-0.003,0.009-0.004 c0.147-0.071,0.207-0.247,0.136-0.393C121.596,272.805,121.593,272.8,121.59,272.793L121.59,272.793z M103.249,295.428 c-0.156-0.052-0.325,0.033-0.377,0.189c-0.002,0.008-0.004,0.015-0.007,0.023c-0.051,0.16,0.038,0.33,0.198,0.381 c0.001,0,0.002,0.001,0.003,0.001c0.164,0.052,0.338-0.038,0.393-0.2C103.502,295.657,103.411,295.485,103.249,295.428z M105.496,288.262c-0.162-0.054-0.337,0.033-0.391,0.194c-0.001,0.002-0.002,0.004-0.002,0.006c-0.052,0.164,0.037,0.338,0.2,0.393 c0.166,0.042,0.337-0.049,0.394-0.211c0.051-0.16-0.038-0.33-0.197-0.381C105.498,288.263,105.498,288.263,105.496,288.262 L105.496,288.262z M107.734,281.084c-0.164-0.052-0.338,0.038-0.393,0.2c-0.054,0.162,0.034,0.336,0.196,0.39 c0.005,0.002,0.01,0.003,0.015,0.004c0.156,0.053,0.325-0.031,0.378-0.187c0.002-0.005,0.003-0.01,0.004-0.014 C107.985,281.313,107.896,281.139,107.734,281.084L107.734,281.084z M109.971,273.904c-0.164-0.045-0.334,0.049-0.383,0.212 c-0.052,0.156,0.031,0.325,0.187,0.378c0.005,0.002,0.01,0.003,0.014,0.004c0.164,0.052,0.338-0.038,0.393-0.2 C110.229,274.132,110.136,273.958,109.971,273.904z M138.449,289.201c-0.084-0.127-0.255-0.163-0.383-0.078 s-0.163,0.255-0.078,0.383c0.084,0.127,0.255,0.163,0.383,0.078C138.497,289.5,138.532,289.329,138.449,289.201L138.449,289.201z M134.78,283.587c-0.084-0.127-0.255-0.163-0.383-0.078s-0.163,0.255-0.078,0.383c0.084,0.127,0.255,0.163,0.383,0.078l0,0 c0.127-0.079,0.165-0.246,0.085-0.373C134.784,283.593,134.782,283.59,134.78,283.587z M131.112,277.96 c-0.022-0.048-0.062-0.084-0.111-0.103l-0.011-0.001c-0.085-0.035-0.183-0.026-0.26,0.025c-0.13,0.086-0.167,0.26-0.082,0.391 c0.001,0.001,0.001,0.002,0.002,0.002c0.085,0.126,0.255,0.161,0.383,0.078c0.059-0.036,0.099-0.097,0.109-0.167 C131.171,278.111,131.16,278.025,131.112,277.96z M127.443,272.344c-0.085-0.126-0.255-0.162-0.382-0.078 c-0.13,0.084-0.167,0.258-0.083,0.388c0.084,0.129,0.255,0.167,0.385,0.085c0.13-0.086,0.167-0.261,0.082-0.391 C127.444,272.345,127.444,272.345,127.443,272.344L127.443,272.344z M110.516,294.284c-0.149-0.031-0.296,0.064-0.327,0.213 c0,0.002-0.001,0.003-0.001,0.005c-0.035,0.144,0.053,0.289,0.196,0.324c0.004,0.001,0.008,0.002,0.012,0.003 c0.153,0.028,0.302-0.066,0.34-0.217C110.76,294.461,110.664,294.319,110.516,294.284L110.516,294.284z M111.897,287.72 c-0.149-0.031-0.296,0.064-0.327,0.213c0,0.002-0.001,0.003-0.001,0.005c-0.035,0.144,0.053,0.289,0.196,0.324 c0.004,0.001,0.008,0.002,0.012,0.003c0.147,0.032,0.293-0.06,0.327-0.207C112.138,287.908,112.046,287.759,111.897,287.72z M113.279,281.157c-0.149-0.031-0.296,0.064-0.327,0.214c0,0.002-0.001,0.003-0.001,0.005c-0.038,0.139,0.043,0.283,0.182,0.321 c0.009,0.002,0.017,0.004,0.025,0.006c0.149,0.031,0.296-0.064,0.327-0.213c0-0.002,0.001-0.003,0.001-0.005 C113.516,281.337,113.424,281.193,113.279,281.157z M114.648,274.592c-0.15-0.024-0.292,0.072-0.328,0.218 c-0.03,0.152,0.068,0.298,0.219,0.329c0.147,0.029,0.291-0.063,0.326-0.208C114.894,274.778,114.799,274.63,114.648,274.592 L114.648,274.592z M140.79,273.093c-0.125-0.087-0.298-0.057-0.384,0.069c-0.002,0.003-0.004,0.006-0.005,0.008 c-0.087,0.116-0.063,0.281,0.053,0.368c0.005,0.003,0.009,0.007,0.014,0.01c0.12,0.09,0.291,0.065,0.382-0.056 c0.002-0.003,0.005-0.007,0.008-0.01C140.942,273.356,140.913,273.184,140.79,273.093L140.79,273.093z M124.728,291.039 c-0.149,0.036-0.244,0.181-0.219,0.333c0.029,0.149,0.173,0.246,0.321,0.217c0.15-0.027,0.252-0.169,0.228-0.32 C125.03,291.115,124.883,291.012,124.728,291.039L124.728,291.039z M123.493,284.445c-0.149,0.036-0.244,0.181-0.219,0.333 c0.029,0.149,0.173,0.246,0.321,0.217c0.145-0.023,0.243-0.16,0.22-0.305c-0.001-0.006-0.002-0.011-0.003-0.017 C123.786,284.523,123.644,284.422,123.493,284.445L123.493,284.445z M122.256,277.864c-0.145,0.023-0.243,0.16-0.22,0.305 c0.001,0.006,0.002,0.011,0.003,0.017c0.029,0.149,0.173,0.246,0.321,0.217c0.149-0.029,0.246-0.173,0.217-0.321 c-0.023-0.145-0.16-0.243-0.305-0.22C122.267,277.862,122.261,277.863,122.256,277.864L122.256,277.864z M121.02,271.272 c-0.15,0.027-0.252,0.169-0.228,0.32c0.012,0.058,0.04,0.112,0.082,0.156l0.011,0.001c0.065,0.058,0.154,0.082,0.239,0.062 c0.149-0.029,0.246-0.173,0.217-0.321C121.313,271.339,121.168,271.242,121.02,271.272L121.02,271.272z M99.772,286.019 c-0.127-0.085-0.298-0.057-0.388,0.066c-0.087,0.125-0.057,0.298,0.069,0.384c0.002,0.002,0.006,0.004,0.008,0.005 c0.116,0.087,0.281,0.063,0.367-0.053c0.003-0.005,0.007-0.01,0.01-0.014c0.09-0.12,0.065-0.291-0.056-0.382 C99.778,286.023,99.775,286.021,99.772,286.019L99.772,286.019z M103.551,280.477c-0.132-0.082-0.305-0.041-0.387,0.091 c-0.077,0.126-0.046,0.289,0.075,0.376c0.13,0.083,0.302,0.049,0.39-0.077c0.088-0.123,0.059-0.293-0.064-0.381 C103.56,280.483,103.555,280.48,103.551,280.477z M137.608,272.74c-0.063-0.066-0.168-0.069-0.235-0.006 c-0.066,0.063-0.069,0.168-0.006,0.235s0.168,0.069,0.235,0.006l0,0C137.666,272.909,137.669,272.807,137.608,272.74z M134.852,269.907c-0.063-0.066-0.168-0.069-0.235-0.006c-0.066,0.063-0.068,0.168-0.006,0.235c0.063,0.066,0.168,0.068,0.235,0.006 l0,0C134.911,270.077,134.913,269.974,134.852,269.907L134.852,269.907z M122.006,278.841c-0.089-0.001-0.163,0.07-0.164,0.16 c-0.002,0.089,0.07,0.163,0.16,0.164c0.089,0.001,0.163-0.07,0.164-0.16C122.167,278.917,122.096,278.843,122.006,278.841 L122.006,278.841L122.006,278.841z M122.059,274.886c-0.086-0.005-0.159,0.062-0.164,0.147c0,0.004-0.001,0.008-0.001,0.013 c-0.002,0.089,0.07,0.163,0.16,0.164l0,0c0.092,0.003,0.169-0.068,0.176-0.158c0-0.092-0.075-0.166-0.167-0.166 C122.062,274.886,122.061,274.886,122.059,274.886L122.059,274.886z M122.123,270.932c-0.086-0.005-0.159,0.061-0.164,0.147 c0,0.004-0.001,0.008-0.001,0.013c-0.002,0.089,0.07,0.163,0.16,0.164s0.163-0.07,0.164-0.16 C122.285,271.007,122.214,270.933,122.123,270.932L122.123,270.932z M129.875,275.363c-0.028-0.082-0.116-0.126-0.199-0.098 c-0.005,0.002-0.009,0.003-0.014,0.006c-0.083,0.03-0.126,0.122-0.096,0.204c0.001,0.003,0.003,0.006,0.003,0.009 c0.038,0.08,0.129,0.119,0.213,0.092C129.865,275.541,129.907,275.446,129.875,275.363L129.875,275.363z M128.407,271.674 c-0.033-0.08-0.124-0.118-0.204-0.086c-0.003,0.002-0.006,0.003-0.01,0.004c-0.082,0.036-0.123,0.129-0.092,0.213 c0.038,0.08,0.129,0.119,0.213,0.092c0.086-0.032,0.129-0.128,0.098-0.214C128.41,271.681,128.409,271.677,128.407,271.674 L128.407,271.674z M114.636,275.173c-0.075-0.038-0.166-0.008-0.203,0.067c-0.003,0.006-0.006,0.013-0.008,0.02 c-0.035,0.082,0.004,0.177,0.087,0.212c0.083,0.035,0.177-0.004,0.212-0.087C114.757,275.302,114.718,275.207,114.636,275.173z M116.207,271.542c-0.075-0.038-0.166-0.008-0.203,0.067c-0.003,0.006-0.006,0.013-0.008,0.02c-0.037,0.079-0.004,0.173,0.074,0.21 c0,0,0.001,0,0.001,0.001c0.085,0.037,0.184-0.001,0.223-0.086c0.036-0.081-0.001-0.175-0.082-0.209 C116.21,271.543,116.209,271.542,116.207,271.542L116.207,271.542z M140.558,276.579c-0.053-0.083-0.163-0.108-0.247-0.055 c-0.002,0.001-0.003,0.003-0.005,0.003c-0.086,0.052-0.114,0.164-0.062,0.25c0.003,0.004,0.005,0.008,0.008,0.012 c0.053,0.083,0.163,0.108,0.247,0.055c0.002-0.001,0.003-0.003,0.005-0.003C140.59,276.784,140.613,276.667,140.558,276.579 L140.558,276.579z M138.045,272.824c-0.053-0.083-0.163-0.108-0.247-0.055c-0.002,0.001-0.003,0.003-0.005,0.003 c-0.088,0.058-0.111,0.175-0.053,0.263s0.175,0.111,0.263,0.053c0.083-0.055,0.107-0.168,0.051-0.252 C138.052,272.832,138.048,272.828,138.045,272.824L138.045,272.824z M121.788,280.204c-0.101-0.011-0.195,0.054-0.22,0.153 c-0.02,0.099,0.043,0.197,0.142,0.218c0.092,0.026,0.188-0.028,0.214-0.12c0.002-0.007,0.004-0.014,0.004-0.022 C121.953,280.332,121.89,280.229,121.788,280.204C121.789,280.205,121.789,280.205,121.788,280.204z M122.67,275.776 c-0.101-0.012-0.195,0.054-0.22,0.153c-0.02,0.099,0.042,0.197,0.142,0.218c0.102,0.025,0.204-0.038,0.229-0.14 c0-0.001,0-0.001,0-0.002C122.838,275.902,122.773,275.802,122.67,275.776L122.67,275.776z M123.553,271.346 c-0.101-0.011-0.195,0.054-0.22,0.153c-0.02,0.099,0.042,0.197,0.142,0.218c0.094,0.025,0.19-0.032,0.215-0.125 c0.002-0.009,0.004-0.019,0.005-0.028C123.715,271.465,123.652,271.368,123.553,271.346L123.553,271.346z M131.219,278.006 c-0.017-0.1-0.112-0.167-0.211-0.15c-0.002,0-0.004,0.001-0.006,0.001l-0.011-0.001c-0.096,0.027-0.156,0.121-0.138,0.218 c0.017,0.1,0.112,0.167,0.211,0.15c0.002,0,0.004-0.001,0.006-0.001c0.026-0.008,0.05-0.02,0.071-0.036 C131.203,278.149,131.234,278.077,131.219,278.006L131.219,278.006z M130.115,273.421c-0.101,0.027-0.166,0.125-0.15,0.228 c0.029,0.099,0.129,0.159,0.23,0.139c0.098-0.022,0.16-0.118,0.138-0.216c0-0.001,0-0.002-0.001-0.003 C130.313,273.469,130.216,273.403,130.115,273.421L130.115,273.421z M114.149,274.645c-0.082-0.054-0.192-0.033-0.247,0.049 c-0.002,0.003-0.005,0.007-0.007,0.011c-0.055,0.083-0.034,0.195,0.048,0.252c0.083,0.06,0.199,0.041,0.259-0.042 c0.002-0.002,0.002-0.003,0.004-0.006C114.264,274.82,114.237,274.703,114.149,274.645L114.149,274.645z M116.665,270.892 c-0.09-0.056-0.207-0.03-0.264,0.058c-0.054,0.082-0.033,0.192,0.048,0.247c0.003,0.002,0.007,0.005,0.011,0.007 c0.077,0.058,0.186,0.041,0.243-0.035c0.003-0.004,0.006-0.009,0.009-0.014C116.772,271.069,116.751,270.952,116.665,270.892 L116.665,270.892L116.665,270.892z M138.275,296.445c-0.175,0.03-0.294,0.196-0.268,0.371c0.033,0.173,0.199,0.288,0.373,0.257 c0.174-0.033,0.292-0.196,0.268-0.371C138.615,296.529,138.449,296.414,138.275,296.445L138.275,296.445z M136.915,288.82 c-0.174,0.032-0.288,0.198-0.257,0.373c0.032,0.174,0.199,0.288,0.373,0.257c0.174-0.032,0.288-0.198,0.257-0.373 C137.255,288.903,137.089,288.788,136.915,288.82L136.915,288.82z M135.566,281.195c-0.174,0.026-0.294,0.188-0.269,0.362 c0.026,0.174,0.187,0.294,0.362,0.269c0.004-0.001,0.008-0.001,0.012-0.002c0.175-0.03,0.294-0.196,0.268-0.371 C135.906,281.278,135.741,281.163,135.566,281.195L135.566,281.195z M134.206,273.568c-0.173,0.029-0.288,0.194-0.258,0.366 c0,0.003,0.001,0.005,0.001,0.006c0.033,0.174,0.2,0.288,0.374,0.255c0.173-0.033,0.286-0.198,0.255-0.37 c-0.03-0.173-0.194-0.288-0.366-0.258C134.211,273.568,134.209,273.568,134.206,273.568L134.206,273.568z M106.663,289.474 c-0.147-0.101-0.349-0.062-0.45,0.086c-0.098,0.143-0.064,0.337,0.073,0.441c0.15,0.099,0.351,0.063,0.458-0.08 C106.841,289.774,106.805,289.577,106.663,289.474L106.663,289.474z M111.097,283.126c-0.146-0.101-0.346-0.064-0.447,0.082 s-0.064,0.346,0.082,0.447c0.146,0.101,0.346,0.064,0.447-0.082C111.28,283.427,111.243,283.227,111.097,283.126z M115.532,276.778 c-0.139-0.104-0.336-0.076-0.44,0.064c-0.002,0.003-0.003,0.005-0.005,0.007c-0.099,0.15-0.063,0.351,0.08,0.458 c0.147,0.098,0.344,0.062,0.447-0.082c0.102-0.142,0.069-0.339-0.073-0.44C115.538,276.782,115.535,276.78,115.532,276.778 L115.532,276.778z M119.966,270.431c-0.139-0.104-0.336-0.076-0.44,0.064c-0.002,0.003-0.003,0.005-0.005,0.007 c-0.097,0.15-0.062,0.349,0.08,0.458c0.147,0.098,0.344,0.062,0.447-0.082c0.103-0.135,0.077-0.327-0.058-0.43 C119.982,270.441,119.975,270.435,119.966,270.431L119.966,270.431z M144.105,274.324c-0.096-0.151-0.297-0.194-0.448-0.098 c-0.151,0.096-0.194,0.297-0.098,0.448c0.096,0.151,0.297,0.194,0.448,0.098C144.154,274.673,144.198,274.475,144.105,274.324 L144.105,274.324z M123.093,292.659c-0.17-0.037-0.338,0.071-0.375,0.241c-0.001,0.003-0.001,0.004-0.002,0.006 c-0.039,0.171,0.064,0.342,0.234,0.386c0.173,0.031,0.341-0.076,0.387-0.246C123.377,292.871,123.267,292.698,123.093,292.659 L123.093,292.659L123.093,292.659z M124.759,285.099c-0.165-0.04-0.332,0.061-0.372,0.226c-0.002,0.006-0.003,0.013-0.004,0.021 c-0.038,0.168,0.067,0.336,0.235,0.375c0,0,0,0,0.001,0c0.175,0.039,0.348-0.07,0.387-0.245v-0.001 c0.04-0.165-0.061-0.332-0.226-0.372C124.772,285.101,124.766,285.101,124.759,285.099L124.759,285.099z M126.427,277.529 c-0.175-0.033-0.345,0.082-0.378,0.258c-0.032,0.171,0.077,0.338,0.247,0.376c0.17,0.037,0.338-0.071,0.375-0.241 c0.001-0.003,0.001-0.004,0.002-0.006C126.712,277.741,126.602,277.568,126.427,277.529 C126.428,277.529,126.427,277.529,126.427,277.529L126.427,277.529z M128.093,269.969c-0.172-0.035-0.339,0.076-0.376,0.247 c-0.035,0.172,0.076,0.341,0.248,0.376c0.168,0.035,0.332-0.07,0.373-0.236C128.378,270.183,128.269,270.009,128.093,269.969 C128.094,269.97,128.094,269.97,128.093,269.969L128.093,269.969z M127.824,295.064c-0.175-0.033-0.344,0.083-0.377,0.258 c-0.033,0.175,0.083,0.344,0.258,0.377s0.344-0.082,0.377-0.257C128.115,295.266,127.999,295.098,127.824,295.064L127.824,295.064z M129.17,287.467c-0.178-0.023-0.343,0.094-0.379,0.268c-0.023,0.171,0.09,0.332,0.259,0.366c0.175,0.033,0.345-0.083,0.378-0.257 C129.456,287.67,129.343,287.504,129.17,287.467z M130.504,279.88c-0.173-0.03-0.337,0.086-0.367,0.258 c-0.03,0.173,0.086,0.337,0.258,0.367c0.001,0,0.001,0,0.002,0c0.175,0.033,0.345-0.083,0.378-0.257 C130.797,280.072,130.678,279.91,130.504,279.88z M131.85,272.283c-0.171-0.031-0.333,0.081-0.365,0.252 c-0.001,0.003-0.001,0.005-0.002,0.008c-0.028,0.172,0.087,0.335,0.259,0.366c0.166,0.035,0.329-0.073,0.363-0.239 c0.002-0.006,0.002-0.013,0.003-0.02c0.031-0.171-0.081-0.333-0.252-0.365C131.856,272.283,131.853,272.283,131.85,272.283z M141.999,283.04c-0.173,0.04-0.283,0.211-0.247,0.385c0.042,0.172,0.215,0.276,0.387,0.236c0.171-0.034,0.281-0.201,0.246-0.372 c0-0.001,0-0.002-0.001-0.003C142.342,283.116,142.173,283.007,141.999,283.04L141.999,283.04z M140.338,275.502 c-0.172,0.042-0.28,0.211-0.247,0.385c0.037,0.172,0.206,0.281,0.378,0.244c0.172-0.037,0.281-0.206,0.244-0.378 c0-0.002-0.001-0.004-0.001-0.006c-0.034-0.171-0.201-0.281-0.372-0.246C140.339,275.502,140.339,275.502,140.338,275.502z M114.778,285.711c-0.145-0.093-0.338-0.052-0.431,0.093c-0.002,0.004-0.005,0.008-0.007,0.012 c-0.094,0.147-0.053,0.342,0.094,0.437c0.15,0.097,0.349,0.056,0.448-0.093c0.096-0.149,0.054-0.347-0.095-0.443 C114.783,285.715,114.781,285.712,114.778,285.711L114.778,285.711z M118.928,279.205c-0.145-0.093-0.338-0.052-0.431,0.093 c-0.002,0.004-0.005,0.008-0.007,0.012c-0.094,0.147-0.053,0.342,0.094,0.437c0.15,0.097,0.349,0.056,0.448-0.093 c0.097-0.149,0.054-0.347-0.095-0.443C118.934,279.209,118.932,279.207,118.928,279.205L118.928,279.205z M123.079,272.701 c-0.15-0.09-0.345-0.044-0.438,0.105c-0.094,0.147-0.053,0.342,0.094,0.437c0.15,0.097,0.349,0.056,0.448-0.093 c0.096-0.149,0.054-0.347-0.095-0.443C123.085,272.705,123.082,272.703,123.079,272.701L123.079,272.701z M127.52,281.821 c-0.115-0.055-0.253-0.007-0.308,0.107c-0.004,0.007-0.007,0.015-0.01,0.023c-0.051,0.123,0.008,0.265,0.131,0.315 c0.123,0.051,0.265-0.008,0.315-0.131C127.699,282.013,127.642,281.873,127.52,281.821z M129.704,276.427 c-0.12-0.053-0.262,0.002-0.315,0.122c-0.002,0.003-0.002,0.006-0.003,0.008c-0.052,0.123,0.007,0.266,0.13,0.318 c0.124,0.052,0.266-0.007,0.318-0.13C129.885,276.621,129.827,276.479,129.704,276.427L129.704,276.427z M131.886,271.034 c-0.123-0.052-0.266,0.007-0.318,0.13c-0.052,0.123,0.007,0.266,0.13,0.318c0.123,0.051,0.266-0.007,0.318-0.13l0,0 C132.066,271.228,132.009,271.088,131.886,271.034L131.886,271.034z M139.736,281.061c-0.132-0.001-0.241,0.106-0.241,0.238 c0,0.001,0,0.002,0,0.003c0.006,0.13,0.11,0.235,0.24,0.241c0.132-0.002,0.239-0.108,0.241-0.24 c0.005-0.128-0.095-0.236-0.223-0.242C139.748,281.061,139.742,281.061,139.736,281.061L139.736,281.061z M139.685,275.246 c-0.128,0.001-0.231,0.105-0.23,0.233c0,0.003,0,0.006,0,0.009c-0.001,0.132,0.106,0.241,0.238,0.241c0.001,0,0.002,0,0.003,0 c0.134-0.007,0.24-0.117,0.243-0.252c-0.005-0.133-0.116-0.237-0.249-0.232C139.688,275.245,139.686,275.246,139.685,275.246 L139.685,275.246z M139.366,270.556c-0.134,0.008-0.24,0.117-0.242,0.252c-0.001,0.127,0.102,0.23,0.229,0.23 c0.004,0,0.008,0,0.012,0c0.128,0.005,0.236-0.095,0.241-0.223c0-0.006,0.001-0.012,0-0.018c0.001-0.132-0.105-0.241-0.238-0.241 C139.367,270.556,139.367,270.556,139.366,270.556L139.366,270.556z M119.198,272.948c-0.087-0.094-0.234-0.1-0.328-0.012 c-0.002,0.003-0.005,0.004-0.006,0.007c-0.095,0.09-0.1,0.239-0.01,0.335c0.004,0.005,0.009,0.009,0.014,0.013 c0.094,0.092,0.245,0.089,0.337-0.005C119.295,273.19,119.293,273.039,119.198,272.948L119.198,272.948z M137.491,273.352 c-0.094-0.06-0.22-0.032-0.28,0.063c-0.003,0.005-0.006,0.01-0.008,0.015c-0.063,0.09-0.041,0.213,0.048,0.277 c0.006,0.004,0.012,0.008,0.018,0.012c0.101,0.064,0.235,0.035,0.299-0.065l0,0c0.063-0.098,0.035-0.229-0.063-0.293 C137.499,273.358,137.495,273.355,137.491,273.352L137.491,273.352z" enable-background="new" opacity=".86"/><linearGradient id="SVGID_1_-i9" x1="4691.345" x2="5340.884" y1="6262.41" y2="5531.01" gradientTransform="matrix(0.0762 0 0 0.0762 -276.2162 -154.176)" gradientUnits="userSpaceOnUse"><stop offset=".09" style="stop-color:#eee"/><stop offset=".818" style="stop-color:#d6d7d8"/></linearGradient><rect width="111.8" height="52.749" x="44.364" y="275.251" fill="url(#SVGID_1_-i9)"/><linearGradient id="SVGID_2_-i9" x1="4853.663" x2="5151.398" y1="5360.103" y2="6612.265" gradientTransform="matrix(0.0762 0 0 0.0762 -276.2162 -154.176)" gradientUnits="userSpaceOnUse"><stop offset=".09" style="stop-color:#eee"/><stop offset=".818" style="stop-color:#d6d7d8"/></linearGradient><rect width="111.8" height="13.802" x="44.364" y="275.251" fill="url(#SVGID_2_-i9)"/></g></g></svg>